G04 DipTrace 3.3.1.3*
G04 Bottom.gbr*
%MOIN*%
G04 #@! TF.FileFunction,Copper,L2,Bot*
G04 #@! TF.Part,Single*
%AMOUTLINE0*
4,1,8,
0.030133,0.072747,
-0.030133,0.072747,
-0.072747,0.030133,
-0.072747,-0.030133,
-0.030133,-0.072747,
0.030133,-0.072747,
0.072747,-0.030133,
0.072747,0.030133,
0.030133,0.072747,
0*%
%AMOUTLINE3*
4,1,8,
-0.072747,0.030133,
-0.072747,-0.030133,
-0.030133,-0.072747,
0.030133,-0.072747,
0.072747,-0.030133,
0.072747,0.030133,
0.030133,0.072747,
-0.030133,0.072747,
-0.072747,0.030133,
0*%
%AMOUTLINE6*
4,1,8,
0.029528,-0.019685,
0.03937,-0.009843,
0.03937,0.009843,
0.029528,0.019685,
-0.029528,0.019685,
-0.03937,0.009843,
-0.03937,-0.009843,
-0.029528,-0.019685,
0.029528,-0.019685,
0*%
%AMOUTLINE9*
4,1,8,
-0.029528,0.019685,
-0.03937,0.009843,
-0.03937,-0.009843,
-0.029528,-0.019685,
0.029528,-0.019685,
0.03937,-0.009843,
0.03937,0.009843,
0.029528,0.019685,
-0.029528,0.019685,
0*%
G04 #@! TA.AperFunction,CopperBalancing*
%ADD13C,0.019685*%
%ADD14C,0.012992*%
G04 #@! TA.AperFunction,Conductor*
%ADD15C,0.03937*%
G04 #@! TA.AperFunction,CopperBalancing*
%ADD16C,0.025*%
G04 #@! TA.AperFunction,ComponentPad*
%ADD17C,0.062992*%
%ADD18R,0.062992X0.062992*%
%ADD19R,0.059055X0.059055*%
%ADD20C,0.059055*%
%ADD21O,0.07874X0.03937*%
%ADD22C,0.05*%
%ADD23C,0.05*%
%ADD45C,0.008749*%
%ADD46C,0.015439*%
%ADD47C,0.006562*%
%ADD48OUTLINE0*%
%ADD51OUTLINE3*%
G04 #@! TA.AperFunction,ComponentPad*
%ADD54OUTLINE6*%
%ADD57OUTLINE9*%
%FSLAX26Y26*%
G04*
G70*
G90*
G75*
G01*
G04 Bottom*
%LPD*%
X3043701Y1831201D2*
D13*
X2643701D1*
X2593701Y1781201D1*
X2793701Y1631201D2*
X3043701D1*
Y1731201D2*
X2918701D1*
X2893701Y1706201D1*
X2593701D1*
X2518701Y1781201D1*
Y1881201D1*
X2593701Y1956201D1*
X2368701Y1706201D2*
Y1781201D1*
X2318701Y1831201D1*
Y1893701D1*
X2431201Y2006201D1*
X2618701D1*
X2743701Y1881201D1*
X2997822D1*
D14*
X3093701D1*
D13*
X3118701Y1856201D1*
Y1456201D1*
X3093701Y1431201D1*
X3043701D1*
X2793701Y1506201D2*
X2818701Y1531201D1*
X3043701D1*
Y931201D2*
X3093701D1*
X3118701Y956201D1*
Y1256201D1*
X3093701Y1281201D1*
D14*
X3005870D1*
D13*
X2793701D1*
X2593701Y1481201D1*
Y1656201D1*
X2393701Y1856201D1*
X2368701D1*
X3043701Y831201D2*
X3018701D1*
X2968701Y781201D1*
X2293701D1*
X2218701Y856201D1*
Y1156201D1*
X2368701Y1306201D1*
Y1506201D1*
X2168701Y1231201D2*
Y831201D1*
X2268701Y731201D1*
X3043701D1*
X1718701Y1956201D2*
Y1881201D1*
X1818701Y1781201D1*
X2293701D1*
Y1956201D2*
X2118701D1*
X1918701Y1356201D2*
Y1481201D1*
X2018701Y1581201D1*
X2443701D1*
X2493701Y1631201D1*
X1718701Y1356201D2*
Y1481201D1*
X1868701Y1631201D1*
X2418701D1*
X2468701Y1681201D1*
X2518701D1*
X2543701Y1656201D1*
Y1606201D1*
X2493701Y1556201D1*
Y1506201D1*
X1618701Y1356201D2*
Y1531201D1*
X1793701Y1706201D1*
X2068701D1*
Y1856201D2*
X1868701D1*
X1843701Y1881201D1*
Y1931201D1*
X1818701Y1956201D1*
X2068701Y1506201D2*
X2043701D1*
X2018701Y1481201D1*
Y1356201D1*
X1818701D2*
Y1281201D1*
X1868701Y1231201D1*
X756201Y1356201D2*
X581201D1*
X656201Y918701D2*
X606201Y906201D1*
G02X556201Y956201I-6J49994D01*
G01*
Y1106201D1*
Y1256201D1*
G02X581201Y1356201I48589J40978D01*
G01*
X556201Y1606201D2*
Y1431201D1*
G03X581201Y1356201I26831J-32723D01*
G01*
X3943701Y1631201D2*
D15*
Y1406201D1*
Y1106201D2*
Y881201D1*
X3243701Y2131201D2*
D13*
X3818701D1*
G02X3943701Y2006201I5J-124995D01*
G01*
Y1931201D1*
X3343701Y1331201D2*
X3393701D1*
X3418701Y1356201D1*
X3593701D1*
X3668701Y1281201D1*
Y881201D1*
Y806201D1*
X3693701Y781201D1*
X3918701D1*
X3943701Y806201D1*
Y881201D1*
X2543701D2*
X2493701Y831201D1*
X2318701D1*
X2293701Y856201D1*
Y1081201D1*
X2318701Y1106201D1*
X2368701D1*
X2443701D1*
X2568701Y1231201D1*
X3043701D1*
X756201Y1356201D2*
X556201D1*
Y1606201D1*
X543701Y1593701D1*
Y1618701D1*
X481201Y1681201D1*
Y2237450D1*
X574951Y2331201D1*
X1387450D1*
Y2181201D1*
X2543701D1*
X2606201Y2243701D1*
X3131201D1*
X3243701Y2131201D1*
X2543701Y881201D2*
X2593701D1*
X2643701Y831201D1*
X2943701D1*
X2993701Y881201D1*
D14*
X3081530D1*
D13*
X3295362D1*
D14*
X3392286D1*
D13*
X3668701D1*
X581201Y1906201D2*
X574950D1*
X612450Y1868701D1*
Y1662450D1*
X556201Y1606201D1*
X2093701Y956201D2*
X1818701D1*
X1543701D2*
X1818701D1*
X1268701D2*
X1543701D1*
X1268701D2*
X1087450D1*
X962450Y831201D1*
X743701D1*
X656201Y918701D1*
X756201D2*
Y1306201D1*
X906201D1*
X756201Y1106201D2*
Y918701D1*
Y1306201D2*
Y1106201D1*
X3043701Y1331201D2*
X3118701D1*
X3193701Y1256201D1*
X3293701Y1156201D1*
X3318701D1*
X3343701Y1131201D1*
X2593701Y2131201D2*
X2668701D1*
X2731201Y2193701D1*
X3106201D1*
X3193701Y2106201D1*
Y1256201D1*
X906201Y1306201D2*
X1249950Y1649950D1*
Y1987450D1*
X1393701Y2131201D1*
X2593701D1*
X2093701Y1156201D2*
Y1331201D1*
X2118701Y1356201D1*
X1268701Y1156201D2*
X1306201D1*
Y1962450D1*
X1406201Y2062450D1*
X1999950D1*
X2018701Y2043701D1*
Y1956201D1*
X2093701Y1056201D2*
X1943701D1*
X1268701D2*
X1118701D1*
X1543701D2*
X1393701D1*
X1818701D2*
X1668701D1*
X3043701Y631201D2*
X1793701D1*
X1668701Y756201D1*
X3343701Y631201D2*
Y606201D1*
X3318701Y581201D1*
X1568701D1*
X1393701Y756201D1*
X3343701Y731201D2*
X3418701Y656201D1*
Y556201D1*
X3393701Y531201D1*
X1343701D1*
X1118701Y756201D1*
X3343701Y831201D2*
X3468701D1*
X3518701Y781201D1*
Y756201D1*
X3343701Y831201D2*
X3143701D1*
X3118701Y806201D1*
Y706201D1*
X3093701Y681201D1*
D14*
X3006060D1*
D13*
X2018701D1*
X1943701Y756201D1*
X1543701Y1156201D2*
Y1181201D1*
X1499950Y1224950D1*
X1399951D1*
X1349950Y1274951D1*
Y1931201D1*
X1437451Y2018701D1*
X1887451D1*
X1918701Y1987451D1*
Y1956201D1*
X1818701Y1156201D2*
X1712450D1*
X1599950Y1268701D1*
X1418701D1*
X1393701Y1293701D1*
Y1899950D1*
X1449950Y1956201D1*
X1618701D1*
X756201Y1893701D2*
D14*
X1168701D1*
X2893701Y1056201D2*
D13*
X3043701D1*
Y1031201D1*
X2743701Y881201D2*
X2818701D1*
X2893701Y956201D1*
Y1056201D1*
X3343701Y1431201D2*
X3618701D1*
X3768701Y1281201D1*
X3818701D1*
X3843701Y1256201D1*
Y906201D1*
X3818701Y881201D1*
X3743701D1*
X3343701Y1531201D2*
X3693701D1*
X3743701Y1481201D1*
Y1406201D1*
X3343701Y1631201D2*
X3743701D1*
X756201Y1606201D2*
Y1406201D1*
X681201Y1906201D2*
Y1681201D1*
X756201Y1606201D1*
X2893701Y2131201D2*
X3043701D1*
Y1931201D1*
X2893701Y2131201D2*
Y2081201D1*
G03X2943701Y2031201I49994J-6D01*
G01*
D3*
X3043701Y2131201D2*
X2943701Y2031201D1*
X3043701Y1931201D2*
X2943701Y2031201D1*
X3343701Y931201D2*
X3368701D1*
G03X3418701Y956201I6J62489D01*
G01*
G02X3518701Y1006201I100038J-75077D01*
G01*
D3*
X3343701Y1031201D2*
X3443701Y1131201D1*
Y1156201D1*
X3518701Y1231201D1*
X3043701Y1131201D2*
Y1143701D1*
X2893701D1*
Y1156201D1*
X2368701Y906201D2*
X2393701D1*
X2493701Y1006201D1*
Y1056201D1*
X2593701Y1156201D1*
X2893701D1*
X408719Y2318832D2*
D16*
X655626D1*
X1395785D2*
X4316207D1*
X408719Y2293963D2*
X655626D1*
X1395785D2*
X4316207D1*
X408719Y2269094D2*
X655626D1*
X1395785D2*
X4316207D1*
X408719Y2244226D2*
X534588D1*
X1395785D2*
X2691551D1*
X3145857D2*
X4047076D1*
X4190337D2*
X4316207D1*
X408719Y2219357D2*
X511299D1*
X1395785D2*
X2665678D1*
X3171730D2*
X4023787D1*
X4213591D2*
X4316207D1*
X408719Y2194488D2*
X498525D1*
X1395785D2*
X2545825D1*
X3301990D2*
X4011012D1*
X4226366D2*
X4316207D1*
X408719Y2169619D2*
X492568D1*
X3321294D2*
X4005092D1*
X4232323D2*
X4316207D1*
X408719Y2144751D2*
X492353D1*
X3329476D2*
X4004877D1*
X4232538D2*
X4316207D1*
X408719Y2119882D2*
X497843D1*
X2748583D2*
X2814167D1*
X3329799D2*
X4010331D1*
X4227083D2*
X4316207D1*
X408719Y2095013D2*
X509972D1*
X2723715D2*
X2822241D1*
X3322407D2*
X4022495D1*
X4214919D2*
X4316207D1*
X408719Y2070144D2*
X532148D1*
X2685534D2*
X2816320D1*
X3304429D2*
X4044636D1*
X4192778D2*
X4316207D1*
X408719Y2045276D2*
X588773D1*
X623629D2*
X680601D1*
X2083900D2*
X2379071D1*
X2670822D2*
X2815567D1*
X3108896D2*
X3128476D1*
X3258928D2*
X4101261D1*
X4136117D2*
X4316207D1*
X408719Y2020407D2*
X680601D1*
X2172857D2*
X2247125D1*
X2340257D2*
X2354203D1*
X2695690D2*
X2815567D1*
X3108896D2*
X3128476D1*
X3258928D2*
X4316207D1*
X408719Y1995538D2*
X680601D1*
X2720558D2*
X2815890D1*
X3258928D2*
X3286618D1*
X3400778D2*
X3689706D1*
X3797693D2*
X3858791D1*
X4028608D2*
X4316207D1*
X408719Y1970669D2*
X527375D1*
X2745425D2*
X2825184D1*
X3258928D2*
X3266640D1*
X3420765D2*
X3668857D1*
X3818542D2*
X3858791D1*
X4028608D2*
X4316207D1*
X408719Y1945801D2*
X506455D1*
X2770293D2*
X2848938D1*
X3429306D2*
X3660101D1*
X3827298D2*
X3858791D1*
X4028608D2*
X4316207D1*
X408719Y1920932D2*
X497627D1*
X2437108D2*
X2467669D1*
X3429951D2*
X3659455D1*
X3827944D2*
X3858791D1*
X4028608D2*
X4316207D1*
X408719Y1896063D2*
X496946D1*
X2445038D2*
X2455290D1*
X3422919D2*
X3666668D1*
X3820731D2*
X3858791D1*
X4028608D2*
X4316207D1*
X408719Y1871194D2*
X504122D1*
X1458906D2*
X1654282D1*
X2147630D2*
X2253476D1*
X3258928D2*
X3266890D1*
X3420479D2*
X3684718D1*
X3802681D2*
X3858791D1*
X4028608D2*
X4316207D1*
X408719Y1846325D2*
X522101D1*
X1458906D2*
X1664079D1*
X2148455D2*
X2248525D1*
X3429198D2*
X4316207D1*
X408719Y1821457D2*
X615974D1*
X1458906D2*
X1687260D1*
X3429988D2*
X4316207D1*
X408719Y1796588D2*
X615974D1*
X1458906D2*
X1712127D1*
X3423134D2*
X4316207D1*
X408719Y1771719D2*
X615974D1*
X1458906D2*
X1736996D1*
X3258928D2*
X3267201D1*
X3420192D2*
X4316207D1*
X408719Y1746850D2*
X615974D1*
X1458906D2*
X1743168D1*
X3429091D2*
X4316207D1*
X408719Y1721982D2*
X615974D1*
X1458906D2*
X1718301D1*
X3430059D2*
X4316207D1*
X408719Y1697113D2*
X615974D1*
X1458906D2*
X1693432D1*
X2148528D2*
X2288858D1*
X3423385D2*
X3691751D1*
X3795648D2*
X3891769D1*
X3995630D2*
X4316207D1*
X408719Y1672244D2*
X501217D1*
X1458906D2*
X1668564D1*
X3258928D2*
X3267512D1*
X3817644D2*
X3869736D1*
X4017663D2*
X4316207D1*
X408719Y1647375D2*
X480080D1*
X1458906D2*
X1643697D1*
X3827010D2*
X3860407D1*
X4026993D2*
X4316207D1*
X408719Y1622507D2*
X470930D1*
X1458906D2*
X1618829D1*
X2658908D2*
X2713835D1*
X3828123D2*
X3859259D1*
X4028142D2*
X4316207D1*
X408719Y1597638D2*
X469782D1*
X642648D2*
X669333D1*
X1458906D2*
X1593962D1*
X2658908D2*
X2720940D1*
X3821449D2*
X3865933D1*
X4021467D2*
X4316207D1*
X408719Y1572769D2*
X476240D1*
X636152D2*
X669333D1*
X1458906D2*
X1569238D1*
X2658908D2*
X2739743D1*
X3258928D2*
X3267760D1*
X3804295D2*
X3883121D1*
X4004314D2*
X4316207D1*
X408719Y1547900D2*
X492711D1*
X619682D2*
X669333D1*
X1458906D2*
X1555744D1*
X1876597D2*
X1894205D1*
X2658908D2*
X2725425D1*
X3768197D2*
X4316207D1*
X408719Y1523031D2*
X539541D1*
X572853D2*
X669333D1*
X1214211D2*
X1241004D1*
X1458906D2*
X1553484D1*
X1851730D2*
X1869480D1*
X2658908D2*
X2715163D1*
X3792920D2*
X4316207D1*
X408719Y1498163D2*
X690971D1*
X1212238D2*
X1241004D1*
X1458906D2*
X1553484D1*
X1826862D2*
X1855808D1*
X2148671D2*
X2288751D1*
X2667915D2*
X2713764D1*
X3806592D2*
X4316207D1*
X408719Y1473294D2*
X519768D1*
X642612D2*
X690971D1*
X821423D2*
X982100D1*
X1164475D2*
X1241004D1*
X1458906D2*
X1553484D1*
X1801993D2*
X1853476D1*
X2141781D2*
X2295640D1*
X2692783D2*
X2720617D1*
X3258928D2*
X3268071D1*
X3808925D2*
X3858791D1*
X4028608D2*
X4316207D1*
X408719Y1448425D2*
X493286D1*
X837391D2*
X957232D1*
X1139608D2*
X1241004D1*
X1458906D2*
X1553484D1*
X1783908D2*
X1853476D1*
X2123408D2*
X2303499D1*
X2717651D2*
X2738990D1*
X2848413D2*
X2958601D1*
X3816963D2*
X3858791D1*
X4028608D2*
X4316207D1*
X408719Y1423556D2*
X468417D1*
X1114740D2*
X1241004D1*
X1458906D2*
X1553484D1*
X2168659D2*
X2303499D1*
X2433915D2*
X2560143D1*
X2742518D2*
X2957165D1*
X3826760D2*
X3858791D1*
X4028608D2*
X4316207D1*
X408719Y1398688D2*
X454530D1*
X1089873D2*
X1241004D1*
X1458906D2*
X1545589D1*
X2191804D2*
X2303499D1*
X2433915D2*
X2585010D1*
X2767386D2*
X2963337D1*
X3828266D2*
X3858791D1*
X4028608D2*
X4316207D1*
X408719Y1373819D2*
X453096D1*
X1065005D2*
X1241004D1*
X1458906D2*
X1535722D1*
X2201707D2*
X2303499D1*
X2433915D2*
X2609878D1*
X2792255D2*
X2968398D1*
X3258928D2*
X3268382D1*
X3821987D2*
X3858791D1*
X4028608D2*
X4316207D1*
X408719Y1348950D2*
X453096D1*
X1040136D2*
X1241004D1*
X1458906D2*
X1534106D1*
X2203287D2*
X2303499D1*
X2433915D2*
X2634747D1*
X2817157D2*
X2958709D1*
X3428696D2*
X3458324D1*
X3579087D2*
X3609756D1*
X3805444D2*
X3858791D1*
X4028608D2*
X4316207D1*
X408719Y1324081D2*
X453131D1*
X1034324D2*
X1241004D1*
X2197079D2*
X2295390D1*
X2433915D2*
X2659614D1*
X3605963D2*
X3634623D1*
X4028608D2*
X4316207D1*
X408719Y1299213D2*
X460416D1*
X1034324D2*
X1241004D1*
X2209136D2*
X2270522D1*
X2433520D2*
X2684517D1*
X3630832D2*
X3659491D1*
X3891853D2*
X4316207D1*
X408719Y1274344D2*
X482915D1*
X1034287D2*
X1241004D1*
X1685514D2*
X1706781D1*
X1730621D2*
X1753861D1*
X1936021D2*
X2006773D1*
X2236013D2*
X2245654D1*
X2425231D2*
X2709386D1*
X3645185D2*
X3684358D1*
X3906243D2*
X4316207D1*
X408719Y1249475D2*
X507783D1*
X654633D2*
X686450D1*
X1027147D2*
X1241004D1*
X1710382D2*
X1762114D1*
X1946895D2*
X2028483D1*
X2403161D2*
X2734253D1*
X3646801D2*
X3709227D1*
X3908898D2*
X4316207D1*
X408719Y1224606D2*
X690971D1*
X1004755D2*
X1216136D1*
X1735249D2*
X1766134D1*
X1948797D2*
X2028483D1*
X2378294D2*
X2764181D1*
X3646801D2*
X3739190D1*
X3908898D2*
X4316207D1*
X408719Y1199738D2*
X690971D1*
X821423D2*
X832499D1*
X979887D2*
X1186101D1*
X1942445D2*
X2011079D1*
X2353427D2*
X2546041D1*
X3646801D2*
X3778483D1*
X3908898D2*
X4316207D1*
X408719Y1174869D2*
X504697D1*
X607732D2*
X669333D1*
X843060D2*
X1174690D1*
X1924969D2*
X1999703D1*
X2420207D2*
X2521173D1*
X3639874D2*
X3695663D1*
X3991755D2*
X4316207D1*
X408719Y1150000D2*
X481588D1*
X630806D2*
X669333D1*
X843060D2*
X1173972D1*
X1371097D2*
X1448953D1*
X1913450D2*
X1998950D1*
X2443316D2*
X2496304D1*
X3183930D2*
X3208714D1*
X3617663D2*
X3671404D1*
X4015976D2*
X4316207D1*
X408719Y1125131D2*
X471469D1*
X640925D2*
X669333D1*
X843060D2*
X1079992D1*
X1157442D2*
X1178423D1*
X1432423D2*
X1453403D1*
X1982420D2*
X2003400D1*
X2453400D2*
X2471437D1*
X3183930D2*
X3233581D1*
X3592794D2*
X3660999D1*
X4026383D2*
X4316207D1*
X408719Y1100262D2*
X469530D1*
X642864D2*
X669333D1*
X843060D2*
X1052003D1*
X3183930D2*
X3262719D1*
X3604780D2*
X3659025D1*
X4028392D2*
X4316207D1*
X408719Y1075394D2*
X475164D1*
X637230D2*
X669333D1*
X843060D2*
X1040735D1*
X2604077D2*
X2808820D1*
X3183930D2*
X3269323D1*
X3629647D2*
X3664766D1*
X4022615D2*
X4316207D1*
X408719Y1050525D2*
X490307D1*
X622087D2*
X669333D1*
X843060D2*
X1038546D1*
X2283919D2*
X2302818D1*
X2579210D2*
X2809000D1*
X3183930D2*
X3259096D1*
X3644862D2*
X3680448D1*
X4006934D2*
X4316207D1*
X408719Y1025656D2*
X528596D1*
X583798D2*
X669333D1*
X843060D2*
X1044575D1*
X2283919D2*
X2341106D1*
X2396308D2*
X2421953D1*
X2558899D2*
X2814669D1*
X3183930D2*
X3257014D1*
X3646801D2*
X3723831D1*
X3763567D2*
X3778483D1*
X3908898D2*
X3923814D1*
X3963585D2*
X4316207D1*
X408719Y1000787D2*
X569324D1*
X821423D2*
X1061476D1*
X2283919D2*
X2397085D1*
X2558684D2*
X2828486D1*
X3183930D2*
X3262504D1*
X3646801D2*
X3778483D1*
X3908898D2*
X4316207D1*
X408719Y975919D2*
X569324D1*
X821423D2*
X1176699D1*
X1360726D2*
X1451681D1*
X1635707D2*
X1726697D1*
X1910723D2*
X2001677D1*
X2551113D2*
X2822241D1*
X2958900D2*
X2969654D1*
X3183930D2*
X3269646D1*
X3646801D2*
X3778483D1*
X3908898D2*
X4316207D1*
X408719Y951050D2*
X569324D1*
X836602D2*
X1174152D1*
X1363274D2*
X1449133D1*
X1638255D2*
X1724150D1*
X1913270D2*
X1999130D1*
X2593528D2*
X2656850D1*
X3183715D2*
X3259203D1*
X3640520D2*
X3697492D1*
X4028608D2*
X4316207D1*
X408719Y926181D2*
X569324D1*
X842738D2*
X1180467D1*
X1356923D2*
X1455449D1*
X1631938D2*
X1730465D1*
X1906955D2*
X2005445D1*
X2617570D2*
X2656850D1*
X3176251D2*
X3256978D1*
X3618846D2*
X3672157D1*
X4028608D2*
X4316207D1*
X408719Y901312D2*
X569324D1*
X841266D2*
X1199056D1*
X1338335D2*
X1474072D1*
X1613350D2*
X1749052D1*
X1888332D2*
X2024070D1*
X2628119D2*
X2656850D1*
X2930013D2*
X2962297D1*
X3155008D2*
X3262289D1*
X3593979D2*
X3661285D1*
X4028608D2*
X4316207D1*
X408719Y876444D2*
X569324D1*
X831722D2*
X2103480D1*
X2630416D2*
X2656850D1*
X2905146D2*
X2969976D1*
X3574566D2*
X3658953D1*
X4028608D2*
X4316207D1*
X408719Y851575D2*
X569324D1*
X809797D2*
X2103480D1*
X2625177D2*
X2656850D1*
X2880278D2*
X2947871D1*
X3603488D2*
X3664299D1*
X4028608D2*
X4316207D1*
X408719Y826706D2*
X1083150D1*
X1154248D2*
X1358130D1*
X1429265D2*
X1633147D1*
X1704245D2*
X1908127D1*
X1979262D2*
X2103660D1*
X3628356D2*
X3679407D1*
X4028608D2*
X4316207D1*
X408719Y801837D2*
X1053115D1*
X1184283D2*
X1328096D1*
X1459301D2*
X1603112D1*
X1734281D2*
X1878092D1*
X2009297D2*
X2110802D1*
X3644504D2*
X3719059D1*
X3768340D2*
X3858791D1*
X4028608D2*
X4316207D1*
X408719Y776969D2*
X1041165D1*
X1196234D2*
X1316146D1*
X1471249D2*
X1591163D1*
X1746266D2*
X1866143D1*
X2021247D2*
X2131757D1*
X3646801D2*
X4316207D1*
X408719Y752100D2*
X1038438D1*
X1213996D2*
X1313454D1*
X1488976D2*
X1588436D1*
X1763992D2*
X1863451D1*
X2038974D2*
X2156626D1*
X3183930D2*
X3259454D1*
X3646801D2*
X4316207D1*
X408719Y727231D2*
X576357D1*
X636045D2*
X1043929D1*
X1238864D2*
X1318909D1*
X1513844D2*
X1593925D1*
X1788861D2*
X1868906D1*
X3183930D2*
X3256942D1*
X3646801D2*
X4088845D1*
X4148568D2*
X4316207D1*
X408719Y702362D2*
X529349D1*
X683054D2*
X1059933D1*
X1263731D2*
X1334949D1*
X1538711D2*
X1609929D1*
X1813728D2*
X1884946D1*
X3183786D2*
X3261930D1*
X3641202D2*
X4041837D1*
X4195541D2*
X4316207D1*
X408719Y677493D2*
X508465D1*
X703938D2*
X1106223D1*
X1288598D2*
X1381203D1*
X1563580D2*
X1656220D1*
X3176969D2*
X3270686D1*
X3620138D2*
X4020953D1*
X4216425D2*
X4316207D1*
X408719Y652625D2*
X497054D1*
X715349D2*
X1131091D1*
X1313467D2*
X1406072D1*
X1588483D2*
X1681088D1*
X3156299D2*
X3259597D1*
X3595270D2*
X3700112D1*
X3787286D2*
X3900130D1*
X3987269D2*
X4009541D1*
X4227873D2*
X4316207D1*
X408719Y627756D2*
X492138D1*
X720265D2*
X1155959D1*
X1338335D2*
X1430940D1*
X3483921D2*
X3673198D1*
X3814199D2*
X3873217D1*
X4232753D2*
X4316207D1*
X408719Y602887D2*
X492891D1*
X719512D2*
X1180827D1*
X1363202D2*
X1455843D1*
X3483921D2*
X3661715D1*
X3825682D2*
X3861698D1*
X4232000D2*
X4316207D1*
X408719Y578018D2*
X499421D1*
X712980D2*
X1205694D1*
X3483921D2*
X3658881D1*
X3828554D2*
X3858864D1*
X4225469D2*
X4316207D1*
X408719Y553150D2*
X512986D1*
X699416D2*
X1230562D1*
X3483850D2*
X3663726D1*
X3823673D2*
X3863707D1*
X4211904D2*
X4316207D1*
X408719Y528281D2*
X537747D1*
X674656D2*
X1255430D1*
X3477354D2*
X3678043D1*
X3809356D2*
X3878026D1*
X4009374D2*
X4050234D1*
X4187180D2*
X4316207D1*
X408719Y503412D2*
X1280298D1*
X3457117D2*
X3714035D1*
X3773364D2*
X3914017D1*
X3973382D2*
X4316207D1*
X408719Y478543D2*
X1307139D1*
X3430274D2*
X4316207D1*
X408719Y453675D2*
X4316207D1*
X408719Y428806D2*
X4316207D1*
X2453047Y1104364D2*
X2475339Y1126529D1*
X2552972Y1203888D1*
X2560933Y1209672D1*
X2569702Y1214140D1*
X2579060Y1217181D1*
X2588781Y1218720D1*
X2612073Y1218913D1*
X2786434D1*
X2779060Y1220220D1*
X2769702Y1223261D1*
X2760933Y1227730D1*
X2752972Y1233513D1*
X2736365Y1249848D1*
X2546013Y1440472D1*
X2542954Y1444356D1*
X2539471Y1443202D1*
X2534387Y1439806D1*
X2529052Y1436818D1*
X2523500Y1434259D1*
X2517764Y1432142D1*
X2511879Y1430482D1*
X2505882Y1429290D1*
X2499811Y1428571D1*
X2493701Y1428331D1*
X2487591Y1428571D1*
X2481520Y1429290D1*
X2475522Y1430482D1*
X2469638Y1432142D1*
X2463902Y1434259D1*
X2458349Y1436818D1*
X2453014Y1439806D1*
X2447930Y1443202D1*
X2443129Y1446988D1*
X2438638Y1451138D1*
X2431427Y1459510D1*
X2431220Y1301281D1*
X2429681Y1291560D1*
X2426639Y1282202D1*
X2422172Y1273433D1*
X2416388Y1265472D1*
X2400054Y1248865D1*
X2334513Y1183324D1*
X2342694Y1186458D1*
X2351570Y1188810D1*
X2360648Y1190181D1*
X2369823Y1190559D1*
X2378983Y1189938D1*
X2388022Y1188324D1*
X2396832Y1185739D1*
X2405310Y1182210D1*
X2413353Y1177782D1*
X2420867Y1172505D1*
X2427764Y1166444D1*
X2433961Y1159669D1*
X2439385Y1152260D1*
X2443971Y1144306D1*
X2447667Y1135902D1*
X2450427Y1127144D1*
X2452218Y1118139D1*
X2453021Y1108992D1*
X2453047Y1104364D1*
X2430992Y1049303D2*
X2424424Y1042856D1*
X2417210Y1037176D1*
X2409423Y1032312D1*
X2401151Y1028325D1*
X2392496Y1025260D1*
X2383559Y1023154D1*
X2374446Y1022030D1*
X2365266Y1021904D1*
X2356126Y1022777D1*
X2347134Y1024638D1*
X2338399Y1027465D1*
X2330021Y1031224D1*
X2322102Y1035871D1*
X2314736Y1041352D1*
X2308008Y1047600D1*
X2301999Y1054543D1*
X2296781Y1062097D1*
X2292413Y1070175D1*
X2288950Y1078677D1*
X2286432Y1087508D1*
X2284887Y1096559D1*
X2284336Y1105723D1*
X2284783Y1114895D1*
X2286226Y1123962D1*
X2288644Y1132820D1*
X2291576Y1140386D1*
X2281430Y1130241D1*
X2281413Y882154D1*
X2284335Y879257D1*
Y990567D1*
X2389367D1*
X2430984Y1032173D1*
X2430988Y1049298D1*
X2628047Y879364D2*
X2627348Y870209D1*
X2625657Y861184D1*
X2622997Y852396D1*
X2619381Y843917D1*
X2659324Y843913D1*
X2659335Y965567D1*
X2814390D1*
X2830966Y982155D1*
X2830988Y1002743D1*
X2827039Y1007769D1*
X2823445Y1013148D1*
X2820283Y1018793D1*
X2817575Y1024668D1*
X2815336Y1030739D1*
X2813580Y1036966D1*
X2812318Y1043311D1*
X2811558Y1049736D1*
X2811303Y1056201D1*
X2811558Y1062665D1*
X2813260Y1073825D1*
X2811303Y1073803D1*
Y1093504D1*
X2619654Y1093488D1*
X2556417Y1030228D1*
X2556220Y1001281D1*
X2554681Y991560D1*
X2551640Y982202D1*
X2547172Y973433D1*
X2544424Y969324D1*
X2542986Y965564D1*
X2552157Y965142D1*
X2561230Y963726D1*
X2570093Y961332D1*
X2578646Y957990D1*
X2586783Y953738D1*
X2594411Y948626D1*
X2601437Y942717D1*
X2607781Y936077D1*
X2613365Y928789D1*
X2618123Y920937D1*
X2622001Y912613D1*
X2624950Y903919D1*
X2626938Y894954D1*
X2627940Y885827D1*
X2628047Y879364D1*
X640547Y1104364D2*
X639848Y1095209D1*
X638157Y1086184D1*
X635497Y1077396D1*
X631898Y1068949D1*
X627400Y1060944D1*
X622060Y1053474D1*
X615941Y1046630D1*
X609113Y1040490D1*
X601659Y1035129D1*
X593667Y1030610D1*
X585230Y1026986D1*
X576450Y1024301D1*
X567429Y1022585D1*
X558277Y1021860D1*
X549098Y1022134D1*
X540005Y1023404D1*
X531104Y1025654D1*
X522499Y1028858D1*
X514294Y1032979D1*
X506584Y1037967D1*
X499463Y1043762D1*
X493014Y1050298D1*
X487314Y1057496D1*
X482428Y1065270D1*
X478417Y1073530D1*
X475328Y1082176D1*
X473196Y1091108D1*
X472047Y1100217D1*
X471895Y1109398D1*
X472741Y1118541D1*
X474577Y1127537D1*
X477379Y1136281D1*
X481114Y1144668D1*
X485740Y1152600D1*
X491199Y1159983D1*
X497429Y1166727D1*
X504354Y1172756D1*
X511894Y1177996D1*
X519958Y1182386D1*
X528453Y1185873D1*
X537274Y1188417D1*
X546322Y1189987D1*
X555486Y1190564D1*
X564657Y1190142D1*
X573730Y1188726D1*
X582593Y1186332D1*
X591146Y1182990D1*
X599283Y1178738D1*
X606911Y1173626D1*
X613937Y1167717D1*
X620281Y1161077D1*
X625865Y1153789D1*
X630623Y1145937D1*
X634501Y1137613D1*
X637450Y1128919D1*
X639438Y1119954D1*
X640440Y1110827D1*
X640547Y1104364D1*
X3128067Y2083118D2*
Y2046835D1*
X3106429D1*
X3106413Y2015546D1*
X3128067Y2015567D1*
Y1933643D1*
X3131000Y1931591D1*
X3130988Y2080210D1*
X3128067Y2083144D1*
X2818084Y2001104D2*
X2818247Y2065482D1*
X2819545Y2073676D1*
X2822109Y2081566D1*
X2825883Y2088971D1*
X2824318Y2095849D1*
X2821759Y2101402D1*
X2819642Y2107138D1*
X2817982Y2113022D1*
X2816790Y2119020D1*
X2816071Y2125091D1*
X2815839Y2130986D1*
X2757155Y2130988D1*
X2709429Y2083513D1*
X2701469Y2077730D1*
X2692699Y2073262D1*
X2683341Y2070220D1*
X2673621Y2068681D1*
X2650328Y2068488D1*
X2639886D1*
X2636631Y2066304D1*
X2642699Y2064140D1*
X2651469Y2059672D1*
X2659429Y2053888D1*
X2676037Y2037554D1*
X2769692Y1943899D1*
X2853327Y1943913D1*
X2830751Y1966732D1*
X2825875Y1973444D1*
X2822109Y1980836D1*
X2819545Y1988726D1*
X2818247Y1996920D1*
X2818084Y2001084D1*
Y2051438D2*
Y2051470D1*
Y2025192D2*
Y2025223D1*
X455584Y1326089D2*
X455711Y1390005D1*
X456730Y1397277D1*
X458744Y1404339D1*
X461718Y1411052D1*
X465594Y1417290D1*
X470302Y1422934D1*
X516643Y1469075D1*
X522535Y1473458D1*
X528978Y1476982D1*
X535846Y1479579D1*
X543008Y1481199D1*
X550325Y1481812D1*
X615005Y1481690D1*
X622277Y1480673D1*
X629339Y1478657D1*
X636052Y1475684D1*
X642290Y1471807D1*
X647934Y1467100D1*
X673276Y1441776D1*
X677818Y1448848D1*
X685211Y1457505D1*
X693501Y1464610D1*
X693478Y1521835D1*
X671835D1*
Y1601892D1*
X633501Y1640487D1*
X633059Y1640993D1*
X636385Y1632434D1*
X638761Y1623566D1*
X640159Y1614491D1*
X640567Y1606201D1*
X640067Y1597033D1*
X638575Y1587972D1*
X636105Y1579129D1*
X632690Y1570606D1*
X628369Y1562505D1*
X623193Y1554921D1*
X617224Y1547945D1*
X610531Y1541657D1*
X603196Y1536136D1*
X595303Y1531444D1*
X586948Y1527636D1*
X578228Y1524761D1*
X569248Y1522849D1*
X560113Y1521925D1*
X550930Y1522000D1*
X541812Y1523071D1*
X532864Y1525127D1*
X524192Y1528143D1*
X515898Y1532084D1*
X508083Y1536903D1*
X500836Y1542542D1*
X494247Y1548936D1*
X488390Y1556008D1*
X483337Y1563673D1*
X479147Y1571844D1*
X475870Y1580421D1*
X473545Y1589303D1*
X472197Y1598386D1*
X471845Y1607560D1*
X472493Y1616720D1*
X474131Y1625755D1*
X476743Y1634556D1*
X480295Y1643024D1*
X484745Y1651055D1*
X490043Y1658554D1*
X496125Y1665433D1*
X502917Y1671612D1*
X510341Y1677014D1*
X518308Y1681579D1*
X526724Y1685249D1*
X535490Y1687986D1*
X544499Y1689752D1*
X553648Y1690529D1*
X562827Y1690306D1*
X571928Y1689088D1*
X580843Y1686888D1*
X589465Y1683732D1*
X597693Y1679659D1*
X605430Y1674714D1*
X612584Y1668958D1*
X619071Y1662459D1*
X623102Y1657592D1*
X620220Y1666560D1*
X618681Y1676281D1*
X618488Y1699573D1*
Y1823769D1*
X598803Y1823803D1*
Y1825705D1*
X589357Y1824207D1*
X580185Y1823810D1*
X571024Y1824434D1*
X561991Y1826073D1*
X553194Y1828709D1*
X544747Y1832306D1*
X536752Y1836820D1*
X529308Y1842196D1*
X522510Y1848366D1*
X516440Y1855256D1*
X511175Y1862777D1*
X506778Y1870837D1*
X503306Y1879337D1*
X500801Y1888171D1*
X499293Y1897227D1*
X498803Y1906396D1*
X499337Y1915562D1*
X500886Y1924612D1*
X503433Y1933433D1*
X506946Y1941916D1*
X511381Y1949957D1*
X516682Y1957453D1*
X522785Y1964312D1*
X529613Y1970450D1*
X537081Y1975791D1*
X545098Y1980268D1*
X553563Y1983825D1*
X562370Y1986417D1*
X571412Y1988014D1*
X580575Y1988596D1*
X589747Y1988154D1*
X598804Y1986696D1*
X598803Y1988598D1*
X683112Y1988735D1*
Y2074892D1*
X671988Y2065651D1*
X664681Y2060769D1*
X657013Y2056475D1*
X649033Y2052795D1*
X640787Y2049753D1*
X632329Y2047367D1*
X623710Y2045654D1*
X614983Y2044621D1*
X606201Y2044276D1*
X597419Y2044621D1*
X588692Y2045654D1*
X580072Y2047367D1*
X571614Y2049753D1*
X563369Y2052795D1*
X555388Y2056475D1*
X547720Y2060769D1*
X540413Y2065651D1*
X533512Y2071092D1*
X527058Y2077058D1*
X521092Y2083512D1*
X515651Y2090413D1*
X510769Y2097720D1*
X506475Y2105388D1*
X502795Y2113369D1*
X499753Y2121614D1*
X497367Y2130072D1*
X495654Y2138692D1*
X494621Y2147419D1*
X494276Y2156201D1*
X494621Y2164983D1*
X495654Y2173710D1*
X497367Y2182329D1*
X499753Y2190787D1*
X502795Y2199033D1*
X506475Y2207013D1*
X510769Y2214681D1*
X515651Y2221988D1*
X521092Y2228890D1*
X527058Y2235344D1*
X533512Y2241310D1*
X540413Y2246751D1*
X547720Y2251633D1*
X555388Y2255927D1*
X563369Y2259606D1*
X571614Y2262648D1*
X580072Y2265034D1*
X588692Y2266748D1*
X597419Y2267781D1*
X606201Y2268126D1*
X614983Y2267781D1*
X623710Y2266748D1*
X632329Y2265034D1*
X640787Y2262648D1*
X649033Y2259606D1*
X658122Y2255306D1*
X658112Y2329290D1*
X1393283D1*
Y2193899D1*
X2547556Y2193913D1*
X2553014Y2197596D1*
X2558349Y2200584D1*
X2563902Y2203143D1*
X2569638Y2205260D1*
X2575522Y2206920D1*
X2581520Y2208112D1*
X2587591Y2208831D1*
X2593701Y2209071D1*
X2599811Y2208831D1*
X2605882Y2208112D1*
X2611879Y2206920D1*
X2617764Y2205260D1*
X2623500Y2203143D1*
X2629052Y2200584D1*
X2634387Y2197596D1*
X2639828Y2193919D1*
X2643844Y2195033D1*
X2690472Y2241388D1*
X2698433Y2247172D1*
X2707202Y2251639D1*
X2716560Y2254681D1*
X2726281Y2256220D1*
X2749573Y2256413D1*
X3111121Y2256220D1*
X3120841Y2254681D1*
X3130199Y2251639D1*
X3138969Y2247172D1*
X3146929Y2241388D1*
X3163537Y2225054D1*
X3191270Y2197320D1*
X3199394Y2202996D1*
X3207458Y2207386D1*
X3215953Y2210873D1*
X3224774Y2213417D1*
X3233822Y2214987D1*
X3242986Y2215564D1*
X3252157Y2215142D1*
X3261230Y2213726D1*
X3270093Y2211332D1*
X3278646Y2207990D1*
X3286783Y2203738D1*
X3294411Y2198626D1*
X3301437Y2192717D1*
X3307781Y2186077D1*
X3313365Y2178789D1*
X3318123Y2170937D1*
X3322001Y2162613D1*
X3324950Y2153919D1*
X3326938Y2144954D1*
X3327940Y2135827D1*
X3327987Y2127528D1*
X3327088Y2118390D1*
X3325202Y2109404D1*
X3322352Y2100676D1*
X3318568Y2092310D1*
X3313899Y2084404D1*
X3308398Y2077052D1*
X3302130Y2070343D1*
X3295171Y2064353D1*
X3287601Y2059156D1*
X3279512Y2054812D1*
X3270999Y2051373D1*
X3262161Y2048879D1*
X3256413Y2047801D1*
Y1282192D1*
X3268723Y1269869D1*
X3271766Y1275282D1*
X3275752Y1281176D1*
X3270837Y1288673D1*
X3266647Y1296844D1*
X3263370Y1305421D1*
X3261045Y1314303D1*
X3259697Y1323386D1*
X3259345Y1332560D1*
X3259993Y1341720D1*
X3261631Y1350755D1*
X3264243Y1359556D1*
X3267795Y1368024D1*
X3272245Y1376055D1*
X3275749Y1381196D1*
X3271766Y1387119D1*
X3268530Y1392899D1*
X3265757Y1398915D1*
X3263463Y1405130D1*
X3261665Y1411505D1*
X3260373Y1418003D1*
X3259594Y1424581D1*
X3259335Y1431201D1*
X3259594Y1437820D1*
X3260373Y1444399D1*
X3261665Y1450896D1*
X3263463Y1457272D1*
X3265757Y1463487D1*
X3268530Y1469503D1*
X3271766Y1475282D1*
X3275752Y1481176D1*
X3271766Y1487119D1*
X3268530Y1492899D1*
X3265757Y1498915D1*
X3263463Y1505130D1*
X3261665Y1511505D1*
X3260373Y1518003D1*
X3259594Y1524581D1*
X3259335Y1531201D1*
X3259594Y1537820D1*
X3260373Y1544399D1*
X3261665Y1550896D1*
X3263463Y1557272D1*
X3265757Y1563487D1*
X3268530Y1569503D1*
X3271766Y1575282D1*
X3275752Y1581176D1*
X3271766Y1587119D1*
X3268530Y1592899D1*
X3265757Y1598915D1*
X3263463Y1605130D1*
X3261665Y1611505D1*
X3260373Y1618003D1*
X3259594Y1624581D1*
X3259335Y1631201D1*
X3259594Y1637820D1*
X3260373Y1644399D1*
X3261665Y1650896D1*
X3263463Y1657272D1*
X3265757Y1663487D1*
X3268530Y1669503D1*
X3271766Y1675282D1*
X3275752Y1681176D1*
X3271766Y1687119D1*
X3268530Y1692899D1*
X3265757Y1698915D1*
X3263463Y1705130D1*
X3261665Y1711505D1*
X3260373Y1718003D1*
X3259594Y1724581D1*
X3259335Y1731201D1*
X3259594Y1737820D1*
X3260373Y1744399D1*
X3261665Y1750896D1*
X3263463Y1757272D1*
X3265757Y1763487D1*
X3268530Y1769503D1*
X3271766Y1775282D1*
X3275752Y1781176D1*
X3271766Y1787119D1*
X3268530Y1792899D1*
X3265757Y1798915D1*
X3263463Y1805130D1*
X3261665Y1811505D1*
X3260373Y1818003D1*
X3259594Y1824581D1*
X3259335Y1831201D1*
X3259594Y1837820D1*
X3260373Y1844399D1*
X3261665Y1850896D1*
X3263463Y1857272D1*
X3265757Y1863487D1*
X3268530Y1869503D1*
X3271766Y1875282D1*
X3275752Y1881176D1*
X3271766Y1887119D1*
X3268530Y1892899D1*
X3265757Y1898915D1*
X3263463Y1905130D1*
X3261665Y1911505D1*
X3260373Y1918003D1*
X3259594Y1924581D1*
X3259335Y1931201D1*
X3259594Y1937820D1*
X3260373Y1944399D1*
X3261665Y1950896D1*
X3263463Y1957272D1*
X3265757Y1963487D1*
X3268530Y1969503D1*
X3271766Y1975282D1*
X3275448Y1980790D1*
X3279549Y1985992D1*
X3284045Y1990857D1*
X3288909Y1995353D1*
X3294112Y1999454D1*
X3299619Y2003135D1*
X3305399Y2006371D1*
X3311415Y2009144D1*
X3317630Y2011438D1*
X3324005Y2013236D1*
X3330503Y2014529D1*
X3337081Y2015307D1*
X3343701Y2015567D1*
X3350320Y2015307D1*
X3356899Y2014529D1*
X3363396Y2013236D1*
X3369772Y2011438D1*
X3375987Y2009144D1*
X3382003Y2006371D1*
X3387782Y2003135D1*
X3393290Y1999454D1*
X3398492Y1995353D1*
X3403357Y1990857D1*
X3407853Y1985992D1*
X3411954Y1980790D1*
X3415635Y1975282D1*
X3418871Y1969503D1*
X3421644Y1963487D1*
X3423938Y1957272D1*
X3425736Y1950896D1*
X3427029Y1944399D1*
X3427807Y1937820D1*
X3428067Y1931201D1*
X3427807Y1924581D1*
X3427029Y1918003D1*
X3425736Y1911505D1*
X3423938Y1905130D1*
X3421644Y1898915D1*
X3418871Y1892899D1*
X3415635Y1887119D1*
X3411650Y1881226D1*
X3415635Y1875282D1*
X3418871Y1869503D1*
X3421644Y1863487D1*
X3423938Y1857272D1*
X3425736Y1850896D1*
X3427029Y1844399D1*
X3427807Y1837820D1*
X3428067Y1831201D1*
X3427807Y1824581D1*
X3427029Y1818003D1*
X3425736Y1811505D1*
X3423938Y1805130D1*
X3421644Y1798915D1*
X3418871Y1792899D1*
X3415635Y1787119D1*
X3411650Y1781226D1*
X3415635Y1775282D1*
X3418871Y1769503D1*
X3421644Y1763487D1*
X3423938Y1757272D1*
X3425736Y1750896D1*
X3427029Y1744399D1*
X3427807Y1737820D1*
X3428067Y1731201D1*
X3427807Y1724581D1*
X3427029Y1718003D1*
X3425736Y1711505D1*
X3423938Y1705130D1*
X3421644Y1698915D1*
X3419337Y1693909D1*
X3690235Y1693913D1*
X3695269Y1697862D1*
X3700648Y1701457D1*
X3706293Y1704618D1*
X3712168Y1707327D1*
X3718239Y1709566D1*
X3724466Y1711322D1*
X3730811Y1712584D1*
X3737236Y1713344D1*
X3743701Y1713598D1*
X3750165Y1713344D1*
X3756591Y1712584D1*
X3762936Y1711322D1*
X3769163Y1709566D1*
X3775234Y1707327D1*
X3781109Y1704618D1*
X3786753Y1701457D1*
X3792133Y1697862D1*
X3797214Y1693857D1*
X3801965Y1689465D1*
X3806357Y1684714D1*
X3810362Y1679633D1*
X3813957Y1674253D1*
X3817118Y1668609D1*
X3819827Y1662734D1*
X3822066Y1656663D1*
X3823822Y1650436D1*
X3825084Y1644091D1*
X3825844Y1637665D1*
X3826098Y1631201D1*
X3825844Y1624736D1*
X3825084Y1618311D1*
X3823822Y1611966D1*
X3822066Y1605739D1*
X3819827Y1599668D1*
X3817118Y1593793D1*
X3813957Y1588148D1*
X3810362Y1582769D1*
X3806357Y1577688D1*
X3801965Y1572937D1*
X3797214Y1568545D1*
X3792133Y1564539D1*
X3786753Y1560945D1*
X3781109Y1557783D1*
X3775234Y1555075D1*
X3769163Y1552836D1*
X3762564Y1551005D1*
X3791388Y1521929D1*
X3797172Y1513969D1*
X3801640Y1505199D1*
X3804681Y1495841D1*
X3806220Y1486121D1*
X3806413Y1459634D1*
X3810362Y1454633D1*
X3813957Y1449253D1*
X3817118Y1443609D1*
X3819827Y1437734D1*
X3822066Y1431663D1*
X3823822Y1425436D1*
X3825084Y1419091D1*
X3825844Y1412665D1*
X3826098Y1406201D1*
X3825844Y1399736D1*
X3825084Y1393311D1*
X3823822Y1386966D1*
X3822066Y1380739D1*
X3819827Y1374668D1*
X3817118Y1368793D1*
X3813957Y1363148D1*
X3810362Y1357769D1*
X3806357Y1352688D1*
X3801965Y1347937D1*
X3797604Y1343906D1*
X3823621Y1343720D1*
X3833341Y1342181D1*
X3842699Y1339139D1*
X3851469Y1334672D1*
X3861303Y1327478D1*
Y1488598D1*
X4026098D1*
Y1323803D1*
X3864785D1*
X3891388Y1296929D1*
X3897172Y1288969D1*
X3901639Y1280199D1*
X3904681Y1270841D1*
X3906220Y1261121D1*
X3906413Y1237828D1*
Y1179660D1*
X3914339Y1183189D1*
X3923087Y1185978D1*
X3932091Y1187777D1*
X3941239Y1188562D1*
X3950417Y1188324D1*
X3959512Y1187067D1*
X3968411Y1184806D1*
X3977003Y1181570D1*
X3985181Y1177396D1*
X3992845Y1172339D1*
X3999898Y1166461D1*
X4006253Y1159835D1*
X4011832Y1152542D1*
X4016564Y1144675D1*
X4020392Y1136328D1*
X4023269Y1127609D1*
X4025156Y1118623D1*
X4026033Y1109484D1*
X4025915Y1100693D1*
X4024791Y1091580D1*
X4022661Y1082650D1*
X4019550Y1074010D1*
X4015499Y1065772D1*
X4010554Y1058034D1*
X4004781Y1050896D1*
X3998248Y1044444D1*
X3991038Y1038759D1*
X3983241Y1033911D1*
X3974953Y1029959D1*
X3966277Y1026957D1*
X3957320Y1024937D1*
X3948194Y1023925D1*
X3939013Y1023937D1*
X3929890Y1024969D1*
X3920937Y1027010D1*
X3912268Y1030034D1*
X3906408Y1032731D1*
X3906413Y963566D1*
X4026098Y963598D1*
Y798803D1*
X3861303D1*
Y835182D1*
X3855563Y830465D1*
X3847172Y825323D1*
X3838080Y821558D1*
X3828512Y819260D1*
X3818701Y818488D1*
X3797134D1*
X3792133Y814539D1*
X3786753Y810945D1*
X3781109Y807783D1*
X3775234Y805075D1*
X3769163Y802836D1*
X3762936Y801080D1*
X3756591Y799818D1*
X3750165Y799058D1*
X3743701Y798803D1*
X3737236Y799058D1*
X3730811Y799818D1*
X3724466Y801080D1*
X3718239Y802836D1*
X3712168Y805075D1*
X3706293Y807783D1*
X3700648Y810945D1*
X3695269Y814539D1*
X3690188Y818545D1*
X3685437Y822937D1*
X3681045Y827688D1*
X3677039Y832769D1*
X3673445Y838148D1*
X3670283Y843793D1*
X3667575Y849668D1*
X3665336Y855739D1*
X3663580Y861966D1*
X3662318Y868311D1*
X3661558Y874736D1*
X3661303Y881201D1*
X3661558Y887665D1*
X3662318Y894091D1*
X3663580Y900436D1*
X3665336Y906663D1*
X3667575Y912734D1*
X3670283Y918609D1*
X3673445Y924253D1*
X3677039Y929633D1*
X3681045Y934714D1*
X3685437Y939465D1*
X3690188Y943857D1*
X3695269Y947862D1*
X3700648Y951457D1*
X3706293Y954618D1*
X3712168Y957327D1*
X3718239Y959566D1*
X3724466Y961322D1*
X3730811Y962584D1*
X3737236Y963344D1*
X3743701Y963598D1*
X3750165Y963344D1*
X3756591Y962584D1*
X3762936Y961322D1*
X3769163Y959566D1*
X3775234Y957327D1*
X3780993Y954671D1*
X3780988Y1032693D1*
X3775234Y1030075D1*
X3769163Y1027836D1*
X3762936Y1026080D1*
X3756591Y1024818D1*
X3750165Y1024058D1*
X3743701Y1023803D1*
X3737236Y1024058D1*
X3730811Y1024818D1*
X3724466Y1026080D1*
X3718239Y1027836D1*
X3712168Y1030075D1*
X3706293Y1032783D1*
X3700648Y1035945D1*
X3695269Y1039539D1*
X3690188Y1043545D1*
X3685437Y1047937D1*
X3681045Y1052688D1*
X3677039Y1057769D1*
X3673445Y1063148D1*
X3670283Y1068793D1*
X3667575Y1074668D1*
X3665336Y1080739D1*
X3663580Y1086966D1*
X3662318Y1093311D1*
X3661558Y1099736D1*
X3661303Y1106201D1*
X3661558Y1112665D1*
X3662318Y1119091D1*
X3663580Y1125436D1*
X3665336Y1131663D1*
X3667575Y1137734D1*
X3670283Y1143609D1*
X3673445Y1149253D1*
X3677039Y1154633D1*
X3681045Y1159714D1*
X3685437Y1164465D1*
X3690188Y1168857D1*
X3695269Y1172862D1*
X3700648Y1176457D1*
X3706293Y1179618D1*
X3712168Y1182327D1*
X3718239Y1184566D1*
X3724466Y1186322D1*
X3730811Y1187584D1*
X3737236Y1188344D1*
X3743701Y1188598D1*
X3750165Y1188344D1*
X3756591Y1187584D1*
X3762936Y1186322D1*
X3769163Y1184566D1*
X3775234Y1182327D1*
X3780993Y1179671D1*
X3780988Y1218501D1*
X3763781Y1218681D1*
X3754060Y1220220D1*
X3744702Y1223262D1*
X3735933Y1227730D1*
X3727972Y1233513D1*
X3711365Y1249848D1*
X3592741Y1368471D1*
X3419364Y1368488D1*
X3422667Y1360902D1*
X3425427Y1352144D1*
X3427218Y1343139D1*
X3428021Y1333992D1*
X3427887Y1325693D1*
X3426861Y1317009D1*
X3454232Y1344150D1*
X3460944Y1349026D1*
X3468336Y1352793D1*
X3476226Y1355357D1*
X3484420Y1356655D1*
X3516127Y1356818D1*
X3552982Y1356655D1*
X3561176Y1355357D1*
X3569066Y1352793D1*
X3576458Y1349026D1*
X3583169Y1344150D1*
X3605705Y1321845D1*
X3631650Y1295669D1*
X3636526Y1288958D1*
X3640293Y1281566D1*
X3642857Y1273676D1*
X3644155Y1265482D1*
X3644318Y1233774D1*
X3644155Y1196920D1*
X3642857Y1188726D1*
X3640293Y1180836D1*
X3636526Y1173444D1*
X3631651Y1166732D1*
X3609345Y1144196D1*
X3586206Y1121058D1*
X3586230Y1116320D1*
X3631651Y1070669D1*
X3636526Y1063958D1*
X3640293Y1056566D1*
X3642857Y1048676D1*
X3644155Y1040482D1*
X3644318Y1008774D1*
X3644155Y971920D1*
X3642857Y963726D1*
X3640293Y955836D1*
X3636526Y948444D1*
X3631651Y941732D1*
X3615841Y925692D1*
X3583169Y893251D1*
X3576458Y888375D1*
X3569066Y884609D1*
X3561176Y882045D1*
X3557104Y881167D1*
X3565171Y879230D1*
X3572836Y876055D1*
X3579909Y871720D1*
X3586230Y866320D1*
X3631651Y820669D1*
X3636526Y813958D1*
X3640293Y806566D1*
X3642857Y798676D1*
X3644155Y790482D1*
X3644318Y758774D1*
X3644155Y721920D1*
X3642857Y713726D1*
X3640293Y705836D1*
X3636526Y698444D1*
X3631651Y691732D1*
X3615841Y675692D1*
X3583169Y643251D1*
X3576458Y638375D1*
X3569066Y634609D1*
X3561176Y632045D1*
X3552982Y630747D1*
X3521274Y630584D1*
X3484404Y630749D1*
X3481413Y628642D1*
X3481220Y551281D1*
X3479681Y541560D1*
X3476639Y532202D1*
X3472172Y523433D1*
X3466388Y515472D1*
X3450054Y498865D1*
X3434429Y483513D1*
X3426469Y477730D1*
X3417699Y473262D1*
X3408341Y470220D1*
X3398621Y468681D1*
X3375328Y468488D1*
X1338781Y468681D1*
X1329060Y470220D1*
X1319702Y473261D1*
X1310933Y477730D1*
X1302972Y483513D1*
X1286365Y499848D1*
X1106996Y679217D1*
X1100522Y680482D1*
X1094638Y682142D1*
X1088902Y684259D1*
X1083349Y686818D1*
X1078014Y689806D1*
X1072930Y693202D1*
X1068129Y696988D1*
X1063638Y701138D1*
X1059488Y705629D1*
X1055702Y710430D1*
X1052306Y715514D1*
X1049318Y720849D1*
X1046759Y726402D1*
X1044642Y732138D1*
X1042982Y738022D1*
X1041790Y744020D1*
X1041071Y750091D1*
X1040831Y756201D1*
X1041071Y762311D1*
X1041790Y768382D1*
X1042982Y774379D1*
X1044642Y780264D1*
X1046759Y786000D1*
X1049318Y791552D1*
X1052306Y796887D1*
X1055702Y801971D1*
X1059488Y806773D1*
X1063638Y811264D1*
X1068129Y815413D1*
X1072930Y819199D1*
X1078014Y822596D1*
X1083349Y825584D1*
X1088902Y828143D1*
X1094638Y830260D1*
X1100522Y831920D1*
X1106520Y833112D1*
X1112591Y833831D1*
X1118701Y834071D1*
X1124811Y833831D1*
X1130882Y833112D1*
X1136879Y831920D1*
X1142764Y830260D1*
X1148500Y828143D1*
X1154052Y825584D1*
X1159387Y822596D1*
X1164471Y819199D1*
X1169273Y815413D1*
X1173764Y811264D1*
X1177913Y806773D1*
X1181699Y801971D1*
X1185096Y796887D1*
X1188084Y791552D1*
X1190643Y786000D1*
X1192760Y780264D1*
X1194420Y774379D1*
X1195665Y767932D1*
X1369665Y593925D1*
X1467322Y593913D1*
X1381983Y679230D1*
X1375522Y680482D1*
X1369638Y682142D1*
X1363902Y684259D1*
X1358349Y686818D1*
X1353014Y689806D1*
X1347930Y693202D1*
X1343129Y696988D1*
X1338638Y701138D1*
X1334488Y705629D1*
X1330702Y710430D1*
X1327306Y715514D1*
X1324318Y720849D1*
X1321759Y726402D1*
X1319642Y732138D1*
X1317982Y738022D1*
X1316790Y744020D1*
X1316071Y750091D1*
X1315831Y756201D1*
X1316071Y762311D1*
X1316790Y768382D1*
X1317982Y774379D1*
X1319642Y780264D1*
X1321759Y786000D1*
X1324318Y791552D1*
X1327306Y796887D1*
X1330702Y801971D1*
X1334488Y806773D1*
X1338638Y811264D1*
X1343129Y815413D1*
X1347930Y819199D1*
X1353014Y822596D1*
X1358349Y825584D1*
X1363902Y828143D1*
X1369638Y830260D1*
X1375522Y831920D1*
X1381520Y833112D1*
X1387591Y833831D1*
X1393701Y834071D1*
X1399811Y833831D1*
X1405882Y833112D1*
X1411879Y831920D1*
X1417764Y830260D1*
X1423500Y828143D1*
X1429052Y825584D1*
X1434387Y822596D1*
X1439471Y819199D1*
X1444273Y815413D1*
X1448764Y811264D1*
X1452913Y806773D1*
X1456699Y801971D1*
X1460096Y796887D1*
X1463084Y791552D1*
X1465643Y786000D1*
X1467760Y780264D1*
X1469420Y774379D1*
X1470665Y767932D1*
X1594678Y643912D1*
X1692322Y643913D1*
X1657021Y679192D1*
X1650522Y680482D1*
X1644638Y682142D1*
X1638902Y684259D1*
X1633349Y686818D1*
X1628014Y689806D1*
X1622930Y693202D1*
X1618129Y696988D1*
X1613638Y701138D1*
X1609488Y705629D1*
X1605702Y710430D1*
X1602306Y715514D1*
X1599318Y720849D1*
X1596759Y726402D1*
X1594642Y732138D1*
X1592982Y738022D1*
X1591790Y744020D1*
X1591071Y750091D1*
X1590831Y756201D1*
X1591071Y762311D1*
X1591790Y768382D1*
X1592982Y774379D1*
X1594642Y780264D1*
X1596759Y786000D1*
X1599318Y791552D1*
X1602306Y796887D1*
X1605702Y801971D1*
X1609488Y806773D1*
X1613638Y811264D1*
X1618129Y815413D1*
X1622930Y819199D1*
X1628014Y822596D1*
X1633349Y825584D1*
X1638902Y828143D1*
X1644638Y830260D1*
X1650522Y831920D1*
X1656520Y833112D1*
X1662591Y833831D1*
X1668701Y834071D1*
X1674811Y833831D1*
X1680882Y833112D1*
X1686879Y831920D1*
X1692764Y830260D1*
X1698500Y828143D1*
X1704052Y825584D1*
X1709387Y822596D1*
X1714471Y819199D1*
X1719273Y815413D1*
X1723764Y811264D1*
X1727913Y806773D1*
X1731699Y801971D1*
X1735096Y796887D1*
X1738084Y791552D1*
X1740643Y786000D1*
X1742760Y780264D1*
X1744420Y774379D1*
X1745665Y767932D1*
X1819692Y693899D1*
X1896940Y693913D1*
X1888638Y701138D1*
X1884488Y705629D1*
X1880702Y710430D1*
X1877306Y715514D1*
X1874318Y720849D1*
X1871759Y726402D1*
X1869642Y732138D1*
X1867982Y738022D1*
X1866790Y744020D1*
X1866071Y750091D1*
X1865831Y756201D1*
X1866071Y762311D1*
X1866790Y768382D1*
X1867982Y774379D1*
X1869642Y780264D1*
X1871759Y786000D1*
X1874318Y791552D1*
X1877306Y796887D1*
X1880702Y801971D1*
X1884488Y806773D1*
X1888638Y811264D1*
X1893129Y815413D1*
X1897930Y819199D1*
X1903014Y822596D1*
X1908349Y825584D1*
X1913902Y828143D1*
X1919638Y830260D1*
X1925522Y831920D1*
X1931520Y833112D1*
X1937591Y833831D1*
X1943701Y834071D1*
X1949811Y833831D1*
X1955882Y833112D1*
X1961879Y831920D1*
X1967764Y830260D1*
X1973500Y828143D1*
X1979052Y825584D1*
X1984387Y822596D1*
X1989471Y819199D1*
X1994273Y815413D1*
X1998764Y811264D1*
X2002913Y806773D1*
X2006699Y801971D1*
X2010096Y796887D1*
X2013084Y791552D1*
X2015643Y786000D1*
X2017760Y780264D1*
X2019420Y774379D1*
X2020665Y767932D1*
X2044655Y743936D1*
X2167297Y743913D1*
X2121013Y790472D1*
X2115230Y798433D1*
X2110762Y807202D1*
X2107720Y816560D1*
X2106181Y826281D1*
X2105988Y849573D1*
Y883627D1*
X2070402Y883736D1*
X2063092Y884472D1*
X2055895Y885945D1*
X2048885Y888138D1*
X2042131Y891028D1*
X2035703Y894585D1*
X2029671Y898776D1*
X2024091Y903554D1*
X2019024Y908871D1*
X2014520Y914675D1*
X2010625Y920904D1*
X2007381Y927495D1*
X2004820Y934379D1*
X2002969Y941488D1*
X2001844Y948748D1*
X2001461Y956084D1*
X2001820Y963421D1*
X2002921Y970684D1*
X2004749Y977798D1*
X2007289Y984692D1*
X2010512Y991293D1*
X2011780Y993486D1*
X1989888Y993488D1*
X1984387Y989806D1*
X1979052Y986818D1*
X1973500Y984259D1*
X1967764Y982142D1*
X1961879Y980482D1*
X1955882Y979290D1*
X1949811Y978571D1*
X1943701Y978331D1*
X1937591Y978571D1*
X1931520Y979290D1*
X1925522Y980482D1*
X1919638Y982142D1*
X1913902Y984259D1*
X1908349Y986818D1*
X1902596Y989986D1*
X1905682Y983319D1*
X1908080Y976375D1*
X1909762Y969224D1*
X1910714Y961941D1*
X1910917Y954364D1*
X1910360Y947039D1*
X1909064Y939808D1*
X1907045Y932745D1*
X1904322Y925923D1*
X1900921Y919411D1*
X1896882Y913276D1*
X1892241Y907581D1*
X1887049Y902385D1*
X1881358Y897740D1*
X1875226Y893694D1*
X1868717Y890290D1*
X1861896Y887560D1*
X1854836Y885535D1*
X1847606Y884234D1*
X1840281Y883671D1*
X1795402Y883736D1*
X1788092Y884472D1*
X1780895Y885945D1*
X1773885Y888138D1*
X1767131Y891028D1*
X1760703Y894585D1*
X1754671Y898776D1*
X1749091Y903554D1*
X1744024Y908871D1*
X1739520Y914675D1*
X1735625Y920904D1*
X1732381Y927495D1*
X1729820Y934379D1*
X1727969Y941488D1*
X1726844Y948748D1*
X1726461Y956084D1*
X1726820Y963421D1*
X1727921Y970684D1*
X1729749Y977798D1*
X1732289Y984692D1*
X1735512Y991293D1*
X1736780Y993486D1*
X1714888Y993488D1*
X1709387Y989806D1*
X1704052Y986818D1*
X1698500Y984259D1*
X1692764Y982142D1*
X1686879Y980482D1*
X1680882Y979290D1*
X1674811Y978571D1*
X1668701Y978331D1*
X1662591Y978571D1*
X1656520Y979290D1*
X1650522Y980482D1*
X1644638Y982142D1*
X1638902Y984259D1*
X1633349Y986818D1*
X1627596Y989986D1*
X1630682Y983319D1*
X1633080Y976375D1*
X1634762Y969224D1*
X1635714Y961941D1*
X1635917Y954364D1*
X1635360Y947039D1*
X1634064Y939808D1*
X1632045Y932745D1*
X1629322Y925923D1*
X1625921Y919411D1*
X1621882Y913276D1*
X1617241Y907581D1*
X1612049Y902385D1*
X1606358Y897740D1*
X1600226Y893694D1*
X1593717Y890290D1*
X1586896Y887560D1*
X1579836Y885535D1*
X1572606Y884234D1*
X1565281Y883671D1*
X1520402Y883736D1*
X1513092Y884472D1*
X1505895Y885945D1*
X1498885Y888138D1*
X1492131Y891028D1*
X1485703Y894585D1*
X1479671Y898776D1*
X1474091Y903554D1*
X1469024Y908871D1*
X1464520Y914675D1*
X1460625Y920904D1*
X1457381Y927495D1*
X1454820Y934379D1*
X1452969Y941488D1*
X1451844Y948748D1*
X1451461Y956084D1*
X1451820Y963421D1*
X1452921Y970684D1*
X1454749Y977798D1*
X1457289Y984692D1*
X1460512Y991293D1*
X1461780Y993486D1*
X1439888Y993488D1*
X1434387Y989806D1*
X1429052Y986818D1*
X1423500Y984259D1*
X1417764Y982142D1*
X1411879Y980482D1*
X1405882Y979290D1*
X1399811Y978571D1*
X1393701Y978331D1*
X1387591Y978571D1*
X1381520Y979290D1*
X1375522Y980482D1*
X1369638Y982142D1*
X1363902Y984259D1*
X1358349Y986818D1*
X1352596Y989986D1*
X1355682Y983319D1*
X1358080Y976375D1*
X1359762Y969224D1*
X1360714Y961941D1*
X1360917Y954364D1*
X1360360Y947039D1*
X1359064Y939808D1*
X1357045Y932745D1*
X1354322Y925923D1*
X1350921Y919411D1*
X1346882Y913276D1*
X1342241Y907581D1*
X1337049Y902385D1*
X1331358Y897740D1*
X1325226Y893694D1*
X1318717Y890290D1*
X1311896Y887560D1*
X1304836Y885535D1*
X1297606Y884234D1*
X1290281Y883671D1*
X1245402Y883736D1*
X1238092Y884472D1*
X1230895Y885945D1*
X1223885Y888138D1*
X1217131Y891028D1*
X1210703Y894585D1*
X1204671Y898776D1*
X1199091Y903554D1*
X1194024Y908871D1*
X1189520Y914675D1*
X1185625Y920904D1*
X1182381Y927495D1*
X1179820Y934379D1*
X1177969Y941488D1*
X1176844Y948748D1*
X1176461Y956084D1*
X1176820Y963421D1*
X1177921Y970684D1*
X1179749Y977798D1*
X1182289Y984692D1*
X1185512Y991293D1*
X1186780Y993486D1*
X1164888Y993488D1*
X1159387Y989806D1*
X1154052Y986818D1*
X1148500Y984259D1*
X1142764Y982142D1*
X1136879Y980482D1*
X1130882Y979290D1*
X1124811Y978571D1*
X1118701Y978331D1*
X1112591Y978571D1*
X1106520Y979290D1*
X1100522Y980482D1*
X1094638Y982142D1*
X1088902Y984259D1*
X1083349Y986818D1*
X1078014Y989806D1*
X1072930Y993202D1*
X1068129Y996988D1*
X1063638Y1001138D1*
X1059488Y1005629D1*
X1055702Y1010430D1*
X1052306Y1015514D1*
X1049318Y1020849D1*
X1046759Y1026402D1*
X1044642Y1032138D1*
X1042982Y1038022D1*
X1041790Y1044020D1*
X1041071Y1050091D1*
X1040831Y1056201D1*
X1041071Y1062311D1*
X1041790Y1068382D1*
X1042982Y1074379D1*
X1044642Y1080264D1*
X1046759Y1086000D1*
X1049318Y1091552D1*
X1052306Y1096887D1*
X1055702Y1101971D1*
X1059488Y1106773D1*
X1063638Y1111264D1*
X1068129Y1115413D1*
X1072930Y1119199D1*
X1078014Y1122596D1*
X1083349Y1125584D1*
X1088902Y1128143D1*
X1094638Y1130260D1*
X1100522Y1131920D1*
X1106520Y1133112D1*
X1112591Y1133831D1*
X1118701Y1134071D1*
X1124811Y1133831D1*
X1130882Y1133112D1*
X1136879Y1131920D1*
X1142764Y1130260D1*
X1148500Y1128143D1*
X1154052Y1125584D1*
X1159387Y1122596D1*
X1164828Y1118919D1*
X1184118Y1118913D1*
X1180486Y1126126D1*
X1177921Y1134016D1*
X1176623Y1142210D1*
X1176461Y1166043D1*
X1177112Y1174314D1*
X1179049Y1182381D1*
X1182223Y1190046D1*
X1186558Y1197119D1*
X1191958Y1203440D1*
X1204837Y1216089D1*
X1211549Y1220965D1*
X1218941Y1224731D1*
X1226831Y1227295D1*
X1235025Y1228593D1*
X1239189Y1228756D1*
X1243488Y1229692D1*
Y1554766D1*
X1209724Y1521035D1*
X1209748Y1493034D1*
X1181722D1*
X1031446Y1342757D1*
X1031818Y1336318D1*
X1031655Y1271920D1*
X1030357Y1263726D1*
X1027793Y1255836D1*
X1024026Y1248444D1*
X1019151Y1241732D1*
X996845Y1219196D1*
X970669Y1193251D1*
X963958Y1188375D1*
X956566Y1184609D1*
X948676Y1182045D1*
X940482Y1180747D1*
X908774Y1180584D1*
X871920Y1180747D1*
X863726Y1182045D1*
X855836Y1184609D1*
X848444Y1188375D1*
X841732Y1193251D1*
X818917Y1215836D1*
X818913Y1190546D1*
X840567Y1190567D1*
Y1021835D1*
X818929D1*
X818913Y975115D1*
X824454Y968290D1*
X828135Y962782D1*
X831371Y957003D1*
X834144Y950987D1*
X836438Y944772D1*
X838236Y938396D1*
X839529Y931899D1*
X840307Y925320D1*
X840567Y918701D1*
X840307Y912081D1*
X839529Y905503D1*
X838236Y899005D1*
X836438Y892630D1*
X834144Y886415D1*
X831371Y880399D1*
X828135Y874619D1*
X824454Y869112D1*
X820353Y863909D1*
X815857Y859045D1*
X810992Y854549D1*
X805790Y850448D1*
X800282Y846766D1*
X794503Y843530D1*
X788487Y840757D1*
X782272Y838463D1*
X775896Y836665D1*
X769399Y835373D1*
X762820Y834594D1*
X756201Y834335D1*
X749581Y834594D1*
X740592Y835853D1*
X740567Y834335D1*
X571835D1*
Y1003067D1*
X693490D1*
X693488Y1021867D1*
X671835Y1021835D1*
Y1190567D1*
X693472D1*
X693488Y1245324D1*
X685352Y1253068D1*
X676627Y1262022D1*
X671744Y1268748D1*
X667948Y1265299D1*
X646031Y1243563D1*
X640169Y1239140D1*
X633752Y1235572D1*
X626902Y1232928D1*
X619751Y1231259D1*
X612430Y1230596D1*
X547396Y1230711D1*
X540125Y1231730D1*
X533063Y1233744D1*
X526349Y1236718D1*
X520112Y1240594D1*
X514467Y1245302D1*
X468563Y1291370D1*
X464140Y1297232D1*
X460572Y1303650D1*
X457928Y1310500D1*
X456259Y1317651D1*
X455596Y1324971D1*
X876104Y1431818D2*
X940497Y1431652D1*
X946301Y1434990D1*
X1004331Y1493020D1*
X818933Y1493034D1*
X818913Y1464638D1*
X827190Y1457505D1*
X834584Y1448848D1*
X840533Y1439140D1*
X844890Y1428622D1*
X846510Y1422768D1*
X852066Y1426055D1*
X859731Y1429230D1*
X867798Y1431167D1*
X876084Y1431818D1*
X3612453Y1090097D2*
X3612476Y1090073D1*
X3644318Y1026470D2*
Y1026438D1*
Y1000223D2*
Y1000192D1*
X3600490Y910341D2*
X3600466Y910318D1*
X3612453Y1315097D2*
X3612476Y1315073D1*
X3644318Y1251470D2*
Y1251438D1*
Y1225223D2*
Y1225192D1*
X3612453Y840097D2*
X3612476Y840073D1*
X3644318Y776470D2*
Y776438D1*
Y750223D2*
Y750192D1*
X1540151Y1331395D2*
X1538580Y1336966D1*
X1537318Y1343311D1*
X1536558Y1349736D1*
X1536303Y1356201D1*
X1536558Y1362665D1*
X1537318Y1369091D1*
X1538580Y1375436D1*
X1540336Y1381663D1*
X1542575Y1387734D1*
X1545283Y1393609D1*
X1548445Y1399253D1*
X1552039Y1404633D1*
X1555999Y1409655D1*
X1556181Y1536121D1*
X1557720Y1545841D1*
X1560762Y1555199D1*
X1565230Y1563969D1*
X1571013Y1571929D1*
X1587348Y1588537D1*
X1752987Y1753900D1*
X1754869Y1756344D1*
X1671013Y1840472D1*
X1665230Y1848433D1*
X1660762Y1857202D1*
X1657720Y1866560D1*
X1656181Y1876281D1*
X1655990Y1881220D1*
X1650234Y1880075D1*
X1644163Y1877836D1*
X1637936Y1876080D1*
X1631591Y1874818D1*
X1625165Y1874058D1*
X1618701Y1873803D1*
X1612236Y1874058D1*
X1605811Y1874818D1*
X1599466Y1876080D1*
X1593239Y1877836D1*
X1587168Y1880075D1*
X1581293Y1882783D1*
X1575648Y1885945D1*
X1570269Y1889539D1*
X1565247Y1893499D1*
X1475917Y1893488D1*
X1456412Y1873972D1*
X1456413Y1331437D1*
X1540097Y1331413D1*
X1755993Y1282731D2*
X1750234Y1280075D1*
X1744163Y1277836D1*
X1737936Y1276080D1*
X1731591Y1274818D1*
X1725165Y1274058D1*
X1718701Y1273803D1*
X1712236Y1274058D1*
X1705811Y1274818D1*
X1699466Y1276080D1*
X1693239Y1277836D1*
X1687168Y1280075D1*
X1681293Y1282783D1*
X1675648Y1285945D1*
X1668740Y1290744D1*
X1670278Y1287063D1*
X1738407Y1218933D1*
X1758419Y1218913D1*
X1765171Y1222993D1*
X1772836Y1226168D1*
X1780919Y1228106D1*
X1778886Y1232327D1*
X1771013Y1240472D1*
X1765230Y1248433D1*
X1760761Y1257202D1*
X1757720Y1266560D1*
X1756181Y1276281D1*
X1755988Y1281220D1*
X1781408Y1429671D2*
X1787168Y1432327D1*
X1793239Y1434566D1*
X1799466Y1436322D1*
X1805811Y1437584D1*
X1812236Y1438344D1*
X1818701Y1438598D1*
X1825165Y1438344D1*
X1831591Y1437584D1*
X1837936Y1436322D1*
X1844163Y1434566D1*
X1850234Y1432327D1*
X1855988Y1429692D1*
X1856181Y1486121D1*
X1857720Y1495841D1*
X1860762Y1505199D1*
X1865230Y1513969D1*
X1871013Y1521929D1*
X1887348Y1538537D1*
X1917315Y1568504D1*
X1894684Y1568488D1*
X1781430Y1455241D1*
X1781413Y1429707D1*
X1968661Y1290744D2*
X1961753Y1285945D1*
X1956109Y1282783D1*
X1950234Y1280075D1*
X1944163Y1277836D1*
X1933004Y1275098D1*
X1938084Y1266552D1*
X1940643Y1261000D1*
X1942760Y1255264D1*
X1944420Y1249379D1*
X1945612Y1243382D1*
X1946331Y1237311D1*
X1946571Y1231201D1*
X1946331Y1225091D1*
X1945612Y1219020D1*
X1944420Y1213022D1*
X1942760Y1207138D1*
X1940643Y1201402D1*
X1938084Y1195849D1*
X1935096Y1190514D1*
X1931699Y1185430D1*
X1927913Y1180629D1*
X1923764Y1176138D1*
X1919273Y1171988D1*
X1910957Y1165854D1*
X1910778Y1142210D1*
X1909480Y1134016D1*
X1906909Y1126112D1*
X1908349Y1125584D1*
X1913902Y1128143D1*
X1919638Y1130260D1*
X1925522Y1131920D1*
X1931520Y1133112D1*
X1937591Y1133831D1*
X1943701Y1134071D1*
X1949811Y1133831D1*
X1955882Y1133112D1*
X1961879Y1131920D1*
X1967764Y1130260D1*
X1973500Y1128143D1*
X1979052Y1125584D1*
X1984387Y1122596D1*
X1989828Y1118919D1*
X2009118Y1118913D1*
X2005486Y1126126D1*
X2002921Y1134016D1*
X2001623Y1142210D1*
X2001461Y1166043D1*
X2002112Y1174314D1*
X2004049Y1182381D1*
X2007223Y1190046D1*
X2011558Y1197119D1*
X2016958Y1203440D1*
X2029849Y1216098D1*
X2030988Y1220505D1*
Y1274726D1*
X2025165Y1274058D1*
X2018701Y1273803D1*
X2012236Y1274058D1*
X2005811Y1274818D1*
X1999466Y1276080D1*
X1993239Y1277836D1*
X1987168Y1280075D1*
X1981293Y1282783D1*
X1975648Y1285945D1*
X1968740Y1290744D1*
X2200844Y1349736D2*
X2200084Y1343311D1*
X2198822Y1336966D1*
X2197066Y1330739D1*
X2194827Y1324668D1*
X2192118Y1318793D1*
X2188957Y1313148D1*
X2185033Y1307352D1*
X2192764Y1305260D1*
X2198500Y1303143D1*
X2204052Y1300584D1*
X2209387Y1297596D1*
X2214471Y1294199D1*
X2219273Y1290413D1*
X2223764Y1286264D1*
X2227913Y1281773D1*
X2231699Y1276971D1*
X2235096Y1271887D1*
X2238794Y1265013D1*
X2305971Y1332160D1*
X2305988Y1460037D1*
X2302306Y1465514D1*
X2299318Y1470849D1*
X2296759Y1476402D1*
X2294642Y1482138D1*
X2292982Y1488022D1*
X2291790Y1494020D1*
X2291071Y1500091D1*
X2290831Y1506201D1*
X2291071Y1512311D1*
X2291812Y1518500D1*
X2145612Y1518382D1*
X2146331Y1512311D1*
X2146571Y1506201D1*
X2146331Y1500091D1*
X2145612Y1494020D1*
X2144420Y1488022D1*
X2142760Y1482138D1*
X2140643Y1476402D1*
X2138084Y1470849D1*
X2135096Y1465514D1*
X2131699Y1460430D1*
X2127913Y1455629D1*
X2123764Y1451138D1*
X2119273Y1446988D1*
X2114471Y1443202D1*
X2105282Y1437507D1*
X2112236Y1438344D1*
X2118701Y1438598D1*
X2125165Y1438344D1*
X2131591Y1437584D1*
X2137936Y1436322D1*
X2144163Y1434566D1*
X2150234Y1432327D1*
X2156109Y1429618D1*
X2161753Y1426457D1*
X2167133Y1422862D1*
X2172214Y1418857D1*
X2176965Y1414465D1*
X2181357Y1409714D1*
X2185362Y1404633D1*
X2188957Y1399253D1*
X2192118Y1393609D1*
X2194827Y1387734D1*
X2197066Y1381663D1*
X2198822Y1375436D1*
X2200084Y1369091D1*
X2200844Y1362665D1*
X2201098Y1356201D1*
X2200844Y1349736D1*
X2172155Y1893499D2*
X2167133Y1889539D1*
X2161753Y1885945D1*
X2156109Y1882783D1*
X2150234Y1880075D1*
X2143555Y1877664D1*
X2145612Y1868382D1*
X2146331Y1862311D1*
X2146571Y1856201D1*
X2146331Y1850091D1*
X2145589Y1843902D1*
X2247552Y1843913D1*
X2255993Y1849265D1*
X2255988Y1888077D1*
X2247573Y1893483D1*
X2172161Y1893488D1*
X2081408Y2029671D2*
X2087168Y2032327D1*
X2093239Y2034566D1*
X2099466Y2036322D1*
X2105811Y2037584D1*
X2112236Y2038344D1*
X2118701Y2038598D1*
X2125165Y2038344D1*
X2131591Y2037584D1*
X2137936Y2036322D1*
X2144163Y2034566D1*
X2150234Y2032327D1*
X2156109Y2029618D1*
X2161753Y2026457D1*
X2167133Y2022862D1*
X2172155Y2018903D1*
X2247560Y2018913D1*
X2253014Y2022596D1*
X2258349Y2025584D1*
X2263902Y2028143D1*
X2269638Y2030260D1*
X2275522Y2031920D1*
X2281520Y2033112D1*
X2287591Y2033831D1*
X2293701Y2034071D1*
X2299811Y2033831D1*
X2305882Y2033112D1*
X2311879Y2031920D1*
X2317764Y2030260D1*
X2323500Y2028143D1*
X2329052Y2025584D1*
X2334387Y2022596D1*
X2339471Y2019199D1*
X2348150Y2011831D1*
X2390472Y2053888D1*
X2398433Y2059672D1*
X2407202Y2064140D1*
X2416560Y2067181D1*
X2421409Y2068143D1*
X2419160Y2068488D1*
X2076286D1*
X2078344Y2063080D1*
X2080642Y2053512D1*
X2081413Y2043701D1*
Y2029671D1*
X1451461Y1146394D2*
Y1162255D1*
X1395030Y1162432D1*
X1385311Y1163971D1*
X1375951Y1167012D1*
X1371463Y1169083D1*
X1368913Y1163238D1*
X1368720Y1151281D1*
X1367181Y1141560D1*
X1364140Y1132202D1*
X1362068Y1127713D1*
X1369638Y1130260D1*
X1375522Y1131920D1*
X1381520Y1133112D1*
X1387591Y1133831D1*
X1393701Y1134071D1*
X1399811Y1133831D1*
X1405882Y1133112D1*
X1411879Y1131920D1*
X1417764Y1130260D1*
X1423500Y1128143D1*
X1429052Y1125584D1*
X1434387Y1122596D1*
X1439828Y1118919D1*
X1459118Y1118913D1*
X1455486Y1126126D1*
X1452921Y1134016D1*
X1451623Y1142210D1*
X1451461Y1146374D1*
X2290861Y1703442D2*
X2281520Y1704290D1*
X2275522Y1705482D1*
X2269638Y1707142D1*
X2263902Y1709259D1*
X2258349Y1711818D1*
X2253014Y1714806D1*
X2247573Y1718483D1*
X2145612Y1718382D1*
X2146331Y1712311D1*
X2146571Y1706201D1*
X2146331Y1700091D1*
X2145589Y1693902D1*
X2291790Y1694020D1*
X2290942Y1703361D1*
X2747273Y1568720D2*
X2738638Y1576138D1*
X2734488Y1580629D1*
X2730702Y1585430D1*
X2727306Y1590514D1*
X2724318Y1595849D1*
X2721759Y1601402D1*
X2719642Y1607138D1*
X2717982Y1613022D1*
X2716790Y1619020D1*
X2716071Y1625091D1*
X2715831Y1631201D1*
X2716071Y1637311D1*
X2716812Y1643500D1*
X2656399Y1643488D1*
X2656413Y1507173D1*
X2819697Y1343894D1*
X2960311Y1343913D1*
X2961665Y1350896D1*
X2963463Y1357272D1*
X2965757Y1363487D1*
X2968530Y1369503D1*
X2971766Y1375282D1*
X2975752Y1381176D1*
X2971766Y1387119D1*
X2968530Y1392899D1*
X2965757Y1398915D1*
X2963463Y1405130D1*
X2961665Y1411505D1*
X2960373Y1418003D1*
X2959594Y1424581D1*
X2959335Y1431201D1*
X2959594Y1437820D1*
X2960373Y1444399D1*
X2961665Y1450896D1*
X2963463Y1457272D1*
X2965757Y1463487D1*
X2968064Y1468492D1*
X2861804Y1468488D1*
X2856699Y1460430D1*
X2852913Y1455629D1*
X2848764Y1451138D1*
X2844273Y1446988D1*
X2839471Y1443202D1*
X2834387Y1439806D1*
X2829052Y1436818D1*
X2823500Y1434259D1*
X2817764Y1432142D1*
X2811879Y1430482D1*
X2805882Y1429290D1*
X2799811Y1428571D1*
X2793701Y1428331D1*
X2787591Y1428571D1*
X2781520Y1429290D1*
X2775522Y1430482D1*
X2769638Y1432142D1*
X2763902Y1434259D1*
X2758349Y1436818D1*
X2753014Y1439806D1*
X2747930Y1443202D1*
X2743129Y1446988D1*
X2738638Y1451138D1*
X2734488Y1455629D1*
X2730702Y1460430D1*
X2727306Y1465514D1*
X2724318Y1470849D1*
X2721759Y1476402D1*
X2719642Y1482138D1*
X2717982Y1488022D1*
X2716790Y1494020D1*
X2716071Y1500091D1*
X2715831Y1506201D1*
X2716071Y1512311D1*
X2716790Y1518382D1*
X2717982Y1524379D1*
X2719642Y1530264D1*
X2721759Y1536000D1*
X2724318Y1541552D1*
X2727306Y1546887D1*
X2730702Y1551971D1*
X2734488Y1556773D1*
X2738638Y1561264D1*
X2747273Y1568681D1*
X3825844Y574736D2*
X3825084Y568311D1*
X3823822Y561966D1*
X3822066Y555739D1*
X3819827Y549668D1*
X3817118Y543793D1*
X3813957Y538148D1*
X3810362Y532769D1*
X3806357Y527688D1*
X3801965Y522937D1*
X3797214Y518545D1*
X3792133Y514539D1*
X3786753Y510945D1*
X3781109Y507783D1*
X3775234Y505075D1*
X3769163Y502836D1*
X3762936Y501080D1*
X3756591Y499818D1*
X3750165Y499058D1*
X3743701Y498803D1*
X3737236Y499058D1*
X3730811Y499818D1*
X3724466Y501080D1*
X3718239Y502836D1*
X3712168Y505075D1*
X3706293Y507783D1*
X3700648Y510945D1*
X3695269Y514539D1*
X3690188Y518545D1*
X3685437Y522937D1*
X3681045Y527688D1*
X3677039Y532769D1*
X3673445Y538148D1*
X3670283Y543793D1*
X3667575Y549668D1*
X3665336Y555739D1*
X3663580Y561966D1*
X3662318Y568311D1*
X3661558Y574736D1*
X3661303Y581201D1*
X3661558Y587665D1*
X3662318Y594091D1*
X3663580Y600436D1*
X3665336Y606663D1*
X3667575Y612734D1*
X3670283Y618609D1*
X3673445Y624253D1*
X3677039Y629633D1*
X3681045Y634714D1*
X3685437Y639465D1*
X3690188Y643857D1*
X3695269Y647862D1*
X3700648Y651457D1*
X3706293Y654618D1*
X3712168Y657327D1*
X3718239Y659566D1*
X3724466Y661322D1*
X3730811Y662584D1*
X3737236Y663344D1*
X3743701Y663598D1*
X3750165Y663344D1*
X3756591Y662584D1*
X3762936Y661322D1*
X3769163Y659566D1*
X3775234Y657327D1*
X3781109Y654618D1*
X3786753Y651457D1*
X3792133Y647862D1*
X3797214Y643857D1*
X3801965Y639465D1*
X3806357Y634714D1*
X3810362Y629633D1*
X3813957Y624253D1*
X3817118Y618609D1*
X3819827Y612734D1*
X3822066Y606663D1*
X3823822Y600436D1*
X3825084Y594091D1*
X3825844Y587665D1*
X3826098Y581201D1*
X3825844Y574736D1*
X4023346Y560102D2*
X4020909Y552424D1*
X4017230Y544013D1*
X4012635Y536063D1*
X4007185Y528673D1*
X4000948Y521937D1*
X3993999Y515936D1*
X3986425Y510745D1*
X3978320Y506429D1*
X3969787Y503042D1*
X3960929Y500625D1*
X3951857Y499207D1*
X3942685Y498810D1*
X3933524Y499434D1*
X3924491Y501073D1*
X3915694Y503709D1*
X3907247Y507306D1*
X3899252Y511820D1*
X3891808Y517196D1*
X3885010Y523366D1*
X3878940Y530256D1*
X3873675Y537777D1*
X3869278Y545837D1*
X3865806Y554337D1*
X3863301Y563171D1*
X3861793Y572227D1*
X3861303Y581396D1*
X3861837Y590562D1*
X3863386Y599612D1*
X3865933Y608433D1*
X3869446Y616916D1*
X3873881Y624957D1*
X3879182Y632453D1*
X3885285Y639312D1*
X3892113Y645450D1*
X3899581Y650791D1*
X3907598Y655268D1*
X3916063Y658825D1*
X3924870Y661417D1*
X3933912Y663014D1*
X3943075Y663596D1*
X3952247Y663154D1*
X3961311Y661694D1*
X3970157Y659236D1*
X3978675Y655807D1*
X3986759Y651453D1*
X3994307Y646227D1*
X4001227Y640193D1*
X4007433Y633427D1*
X4007707Y633084D1*
X4009867Y644829D1*
X4012253Y653287D1*
X4015295Y661533D1*
X4018975Y669513D1*
X4023269Y677181D1*
X4028151Y684488D1*
X4033592Y691390D1*
X4039558Y697844D1*
X4046012Y703810D1*
X4052913Y709251D1*
X4060220Y714133D1*
X4067888Y718427D1*
X4075869Y722106D1*
X4084114Y725148D1*
X4092572Y727534D1*
X4101192Y729248D1*
X4109919Y730281D1*
X4118701Y730626D1*
X4127483Y730281D1*
X4136210Y729248D1*
X4144829Y727534D1*
X4153287Y725148D1*
X4161533Y722106D1*
X4169513Y718427D1*
X4177181Y714133D1*
X4184488Y709251D1*
X4191390Y703810D1*
X4197844Y697844D1*
X4203810Y691390D1*
X4209251Y684488D1*
X4214133Y677181D1*
X4218427Y669513D1*
X4222106Y661533D1*
X4225148Y653287D1*
X4227534Y644829D1*
X4229248Y636210D1*
X4230281Y627483D1*
X4230626Y618701D1*
X4230281Y609919D1*
X4229248Y601192D1*
X4227534Y592572D1*
X4225148Y584114D1*
X4222106Y575869D1*
X4218427Y567888D1*
X4214133Y560220D1*
X4209251Y552913D1*
X4203810Y546012D1*
X4197844Y539558D1*
X4191390Y533592D1*
X4184488Y528151D1*
X4177181Y523269D1*
X4169513Y518975D1*
X4161533Y515295D1*
X4153287Y512253D1*
X4144829Y509867D1*
X4136210Y508154D1*
X4127483Y507121D1*
X4118701Y506776D1*
X4109919Y507121D1*
X4101192Y508154D1*
X4092572Y509867D1*
X4084114Y512253D1*
X4075869Y515295D1*
X4067888Y518975D1*
X4060220Y523269D1*
X4052913Y528151D1*
X4046012Y533592D1*
X4039558Y539558D1*
X4033592Y546012D1*
X4028151Y552913D1*
X4023365Y560077D1*
X3863140Y2013598D2*
X4026098D1*
Y1848803D1*
X3861303D1*
Y2013598D1*
X3863140D1*
X3825844Y1924736D2*
X3825084Y1918311D1*
X3823822Y1911966D1*
X3822066Y1905739D1*
X3819827Y1899668D1*
X3817118Y1893793D1*
X3813957Y1888148D1*
X3810362Y1882769D1*
X3806357Y1877688D1*
X3801965Y1872937D1*
X3797214Y1868545D1*
X3792133Y1864539D1*
X3786753Y1860945D1*
X3781109Y1857783D1*
X3775234Y1855075D1*
X3769163Y1852836D1*
X3762936Y1851080D1*
X3756591Y1849818D1*
X3750165Y1849058D1*
X3743701Y1848803D1*
X3737236Y1849058D1*
X3730811Y1849818D1*
X3724466Y1851080D1*
X3718239Y1852836D1*
X3712168Y1855075D1*
X3706293Y1857783D1*
X3700648Y1860945D1*
X3695269Y1864539D1*
X3690188Y1868545D1*
X3685437Y1872937D1*
X3681045Y1877688D1*
X3677039Y1882769D1*
X3673445Y1888148D1*
X3670283Y1893793D1*
X3667575Y1899668D1*
X3665336Y1905739D1*
X3663580Y1911966D1*
X3662318Y1918311D1*
X3661558Y1924736D1*
X3661303Y1931201D1*
X3661558Y1937665D1*
X3662318Y1944091D1*
X3663580Y1950436D1*
X3665336Y1956663D1*
X3667575Y1962734D1*
X3670283Y1968609D1*
X3673445Y1974253D1*
X3677039Y1979633D1*
X3681045Y1984714D1*
X3685437Y1989465D1*
X3690188Y1993857D1*
X3695269Y1997862D1*
X3700648Y2001457D1*
X3706293Y2004618D1*
X3712168Y2007327D1*
X3718239Y2009566D1*
X3724466Y2011322D1*
X3730811Y2012584D1*
X3737236Y2013344D1*
X3743701Y2013598D1*
X3750165Y2013344D1*
X3756591Y2012584D1*
X3762936Y2011322D1*
X3769163Y2009566D1*
X3775234Y2007327D1*
X3781109Y2004618D1*
X3786753Y2001457D1*
X3792133Y1997862D1*
X3797214Y1993857D1*
X3801965Y1989465D1*
X3806357Y1984714D1*
X3810362Y1979633D1*
X3813957Y1974253D1*
X3817118Y1968609D1*
X3819827Y1962734D1*
X3822066Y1956663D1*
X3823822Y1950436D1*
X3825084Y1944091D1*
X3825844Y1937665D1*
X3826098Y1931201D1*
X3825844Y1924736D1*
X4026077Y1629364D2*
X4025362Y1620210D1*
X4023633Y1611193D1*
X4020909Y1602424D1*
X4017230Y1594013D1*
X4012635Y1586063D1*
X4007185Y1578673D1*
X4000948Y1571937D1*
X3993999Y1565936D1*
X3986425Y1560745D1*
X3978320Y1556429D1*
X3969787Y1553042D1*
X3960929Y1550625D1*
X3951857Y1549207D1*
X3942685Y1548810D1*
X3933524Y1549434D1*
X3924491Y1551073D1*
X3915694Y1553709D1*
X3907247Y1557306D1*
X3899252Y1561820D1*
X3891808Y1567196D1*
X3885010Y1573366D1*
X3878940Y1580256D1*
X3873675Y1587777D1*
X3869278Y1595837D1*
X3865806Y1604337D1*
X3863301Y1613171D1*
X3861793Y1622227D1*
X3861303Y1631396D1*
X3861837Y1640562D1*
X3863386Y1649612D1*
X3865933Y1658433D1*
X3869446Y1666916D1*
X3873881Y1674957D1*
X3879182Y1682453D1*
X3885285Y1689312D1*
X3892113Y1695450D1*
X3899581Y1700791D1*
X3907598Y1705268D1*
X3916063Y1708825D1*
X3924870Y1711417D1*
X3933912Y1713014D1*
X3943075Y1713596D1*
X3952247Y1713154D1*
X3961311Y1711694D1*
X3970157Y1709236D1*
X3978675Y1705807D1*
X3986759Y1701453D1*
X3994307Y1696227D1*
X4001227Y1690193D1*
X4007433Y1683427D1*
X4012848Y1676012D1*
X4017404Y1668039D1*
X4021046Y1659612D1*
X4023726Y1650829D1*
X4025413Y1641804D1*
X4026085Y1632647D1*
X4026077Y1629364D1*
X2975752Y981226D2*
X2971766Y987119D1*
X2968259Y993487D1*
X2956395Y993488D1*
X2956220Y951281D1*
X2954681Y941560D1*
X2951639Y932202D1*
X2947172Y923433D1*
X2941388Y915472D1*
X2925054Y898865D1*
X2870119Y843930D1*
X2942738Y843913D1*
X2968735Y869924D1*
X2971766Y875282D1*
X2975752Y881176D1*
X2971766Y887119D1*
X2968530Y892899D1*
X2965757Y898915D1*
X2963463Y905130D1*
X2961665Y911505D1*
X2960373Y918003D1*
X2959594Y924581D1*
X2959335Y931201D1*
X2959594Y937820D1*
X2960373Y944399D1*
X2961665Y950896D1*
X2963463Y957272D1*
X2965757Y963487D1*
X2968530Y969503D1*
X2971766Y975282D1*
X2975752Y981176D1*
X3260315Y643911D2*
X3261665Y650896D1*
X3263463Y657272D1*
X3265757Y663487D1*
X3268530Y669503D1*
X3271766Y675282D1*
X3275752Y681176D1*
X3271766Y687119D1*
X3268530Y692899D1*
X3265757Y698915D1*
X3263463Y705130D1*
X3261665Y711505D1*
X3260373Y718003D1*
X3259594Y724581D1*
X3259335Y731201D1*
X3259594Y737820D1*
X3260373Y744399D1*
X3261665Y750896D1*
X3263463Y757272D1*
X3265757Y763487D1*
X3268064Y768492D1*
X3181396Y768488D1*
X3181220Y701281D1*
X3179681Y691560D1*
X3176640Y682202D1*
X3172172Y673433D1*
X3166388Y665472D1*
X3150054Y648865D1*
X3145106Y643917D1*
X3260318Y643913D1*
X3268064Y893909D2*
X3265757Y898915D1*
X3263463Y905130D1*
X3261665Y911505D1*
X3260373Y918003D1*
X3259594Y924581D1*
X3259335Y931201D1*
X3259594Y937820D1*
X3260373Y944399D1*
X3261665Y950896D1*
X3263463Y957272D1*
X3265757Y963487D1*
X3268530Y969503D1*
X3271766Y975282D1*
X3275752Y981176D1*
X3271766Y987119D1*
X3268530Y992899D1*
X3265757Y998915D1*
X3263463Y1005130D1*
X3261665Y1011505D1*
X3260373Y1018003D1*
X3259594Y1024581D1*
X3259335Y1031201D1*
X3259594Y1037820D1*
X3260373Y1044399D1*
X3261665Y1050896D1*
X3263463Y1057272D1*
X3265757Y1063487D1*
X3268530Y1069503D1*
X3271766Y1075282D1*
X3275752Y1081176D1*
X3271766Y1087119D1*
X3268530Y1092899D1*
X3265247Y1100299D1*
X3256839Y1105465D1*
X3249356Y1111856D1*
X3181430Y1179782D1*
X3181413Y956201D1*
X3180642Y946390D1*
X3178344Y936822D1*
X3174579Y927730D1*
X3169437Y919339D1*
X3163031Y911844D1*
X3145106Y893917D1*
X3268039Y893913D1*
X717781Y609919D2*
X716748Y601192D1*
X715034Y592572D1*
X712648Y584114D1*
X709606Y575869D1*
X705927Y567888D1*
X701633Y560220D1*
X696751Y552913D1*
X691310Y546012D1*
X685344Y539558D1*
X678890Y533592D1*
X671988Y528151D1*
X664681Y523269D1*
X657013Y518975D1*
X649033Y515295D1*
X640787Y512253D1*
X632329Y509867D1*
X623710Y508154D1*
X614983Y507121D1*
X606201Y506776D1*
X597419Y507121D1*
X588692Y508154D1*
X580072Y509867D1*
X571614Y512253D1*
X563369Y515295D1*
X555388Y518975D1*
X547720Y523269D1*
X540413Y528151D1*
X533512Y533592D1*
X527058Y539558D1*
X521092Y546012D1*
X515651Y552913D1*
X510769Y560220D1*
X506475Y567888D1*
X502795Y575869D1*
X499753Y584114D1*
X497367Y592572D1*
X495654Y601192D1*
X494621Y609919D1*
X494276Y618701D1*
X494621Y627483D1*
X495654Y636210D1*
X497367Y644829D1*
X499753Y653287D1*
X502795Y661533D1*
X506475Y669513D1*
X510769Y677181D1*
X515651Y684488D1*
X521092Y691390D1*
X527058Y697844D1*
X533512Y703810D1*
X540413Y709251D1*
X547720Y714133D1*
X555388Y718427D1*
X563369Y722106D1*
X571614Y725148D1*
X580072Y727534D1*
X588692Y729248D1*
X597419Y730281D1*
X606201Y730626D1*
X614983Y730281D1*
X623710Y729248D1*
X632329Y727534D1*
X640787Y725148D1*
X649033Y722106D1*
X657013Y718427D1*
X664681Y714133D1*
X671988Y709251D1*
X678890Y703810D1*
X685344Y697844D1*
X691310Y691390D1*
X696751Y684488D1*
X701633Y677181D1*
X705927Y669513D1*
X709606Y661533D1*
X712648Y653287D1*
X715034Y644829D1*
X716748Y636210D1*
X717781Y627483D1*
X718126Y618701D1*
X717781Y609919D1*
X4230281Y2147419D2*
X4229248Y2138692D1*
X4227534Y2130072D1*
X4225148Y2121614D1*
X4222106Y2113369D1*
X4218427Y2105388D1*
X4214133Y2097720D1*
X4209251Y2090413D1*
X4203810Y2083512D1*
X4197844Y2077058D1*
X4191390Y2071092D1*
X4184488Y2065651D1*
X4177181Y2060769D1*
X4169513Y2056475D1*
X4161533Y2052795D1*
X4153287Y2049753D1*
X4144829Y2047367D1*
X4136210Y2045654D1*
X4127483Y2044621D1*
X4118701Y2044276D1*
X4109919Y2044621D1*
X4101192Y2045654D1*
X4092572Y2047367D1*
X4084114Y2049753D1*
X4075869Y2052795D1*
X4067888Y2056475D1*
X4060220Y2060769D1*
X4052913Y2065651D1*
X4046012Y2071092D1*
X4039558Y2077058D1*
X4033592Y2083512D1*
X4028151Y2090413D1*
X4023269Y2097720D1*
X4018975Y2105388D1*
X4015295Y2113369D1*
X4012253Y2121614D1*
X4009867Y2130072D1*
X4008154Y2138692D1*
X4007121Y2147419D1*
X4006776Y2156201D1*
X4007121Y2164983D1*
X4008154Y2173710D1*
X4009867Y2182329D1*
X4012253Y2190787D1*
X4015295Y2199033D1*
X4018975Y2207013D1*
X4023269Y2214681D1*
X4028151Y2221988D1*
X4033592Y2228890D1*
X4039558Y2235344D1*
X4046012Y2241310D1*
X4052913Y2246751D1*
X4060220Y2251633D1*
X4067888Y2255927D1*
X4075869Y2259606D1*
X4084114Y2262648D1*
X4092572Y2265034D1*
X4101192Y2266748D1*
X4109919Y2267781D1*
X4118701Y2268126D1*
X4127483Y2267781D1*
X4136210Y2266748D1*
X4144829Y2265034D1*
X4153287Y2262648D1*
X4161533Y2259606D1*
X4169513Y2255927D1*
X4177181Y2251633D1*
X4184488Y2246751D1*
X4191390Y2241310D1*
X4197844Y2235344D1*
X4203810Y2228890D1*
X4209251Y2221988D1*
X4214133Y2214681D1*
X4218427Y2207013D1*
X4222106Y2199033D1*
X4225148Y2190787D1*
X4227534Y2182329D1*
X4229248Y2173710D1*
X4230281Y2164983D1*
X4230626Y2156201D1*
X4230281Y2147419D1*
X2480852Y1932041D2*
X2492295Y1943484D1*
X2457186Y1943488D1*
X2424518Y1910829D1*
X2430563Y1906937D1*
X2438059Y1900531D1*
X2455984Y1882606D1*
X2456760Y1891012D1*
X2459058Y1900580D1*
X2462823Y1909672D1*
X2467965Y1918063D1*
X2474356Y1925546D1*
X2480852Y1932041D1*
X406201Y2343677D2*
Y406218D1*
X4318677Y406201D1*
X4318701Y2343684D1*
X406224Y2343701D1*
X2368701Y1106201D2*
D13*
X2428331Y1046571D1*
Y1165831D2*
X2309071Y1046571D1*
X2603331Y940831D2*
X2543701Y881201D1*
X496571Y1665831D2*
X615831Y1546571D1*
Y1665831D2*
X496571Y1546571D1*
Y1165831D2*
X615831Y1046571D1*
Y1165831D2*
X496571Y1046571D1*
X571860Y1003042D2*
X740542Y834360D1*
X656201Y918701D2*
X571860Y834360D1*
X3184071Y2190831D2*
X3303331Y2071571D1*
Y2190831D2*
X3243701Y2131201D1*
X492360Y1445042D2*
D14*
X670042Y1267360D1*
Y1445042D2*
X492360Y1267360D1*
X522962Y1964440D2*
D13*
X581201Y1906201D1*
X522962Y1847962D1*
X1818701Y956201D2*
X1878121Y895470D1*
X1818701Y956201D2*
X1759281Y895470D1*
X1543701Y956201D2*
X1603121Y895470D1*
X1543701Y956201D2*
X1484281Y895470D1*
X1268701Y956201D2*
X1328121Y895470D1*
X1268701Y956201D2*
X1209281Y895470D1*
X2093701Y956201D2*
X2034281Y895470D1*
X3943701Y881201D2*
X4026073Y798828D1*
Y963573D2*
X3861328Y798828D1*
X3885462Y639440D2*
X4001940Y522962D1*
Y639440D2*
X3885462Y522962D1*
X3861328Y1488573D2*
X4026073Y1323828D1*
Y1488573D2*
X3861328Y1323828D1*
X3943701Y1106201D2*
X4001940Y1047962D1*
Y1164440D2*
X3943701Y1106201D1*
X3861328Y2013573D2*
X4026073Y1848828D1*
Y2013573D2*
X3861328Y1848828D1*
X3885462Y1689440D2*
X4001940Y1572962D1*
Y1689440D2*
X3885462Y1572962D1*
D17*
X2368701Y1106201D3*
D18*
Y906201D3*
D17*
X2543701Y881201D3*
D18*
X2743701D3*
D17*
X556201Y1606201D3*
D18*
X756201D3*
D17*
X556201Y1106201D3*
D18*
X756201D3*
X656201Y918701D3*
D17*
X756201D3*
X3243701Y2131201D3*
D18*
X3043701D3*
D48*
X581201Y1356201D3*
D19*
X681201Y1906201D3*
D20*
X581201D3*
X1618701Y1356201D3*
X1718701D3*
X1818701D3*
X1918701D3*
X2018701D3*
X1618701Y1956201D3*
X1718701D3*
X1818701D3*
X1918701D3*
X2018701D3*
X2118701Y1356201D3*
Y1956201D3*
D51*
X3518701Y1006201D3*
Y756201D3*
D54*
X1818701Y1156201D3*
D21*
Y1056201D3*
Y956201D3*
D54*
X1543701Y1156201D3*
D21*
Y1056201D3*
Y956201D3*
D54*
X1268701Y1156201D3*
D21*
Y1056201D3*
Y956201D3*
D54*
X2093701Y1156201D3*
D21*
Y1056201D3*
Y956201D3*
D19*
X2893701Y1156201D3*
D20*
Y1056201D3*
D22*
X2293701Y1781201D3*
D23*
X2593701D3*
D22*
X2293701Y1956201D3*
D23*
X2593701D3*
D22*
X2493701Y1631201D3*
D23*
X2793701D3*
D22*
X2493701Y1506201D3*
D23*
X2793701D3*
D22*
X2068701Y1706201D3*
D23*
X2368701D3*
D22*
X2068701Y1856201D3*
D23*
X2368701D3*
D22*
X2068701Y1506201D3*
D23*
X2368701D3*
D22*
X1868701Y1231201D3*
D23*
X2168701D3*
D22*
X1668701Y756201D3*
D23*
Y1056201D3*
D22*
X1393701Y756201D3*
D23*
Y1056201D3*
D22*
X1118701Y756201D3*
D23*
Y1056201D3*
D22*
X1943701Y756201D3*
D23*
Y1056201D3*
D22*
X2893701Y2131201D3*
D23*
X2593701D3*
D51*
X2943701Y2031201D3*
D19*
X3943701Y881201D3*
D20*
X3743701D3*
Y581201D3*
X3943701D3*
D19*
Y1406201D3*
D20*
X3743701D3*
Y1106201D3*
X3943701D3*
D19*
Y1931201D3*
D20*
X3743701D3*
Y1631201D3*
X3943701D3*
D51*
X3518701Y1231201D3*
D18*
X3043701Y1931201D3*
D17*
Y1831201D3*
Y1731201D3*
Y1631201D3*
Y1531201D3*
Y1431201D3*
Y1331201D3*
Y1231201D3*
Y1131201D3*
Y1031201D3*
Y931201D3*
Y831201D3*
Y731201D3*
Y631201D3*
X3343701D3*
Y731201D3*
Y831201D3*
Y931201D3*
Y1031201D3*
Y1131201D3*
Y1231201D3*
Y1331201D3*
Y1431201D3*
Y1531201D3*
Y1631201D3*
Y1731201D3*
Y1831201D3*
Y1931201D3*
D57*
X756201Y1306201D3*
D21*
Y1356201D3*
Y1406201D3*
D48*
X906201Y1306201D3*
X1282450Y2239591D2*
D45*
X1290055Y2247285D1*
X1301551Y2251087D1*
X1316850D1*
X1328346Y2247285D1*
X1336039Y2239591D1*
Y2231986D1*
X1332148Y2224293D1*
X1328346Y2220490D1*
X1320741Y2216688D1*
X1297749Y2208994D1*
X1290055Y2205191D1*
X1286253Y2201300D1*
X1282450Y2193695D1*
Y2182199D1*
X1290055Y2174594D1*
X1301551Y2170703D1*
X1316850D1*
X1328346Y2174594D1*
X1336039Y2182199D1*
X1219056Y2224293D2*
Y2170703D1*
Y2212797D2*
X1226661Y2220490D1*
X1234355Y2224293D1*
X1245763D1*
X1253456Y2220490D1*
X1261061Y2212797D1*
X1264952Y2201300D1*
Y2193695D1*
X1261061Y2182199D1*
X1253456Y2174594D1*
X1245763Y2170703D1*
X1234355D1*
X1226661Y2174594D1*
X1219056Y2182199D1*
X1190062Y2251087D2*
Y2186002D1*
X1186260Y2174594D1*
X1178566Y2170703D1*
X1170961D1*
X1201559Y2224293D2*
X1174764D1*
X1153463D2*
Y2186002D1*
X1149661Y2174594D1*
X1141967Y2170703D1*
X1130471D1*
X1122866Y2174594D1*
X1111370Y2186002D1*
Y2224293D2*
Y2170703D1*
X1093872Y2224293D2*
Y2170703D1*
Y2201300D2*
X1089981Y2212797D1*
X1082376Y2220490D1*
X1074683Y2224293D1*
X1063187D1*
X1045689D2*
Y2170703D1*
Y2208994D2*
X1034193Y2220490D1*
X1026499Y2224293D1*
X1015092D1*
X1007398Y2220490D1*
X1003596Y2208994D1*
Y2170703D1*
X986098Y2157439D2*
X913407D1*
X895910Y2224293D2*
Y2170703D1*
Y2208994D2*
X884413Y2220490D1*
X876720Y2224293D1*
X865312D1*
X857619Y2220490D1*
X853816Y2208994D1*
Y2170703D1*
Y2208994D2*
X842320Y2220490D1*
X834627Y2224293D1*
X823219D1*
X815526Y2220490D1*
X811635Y2208994D1*
Y2170703D1*
X794137Y2251087D2*
Y2170703D1*
X755846Y2224293D2*
X794137Y2186002D1*
X778838Y2201300D2*
X752043Y2170703D1*
X734546Y2235700D2*
X726852Y2239591D1*
X715356Y2250999D1*
Y2170703D1*
X1206838Y2096494D2*
X1172350D1*
X1160943Y2100297D1*
X1157052Y2104188D1*
X1153249Y2111793D1*
Y2123289D1*
X1157052Y2130894D1*
X1160943Y2134785D1*
X1172350Y2138587D1*
X1206838D1*
Y2058203D1*
X1078359Y2119486D2*
X1082162Y2127091D1*
X1089855Y2134785D1*
X1097460Y2138587D1*
X1112759D1*
X1120453Y2134785D1*
X1128058Y2127091D1*
X1131949Y2119486D1*
X1135751Y2107990D1*
Y2088800D1*
X1131949Y2077393D1*
X1128058Y2069699D1*
X1120453Y2062094D1*
X1112759Y2058203D1*
X1097460D1*
X1089855Y2062094D1*
X1082162Y2069699D1*
X1078359Y2077393D1*
X1060861Y2138587D2*
Y2058203D1*
X1026373D1*
X1014877Y2062094D1*
X1011075Y2065897D1*
X1007272Y2073502D1*
Y2084998D1*
X1011075Y2092691D1*
X1014877Y2096494D1*
X1026373Y2100297D1*
X1014877Y2104188D1*
X1011075Y2107990D1*
X1007272Y2115595D1*
Y2123289D1*
X1011075Y2130894D1*
X1014877Y2134785D1*
X1026373Y2138587D1*
X1060861D1*
Y2100297D2*
X1026373D1*
X919218Y2111793D2*
X896226Y2058203D1*
X873322Y2111793D1*
X855824Y2123200D2*
X848131Y2127091D1*
X836635Y2138499D1*
Y2058203D1*
X815334Y2065897D2*
X819137Y2062006D1*
X815334Y2058203D1*
X811443Y2062006D1*
X815334Y2065897D1*
X770953Y2138499D2*
X782449Y2134696D1*
X790143Y2123200D1*
X793945Y2104099D1*
Y2092603D1*
X790143Y2073502D1*
X782449Y2062006D1*
X770953Y2058203D1*
X763348D1*
X751852Y2062006D1*
X744247Y2073502D1*
X740356Y2092603D1*
Y2104099D1*
X744247Y2123200D1*
X751852Y2134696D1*
X763348Y2138499D1*
X770953D1*
X744247Y2123200D2*
X790143Y2073502D1*
X1136423Y2032338D2*
Y1951954D1*
X1105384D1*
X1095038Y1955845D1*
X1091615Y1959647D1*
X1088193Y1967253D1*
Y1978749D1*
X1091615Y1986442D1*
X1095038Y1990245D1*
X1105384Y1994047D1*
X1095038Y1997938D1*
X1091615Y2001741D1*
X1088193Y2009346D1*
Y2017039D1*
X1091615Y2024644D1*
X1095038Y2028535D1*
X1105384Y2032338D1*
X1136423D1*
Y1994047D2*
X1105384D1*
X1068943Y2005543D2*
X1048330Y1951954D1*
X1055174Y1936655D1*
X1062099Y1928962D1*
X1068943Y1925159D1*
X1072445D1*
X1027637Y2005543D2*
X1048330Y1951954D1*
X948388Y2032338D2*
X920850Y1951954D1*
X893313Y2032338D1*
X822410Y1951954D2*
X850027Y2032338D1*
X877565Y1951954D1*
X867218Y1978749D2*
X832757D1*
X806662Y2032338D2*
Y1951954D1*
X765356D1*
X1080564Y1718626D2*
D46*
X1085318Y1728132D1*
X1094934Y1737749D1*
X1104441Y1742503D1*
X1123564D1*
X1133181Y1737749D1*
X1142687Y1728132D1*
X1147551Y1718626D1*
X1152304Y1704256D1*
Y1680269D1*
X1147551Y1666010D1*
X1142687Y1656393D1*
X1133181Y1646886D1*
X1123564Y1642023D1*
X1104441D1*
X1094934Y1646886D1*
X1085318Y1656393D1*
X1080564Y1666010D1*
X977946Y1718626D2*
X982699Y1728132D1*
X992316Y1737749D1*
X1001822Y1742503D1*
X1020946D1*
X1030563Y1737749D1*
X1040069Y1728132D1*
X1044933Y1718626D1*
X1049686Y1704256D1*
Y1680269D1*
X1044933Y1666010D1*
X1040069Y1656393D1*
X1030563Y1646886D1*
X1020946Y1642023D1*
X1001822D1*
X992316Y1646886D1*
X982699Y1656393D1*
X977946Y1666010D1*
X942204Y1742392D2*
Y1675516D1*
Y1651639D2*
X947067Y1646776D1*
X942204Y1642023D1*
X937451Y1646776D1*
X942204Y1651639D1*
X1155784Y1836793D2*
D45*
X1163389Y1832990D1*
X1171083Y1825297D1*
X1174885Y1813800D1*
Y1806195D1*
X1171083Y1794699D1*
X1163389Y1787094D1*
X1155784Y1783203D1*
X1144288D1*
X1136595Y1787094D1*
X1128990Y1794699D1*
X1125099Y1806195D1*
Y1813800D1*
X1128990Y1825297D1*
X1136595Y1832990D1*
X1144288Y1836793D1*
X1155784D1*
X1107601D2*
Y1783203D1*
Y1821494D2*
X1096105Y1832990D1*
X1088411Y1836793D1*
X1077004D1*
X1069310Y1832990D1*
X1065508Y1821494D1*
Y1783203D1*
X1048010Y1863587D2*
Y1783203D1*
X1026621Y1836793D2*
X1003717Y1783203D1*
X1011322Y1767905D1*
X1019016Y1760211D1*
X1026621Y1756409D1*
X1030512D1*
X980725Y1836793D2*
X1003717Y1783203D1*
X862073Y1863587D2*
X869679D1*
X877372Y1859785D1*
X881175Y1848289D1*
Y1783203D1*
X892671Y1836793D2*
X865876D1*
X825475D2*
X833080Y1832990D1*
X840773Y1825297D1*
X844576Y1813800D1*
Y1806195D1*
X840773Y1794699D1*
X833080Y1787094D1*
X825475Y1783203D1*
X813978D1*
X806285Y1787094D1*
X798680Y1794699D1*
X794789Y1806195D1*
Y1813800D1*
X798680Y1825297D1*
X806285Y1832990D1*
X813978Y1836793D1*
X825475D1*
X777291D2*
Y1783203D1*
Y1813800D2*
X773400Y1825297D1*
X765795Y1832990D1*
X758101Y1836793D1*
X746605D1*
X1125184Y1603702D2*
D47*
X1127751Y1609473D1*
X1135511Y1612324D1*
X1143271D1*
X1151030Y1609473D1*
X1153597Y1603702D1*
X1151030Y1597999D1*
X1145837Y1595080D1*
X1132944Y1592228D1*
X1127751Y1589377D1*
X1125184Y1583606D1*
Y1580754D1*
X1127751Y1575051D1*
X1135511Y1572132D1*
X1143271D1*
X1151030Y1575051D1*
X1153597Y1580754D1*
X1082334Y1603702D2*
X1087527Y1609473D1*
X1092720Y1612324D1*
X1100420D1*
X1105613Y1609473D1*
X1110747Y1603702D1*
X1113373Y1595080D1*
Y1589377D1*
X1110747Y1580754D1*
X1105613Y1575051D1*
X1100420Y1572132D1*
X1092720D1*
X1087527Y1575051D1*
X1082334Y1580754D1*
X1070523Y1632420D2*
Y1572132D1*
Y1600850D2*
X1062763Y1609473D1*
X1057570Y1612324D1*
X1049810D1*
X1044677Y1609473D1*
X1042110Y1600850D1*
Y1572132D1*
X1030299Y1595080D2*
X999319D1*
Y1600850D1*
X1001886Y1606621D1*
X1004453Y1609473D1*
X1009646Y1612324D1*
X1017406D1*
X1022539Y1609473D1*
X1027732Y1603702D1*
X1030299Y1595080D1*
Y1589377D1*
X1027732Y1580754D1*
X1022539Y1575051D1*
X1017406Y1572132D1*
X1009646D1*
X1004453Y1575051D1*
X999319Y1580754D1*
X987508Y1612324D2*
Y1572132D1*
Y1600850D2*
X979748Y1609473D1*
X974555Y1612324D1*
X966855D1*
X961662Y1609473D1*
X959095Y1600850D1*
Y1572132D1*
Y1600850D2*
X951335Y1609473D1*
X946142Y1612324D1*
X938442D1*
X933249Y1609473D1*
X930623Y1600850D1*
Y1572132D1*
X887832Y1612324D2*
Y1572132D1*
Y1603702D2*
X892965Y1609473D1*
X898158Y1612324D1*
X905859D1*
X911052Y1609473D1*
X916185Y1603702D1*
X918811Y1595080D1*
Y1589377D1*
X916185Y1580754D1*
X911052Y1575051D1*
X905859Y1572132D1*
X898158D1*
X892965Y1575051D1*
X887832Y1580754D1*
X868261Y1632420D2*
Y1583606D1*
X865694Y1575051D1*
X860501Y1572132D1*
X855368D1*
X876021Y1612324D2*
X857934D1*
X843557Y1632420D2*
X840990Y1629569D1*
X838364Y1632420D1*
X840990Y1635339D1*
X843557Y1632420D1*
X840990Y1612324D2*
Y1572132D1*
X795513Y1603702D2*
X800706Y1609473D1*
X805899Y1612324D1*
X813600D1*
X818793Y1609473D1*
X823926Y1603702D1*
X826552Y1595080D1*
Y1589377D1*
X823926Y1580754D1*
X818793Y1575051D1*
X813600Y1572132D1*
X805899D1*
X800706Y1575051D1*
X795513Y1580754D1*
M02*
