M48
INCH
T01C0.022
T02C0.0276
T03C0.0354
T04C0.1181
%
T01
X+022937Y+017812
X+023687Y+017062
X+024937Y+016312
X+024937Y+015062
X+023687Y+015062
X+020687Y+015062
X+020687Y+017062
X+020687Y+018562
X+022937Y+019562
X+023687Y+018562
X+025937Y+017812
X+025937Y+019562
X+025937Y+021312
X+028937Y+021312
X+027937Y+016312
X+027937Y+015062
X+021687Y+012312
X+019437Y+010562
X+018687Y+012312
X+016687Y+010562
X+013937Y+010562
X+011187Y+010562
X+011187Y+007562
X+013937Y+007562
X+016687Y+007562
X+019437Y+007562
T02
X+016187Y+013562
X+017187Y+013562
X+018187Y+013562
X+019187Y+013562
X+020187Y+013562
X+021187Y+013562
X+020937Y+011562
X+020937Y+010562
X+020937Y+009562
X+018187Y+009562
X+018187Y+010562
X+018187Y+011562
X+015437Y+011562
X+015437Y+010562
X+015437Y+009562
X+012687Y+009562
X+012687Y+010562
X+012687Y+011562
X+007562Y+013062
X+007562Y+013562
X+007562Y+014062
X+016187Y+019562
X+017187Y+019562
X+018187Y+019562
X+019187Y+019562
X+020187Y+019562
X+021187Y+019562
X+037437Y+019312
X+037437Y+016312
X+039437Y+016312
X+037437Y+014062
X+037437Y+011062
X+039437Y+011062
X+037437Y+008812
X+037437Y+005812
X+039437Y+005812
T03
X+023687Y+011062
X+023687Y+009062
X+025437Y+008812
X+027437Y+008812
X+028937Y+010562
X+028937Y+011562
X+030437Y+011312
X+030437Y+012312
X+030437Y+013312
X+030437Y+014312
X+030437Y+015312
X+030437Y+016312
X+030437Y+017312
X+030437Y+018312
X+030437Y+019312
X+030437Y+021312
X+032437Y+021312
X+033437Y+019312
X+033437Y+018312
X+033437Y+017312
X+033437Y+016312
X+033437Y+015312
X+033437Y+014312
X+033437Y+013312
X+033437Y+012312
X+033437Y+011312
X+033437Y+010312
X+033437Y+009312
X+033437Y+008312
X+033437Y+007312
X+033437Y+006312
X+030437Y+006312
X+030437Y+007312
X+030437Y+008312
X+030437Y+009312
X+030437Y+010312
X+039437Y+008812
X+039437Y+014062
X+039437Y+019312
X+007562Y+016062
X+005562Y+016062
X+005812Y+019062
X+006812Y+019062
X+007562Y+011062
X+007562Y+009187
X+006562Y+009187
X+005562Y+011062
T04
X+006062Y+006187
X+006062Y+021562
X+041187Y+021562
X+041187Y+006187
T00
M30
