G04 DipTrace 3.3.1.3*
G04 TopMask.gbr*
%MOIN*%
G04 #@! TF.FileFunction,Soldermask,Top*
G04 #@! TF.Part,Single*
%AMOUTLINE7*
4,1,8,
0.031158,-0.023622,
0.043307,-0.011473,
0.043307,0.011473,
0.031158,0.023622,
-0.031158,0.023622,
-0.043307,0.011473,
-0.043307,-0.011473,
-0.031158,-0.023622,
0.031158,-0.023622,
0*%
%AMOUTLINE10*
4,1,8,
-0.031158,0.023622,
-0.043307,0.011473,
-0.043307,-0.011473,
-0.031158,-0.023622,
0.031158,-0.023622,
0.043307,-0.011473,
0.043307,0.011473,
0.031158,0.023622,
-0.031158,0.023622,
0*%
%ADD24C,0.11811*%
%ADD30C,0.057874*%
%ADD32C,0.057874*%
%ADD34O,0.086614X0.047244*%
%ADD36C,0.066929*%
%ADD38R,0.066929X0.066929*%
%ADD40R,0.070866X0.070866*%
%ADD42C,0.070866*%
%ADD55OUTLINE7*%
%ADD58OUTLINE10*%
%FSLAX26Y26*%
G04*
G70*
G90*
G75*
G01*
G04 TopMask*
%LPD*%
D42*
X2368701Y1106201D3*
D40*
Y906201D3*
D42*
X2543701Y881201D3*
D40*
X2743701D3*
D42*
X556201Y1606201D3*
D40*
X756201D3*
D42*
X556201Y1106201D3*
D40*
X756201D3*
X656201Y918701D3*
D42*
X756201D3*
X3243701Y2131201D3*
D40*
X3043701D3*
D24*
X606201Y618701D3*
Y2156201D3*
X4118701Y618701D3*
Y2156201D3*
D38*
X681201Y1906201D3*
D36*
X581201D3*
X1618701Y1356201D3*
X1718701D3*
X1818701D3*
X1918701D3*
X2018701D3*
X1618701Y1956201D3*
X1718701D3*
X1818701D3*
X1918701D3*
X2018701D3*
X2118701Y1356201D3*
Y1956201D3*
D55*
X1818701Y1156201D3*
D34*
Y1056201D3*
Y956201D3*
D55*
X1543701Y1156201D3*
D34*
Y1056201D3*
Y956201D3*
D55*
X1268701Y1156201D3*
D34*
Y1056201D3*
Y956201D3*
D55*
X2093701Y1156201D3*
D34*
Y1056201D3*
Y956201D3*
D38*
X2893701Y1156201D3*
D36*
Y1056201D3*
D32*
X2293701Y1781201D3*
D30*
X2593701D3*
D32*
X2293701Y1956201D3*
D30*
X2593701D3*
D32*
X2493701Y1631201D3*
D30*
X2793701D3*
D32*
X2493701Y1506201D3*
D30*
X2793701D3*
D32*
X2068701Y1706201D3*
D30*
X2368701D3*
D32*
X2068701Y1856201D3*
D30*
X2368701D3*
D32*
X2068701Y1506201D3*
D30*
X2368701D3*
D32*
X1868701Y1231201D3*
D30*
X2168701D3*
D32*
X1668701Y756201D3*
D30*
Y1056201D3*
D32*
X1393701Y756201D3*
D30*
Y1056201D3*
D32*
X1118701Y756201D3*
D30*
Y1056201D3*
D32*
X1943701Y756201D3*
D30*
Y1056201D3*
D32*
X2893701Y2131201D3*
D30*
X2593701D3*
D38*
X3943701Y881201D3*
D36*
X3743701D3*
Y581201D3*
X3943701D3*
D38*
Y1406201D3*
D36*
X3743701D3*
Y1106201D3*
X3943701D3*
D38*
Y1931201D3*
D36*
X3743701D3*
Y1631201D3*
X3943701D3*
D40*
X3043701Y1931201D3*
D42*
Y1831201D3*
Y1731201D3*
Y1631201D3*
Y1531201D3*
Y1431201D3*
Y1331201D3*
Y1231201D3*
Y1131201D3*
Y1031201D3*
Y931201D3*
Y831201D3*
Y731201D3*
Y631201D3*
X3343701D3*
Y731201D3*
Y831201D3*
Y931201D3*
Y1031201D3*
Y1131201D3*
Y1231201D3*
Y1331201D3*
Y1431201D3*
Y1531201D3*
Y1631201D3*
Y1731201D3*
Y1831201D3*
Y1931201D3*
D58*
X756201Y1306201D3*
D34*
Y1356201D3*
Y1406201D3*
M02*
