G04 DipTrace 3.3.1.3*
G04 BottomSilk.gbr*
%MOIN*%
G04 #@! TF.FileFunction,Legend,Bot*
G04 #@! TF.Part,Single*
%ADD44C,0.00772*%
%FSLAX26Y26*%
G04*
G70*
G90*
G75*
G01*
G04 BotSilk*
%LPD*%
X612198Y1490232D2*
D44*
X614575Y1494986D1*
X619383Y1499794D1*
X624137Y1502171D1*
X633698D1*
X638507Y1499794D1*
X643260Y1494986D1*
X645692Y1490232D1*
X648068Y1483047D1*
Y1471054D1*
X645692Y1463924D1*
X643260Y1459116D1*
X638507Y1454362D1*
X633698Y1451931D1*
X624137D1*
X619383Y1454362D1*
X614575Y1459116D1*
X612198Y1463924D1*
Y1471054D1*
X624137D1*
X563266Y1502171D2*
Y1451931D1*
X596759Y1502171D1*
Y1451931D1*
X547827Y1502171D2*
Y1451931D1*
X531080D1*
X523895Y1454362D1*
X519086Y1459116D1*
X516710Y1463924D1*
X514333Y1471054D1*
Y1483047D1*
X516710Y1490232D1*
X519086Y1494986D1*
X523895Y1499794D1*
X531080Y1502171D1*
X547827D1*
X3558606Y1101931D2*
Y1152171D1*
X3577730Y1101931D1*
X3596853Y1152171D1*
Y1101931D1*
X3543167Y1152171D2*
Y1101931D1*
X3494234Y1144986D2*
X3498988Y1149794D1*
X3506173Y1152171D1*
X3515734D1*
X3522919Y1149794D1*
X3527728Y1144986D1*
Y1140232D1*
X3525296Y1135424D1*
X3522919Y1133047D1*
X3518166Y1130671D1*
X3503796Y1125862D1*
X3498988Y1123486D1*
X3496611Y1121054D1*
X3494234Y1116301D1*
Y1109116D1*
X3498988Y1104362D1*
X3506173Y1101931D1*
X3515734D1*
X3522919Y1104362D1*
X3527728Y1109116D1*
X3464425Y1152171D2*
X3469234Y1149794D1*
X3473987Y1144986D1*
X3476419Y1140232D1*
X3478795Y1133047D1*
Y1121054D1*
X3476419Y1113924D1*
X3473987Y1109116D1*
X3469234Y1104362D1*
X3464425Y1101931D1*
X3454864D1*
X3450110Y1104362D1*
X3445302Y1109116D1*
X3442925Y1113924D1*
X3440549Y1121054D1*
Y1133047D1*
X3442925Y1140232D1*
X3445302Y1144986D1*
X3450110Y1149794D1*
X3454864Y1152171D1*
X3464425D1*
X3558606Y851931D2*
Y902171D1*
X3577730Y851931D1*
X3596853Y902171D1*
Y851931D1*
X3528797Y902171D2*
X3533605Y899794D1*
X3538359Y894986D1*
X3540790Y890232D1*
X3543167Y883047D1*
Y871054D1*
X3540790Y863924D1*
X3538359Y859116D1*
X3533605Y854362D1*
X3528797Y851931D1*
X3519235D1*
X3514482Y854362D1*
X3509674Y859116D1*
X3507297Y863924D1*
X3504921Y871054D1*
Y883047D1*
X3507297Y890232D1*
X3509674Y894986D1*
X3514482Y899794D1*
X3519235Y902171D1*
X3528797D1*
X3455988Y894986D2*
X3460741Y899794D1*
X3467926Y902171D1*
X3477488D1*
X3484673Y899794D1*
X3489481Y894986D1*
Y890232D1*
X3487049Y885424D1*
X3484673Y883047D1*
X3479920Y880671D1*
X3465550Y875862D1*
X3460741Y873486D1*
X3458365Y871054D1*
X3455988Y866301D1*
Y859116D1*
X3460741Y854362D1*
X3467926Y851931D1*
X3477488D1*
X3484673Y854362D1*
X3489481Y859116D1*
X3440549Y902171D2*
Y851931D1*
X3042727Y2153239D2*
X3021227D1*
X3014042Y2155671D1*
X3011610Y2158047D1*
X3009233Y2162801D1*
Y2167609D1*
X3011610Y2172362D1*
X3014042Y2174794D1*
X3021227Y2177171D1*
X3042727D1*
Y2126931D1*
X3025980Y2153239D2*
X3009233Y2126931D1*
X2993794Y2146054D2*
X2965109D1*
Y2150862D1*
X2967486Y2155671D1*
X2969862Y2158047D1*
X2974671Y2160424D1*
X2981856D1*
X2986609Y2158047D1*
X2991417Y2153239D1*
X2993794Y2146054D1*
Y2141301D1*
X2991417Y2134116D1*
X2986609Y2129362D1*
X2981856Y2126931D1*
X2974671D1*
X2969862Y2129362D1*
X2965109Y2134116D1*
X2923362Y2153239D2*
X2925738Y2158047D1*
X2932923Y2160424D1*
X2940108D1*
X2947293Y2158047D1*
X2949670Y2153239D1*
X2947293Y2148486D1*
X2942485Y2146054D1*
X2930547Y2143677D1*
X2925738Y2141301D1*
X2923362Y2136492D1*
Y2134116D1*
X2925738Y2129362D1*
X2932923Y2126931D1*
X2940108D1*
X2947293Y2129362D1*
X2949670Y2134116D1*
X2907922Y2146054D2*
X2879237D1*
Y2150862D1*
X2881614Y2155671D1*
X2883991Y2158047D1*
X2888799Y2160424D1*
X2895984D1*
X2900737Y2158047D1*
X2905546Y2153239D1*
X2907922Y2146054D1*
Y2141301D1*
X2905546Y2134116D1*
X2900737Y2129362D1*
X2895984Y2126931D1*
X2888799D1*
X2883991Y2129362D1*
X2879237Y2134116D1*
X2856613Y2177171D2*
Y2136492D1*
X2854237Y2129362D1*
X2849428Y2126931D1*
X2844675D1*
X2863798Y2160424D2*
X2847052D1*
X3552075Y1369986D2*
X3556828Y1374794D1*
X3564013Y1377171D1*
X3573575D1*
X3580760Y1374794D1*
X3585568Y1369986D1*
Y1365232D1*
X3583136Y1360424D1*
X3580760Y1358047D1*
X3576007Y1355671D1*
X3561637Y1350862D1*
X3556828Y1348486D1*
X3554452Y1346054D1*
X3552075Y1341301D1*
Y1334116D1*
X3556828Y1329362D1*
X3564013Y1326931D1*
X3573575D1*
X3580760Y1329362D1*
X3585568Y1334116D1*
X3500766Y1365232D2*
X3503142Y1369986D1*
X3507951Y1374794D1*
X3512704Y1377171D1*
X3522266D1*
X3527074Y1374794D1*
X3531827Y1369986D1*
X3534259Y1365232D1*
X3536636Y1358047D1*
Y1346054D1*
X3534259Y1338924D1*
X3531827Y1334116D1*
X3527074Y1329362D1*
X3522266Y1326931D1*
X3512704D1*
X3507951Y1329362D1*
X3503142Y1334116D1*
X3500766Y1338924D1*
X3485327Y1377171D2*
Y1326931D1*
X3451833Y1377171D2*
X3485327Y1343677D1*
X3473388Y1355671D2*
X3451833Y1326931D1*
X976633Y1452171D2*
X957510Y1401931D1*
X938387Y1452171D1*
X887078Y1440232D2*
X889454Y1444986D1*
X894263Y1449794D1*
X899016Y1452171D1*
X908577D1*
X913386Y1449794D1*
X918139Y1444986D1*
X920571Y1440232D1*
X922947Y1433047D1*
Y1421054D1*
X920571Y1413924D1*
X918139Y1409116D1*
X913386Y1404362D1*
X908577Y1401931D1*
X899016D1*
X894263Y1404362D1*
X889454Y1409116D1*
X887078Y1413924D1*
X835768Y1440232D2*
X838145Y1444986D1*
X842953Y1449794D1*
X847707Y1452171D1*
X857268D1*
X862077Y1449794D1*
X866830Y1444986D1*
X869262Y1440232D1*
X871638Y1433047D1*
Y1421054D1*
X869262Y1413924D1*
X866830Y1409116D1*
X862077Y1404362D1*
X857268Y1401931D1*
X847707D1*
X842953Y1404362D1*
X838145Y1409116D1*
X835768Y1413924D1*
M02*
