G04 DipTrace 3.3.1.3*
G04 Top.gbr*
%MOIN*%
G04 #@! TF.FileFunction,Copper,L1,Top*
G04 #@! TF.Part,Single*
%AMOUTLINE6*
4,1,8,
-0.029528,0.019685,
-0.03937,0.009843,
-0.03937,-0.009843,
-0.029528,-0.019685,
0.029528,-0.019685,
0.03937,-0.009843,
0.03937,0.009843,
0.029528,0.019685,
-0.029528,0.019685,
0*%
G04 #@! TA.AperFunction,Conductor*
%ADD13C,0.019685*%
G04 #@! TA.AperFunction,ComponentPad*
%ADD17C,0.062992*%
%ADD18R,0.062992X0.062992*%
%ADD19R,0.059055X0.059055*%
%ADD20C,0.059055*%
%ADD21O,0.07874X0.03937*%
%ADD22C,0.05*%
%ADD23C,0.05*%
%ADD54OUTLINE6*%
%FSLAX26Y26*%
G04*
G70*
G90*
G75*
G01*
G04 Top*
%LPD*%
X3943701Y581201D2*
D13*
Y881201D1*
Y1106201D2*
Y1406201D1*
Y1631201D2*
Y1931201D1*
X3743701Y881201D2*
Y581201D1*
Y1406201D2*
Y1106201D1*
Y1631201D2*
Y1931201D1*
D17*
X2368701Y1106201D3*
D18*
Y906201D3*
D17*
X2543701Y881201D3*
D18*
X2743701D3*
D17*
X556201Y1606201D3*
D18*
X756201D3*
D17*
X556201Y1106201D3*
D18*
X756201D3*
X656201Y918701D3*
D17*
X756201D3*
X3243701Y2131201D3*
D18*
X3043701D3*
D19*
X681201Y1906201D3*
D20*
X581201D3*
X1618701Y1356201D3*
X1718701D3*
X1818701D3*
X1918701D3*
X2018701D3*
X1618701Y1956201D3*
X1718701D3*
X1818701D3*
X1918701D3*
X2018701D3*
X2118701Y1356201D3*
Y1956201D3*
D54*
X1818701Y956201D3*
D21*
Y1056201D3*
Y1156201D3*
D54*
X1543701Y956201D3*
D21*
Y1056201D3*
Y1156201D3*
D54*
X1268701Y956201D3*
D21*
Y1056201D3*
Y1156201D3*
D54*
X2093701Y956201D3*
D21*
Y1056201D3*
Y1156201D3*
D19*
X2893701D3*
D20*
Y1056201D3*
D22*
X2293701Y1781201D3*
D23*
X2593701D3*
D22*
X2293701Y1956201D3*
D23*
X2593701D3*
D22*
X2493701Y1631201D3*
D23*
X2793701D3*
D22*
X2493701Y1506201D3*
D23*
X2793701D3*
D22*
X2068701Y1706201D3*
D23*
X2368701D3*
D22*
X2068701Y1856201D3*
D23*
X2368701D3*
D22*
X2068701Y1506201D3*
D23*
X2368701D3*
D22*
X1868701Y1231201D3*
D23*
X2168701D3*
D22*
X1668701Y756201D3*
D23*
Y1056201D3*
D22*
X1393701Y756201D3*
D23*
Y1056201D3*
D22*
X1118701Y756201D3*
D23*
Y1056201D3*
D22*
X1943701Y756201D3*
D23*
Y1056201D3*
D22*
X2893701Y2131201D3*
D23*
X2593701D3*
D19*
X3943701Y881201D3*
D20*
X3743701D3*
Y581201D3*
X3943701D3*
D19*
Y1406201D3*
D20*
X3743701D3*
Y1106201D3*
X3943701D3*
D19*
Y1931201D3*
D20*
X3743701D3*
Y1631201D3*
X3943701D3*
D18*
X3043701Y1931201D3*
D17*
Y1831201D3*
Y1731201D3*
Y1631201D3*
Y1531201D3*
Y1431201D3*
Y1331201D3*
Y1231201D3*
Y1131201D3*
Y1031201D3*
Y931201D3*
Y831201D3*
Y731201D3*
Y631201D3*
X3343701D3*
Y731201D3*
Y831201D3*
Y931201D3*
Y1031201D3*
Y1131201D3*
Y1231201D3*
Y1331201D3*
Y1431201D3*
Y1531201D3*
Y1631201D3*
Y1731201D3*
Y1831201D3*
Y1931201D3*
D54*
X756201Y1306201D3*
D21*
Y1356201D3*
Y1406201D3*
M02*
