G04 DipTrace 3.3.1.3*
G04 TopSilk.gbr*
%MOIN*%
G04 #@! TF.FileFunction,Legend,Top*
G04 #@! TF.Part,Single*
%ADD10C,0.009843*%
%ADD44C,0.00772*%
%FSLAX26Y26*%
G04*
G70*
G90*
G75*
G01*
G04 TopSilk*
%LPD*%
X2308701Y886321D2*
D10*
Y1126081D1*
X2428701Y886321D2*
Y1126081D1*
G03X2308701Y1126081I-60000J120D01*
G01*
Y886321D2*
G03X2428701Y886321I60000J-120D01*
G01*
X2763581Y821201D2*
X2523821D1*
X2763581Y941201D2*
X2523821D1*
G03X2523821Y821201I-120J-60000D01*
G01*
X2763581D2*
G03X2763581Y941201I120J60000D01*
G01*
X776081Y1546201D2*
X536321D1*
X776081Y1666201D2*
X536321D1*
G03X536321Y1546201I-120J-60000D01*
G01*
X776081D2*
G03X776081Y1666201I120J60000D01*
G01*
Y1046201D2*
X536321D1*
X776081Y1166201D2*
X536321D1*
G03X536321Y1046201I-120J-60000D01*
G01*
X776081D2*
G03X776081Y1166201I120J60000D01*
G01*
X576320Y906881D2*
Y930521D1*
X564501Y918701D2*
X588114D1*
X606265D2*
G02X606265Y918701I99965J0D01*
G01*
X3023821Y2191201D2*
X3263581D1*
X3023821Y2071201D2*
X3263581D1*
G03X3263581Y2191201I120J60000D01*
G01*
X3023821D2*
G03X3023821Y2071201I-120J-60000D01*
G01*
X531201Y1956201D2*
Y1856201D1*
X731201Y1956201D2*
X531201D1*
X731201D2*
Y1856201D1*
X531201D1*
X882480Y2029429D2*
X2862795D1*
Y1281398D1*
X882480D1*
Y2029429D1*
X1051797Y1938843D2*
G03X992784Y1860150I34386J-87261D01*
G01*
G36*
X1547866Y1301071D2*
Y1364055D1*
X1610840Y1301071D1*
X1547866D1*
G37*
X949415Y1442823D2*
D10*
X992784Y1856185D1*
X1248641Y1466461D2*
X1288049Y1868004D1*
X1024271Y1682941D2*
X1055758Y1938843D1*
X1244680D2*
G02X1288049Y1868004I-23279J-62947D01*
G01*
X992784Y1375874D2*
G02X949415Y1442823I20868J61039D01*
G01*
X1244680Y1938843D2*
X1217154Y1682941D1*
X1051797Y1938843D2*
X1244680D1*
X992784Y1375874D2*
X1185667D1*
X1024271Y1682941D2*
X972981Y1655413D1*
X1020310Y1627886D2*
X972981Y1655413D1*
X1020310Y1627886D2*
X988823Y1379839D1*
X1020310Y1627886D2*
X1209232D1*
X1264285Y1655413D1*
X1024271Y1682941D2*
X1217154D1*
X1264285Y1655413D1*
X1213193Y1627886D2*
X1185667Y1375874D1*
G03X1248641Y1466461I-52336J103566D01*
G01*
X1051797Y1883787D2*
X1236759D1*
X996744Y1431004D2*
X1189627D1*
X1252601Y1413313D2*
G02X1252601Y1413313I33467J0D01*
G01*
X1543906Y1938843D2*
G03X1484892Y1860150I34386J-87261D01*
G01*
X1441523Y1442823D2*
X1484892Y1856185D1*
X1740749Y1466461D2*
X1780157Y1868004D1*
X1516379Y1682941D2*
X1547866Y1938843D1*
X1736788D2*
G02X1780157Y1868004I-23279J-62947D01*
G01*
X1484892Y1375874D2*
G02X1441523Y1442823I20868J61039D01*
G01*
X1736788Y1938843D2*
X1709262Y1682941D1*
X1543906Y1938843D2*
X1736788D1*
X1484892Y1375874D2*
X1677775D1*
X1516379Y1682941D2*
X1465089Y1655413D1*
X1512419Y1627886D2*
X1465089Y1655413D1*
X1512419Y1627886D2*
X1480931Y1379839D1*
X1512419Y1627886D2*
X1701341D1*
X1756591Y1655413D1*
X1516379Y1682941D2*
X1709262D1*
X1756591Y1655413D1*
X1705301Y1627886D2*
X1677775Y1375874D1*
G03X1740749Y1466461I-52336J103566D01*
G01*
X1543906Y1883787D2*
X1728867D1*
X1488853Y1431004D2*
X1681735D1*
X1744709Y1413313D2*
G02X1744709Y1413313I33467J0D01*
G01*
X2043935Y1938843D2*
G03X1984922Y1860150I32773J-86051D01*
G01*
X1941553Y1442823D2*
X1984922Y1856185D1*
X2240778Y1466461D2*
X2280187Y1868004D1*
X2016409Y1682941D2*
X2047896Y1938843D1*
X2236818D2*
G02X2280187Y1868004I-23279J-62947D01*
G01*
X1984922Y1375874D2*
G02X1941553Y1442823I20868J61039D01*
G01*
X2236818Y1938843D2*
X2209291Y1682941D1*
X2043935Y1938843D2*
X2236818D1*
X1984922Y1375874D2*
X2177804D1*
X2016409Y1682941D2*
X1965119Y1655413D1*
X2012448Y1627886D2*
X1965119Y1655413D1*
X2012448Y1627886D2*
X1980961Y1379839D1*
X2012448Y1627886D2*
X2201370D1*
X2256423Y1655413D1*
X2016409Y1682941D2*
X2209291D1*
X2256423Y1655413D1*
X2205331Y1627886D2*
X2177804Y1375874D1*
G03X2240778Y1466461I-52336J103566D01*
G01*
X2043935Y1883787D2*
X2228896D1*
X1988684Y1431004D2*
X2181765D1*
X2244739Y1413313D2*
G02X2244739Y1413313I33467J0D01*
G01*
X2543965Y1938843D2*
G03X2484753Y1860150I34031J-87229D01*
G01*
X2441582Y1442823D2*
X2484753Y1856185D1*
X2740808Y1466461D2*
X2780216Y1868004D1*
X2516240Y1682941D2*
X2547925Y1938843D1*
X2736847D2*
G02X2780216Y1868004I-23279J-62947D01*
G01*
X2484753Y1375874D2*
G02X2441582Y1442823I21162J61039D01*
G01*
X2736847Y1938843D2*
X2709321Y1682941D1*
X2543965Y1938843D2*
X2736847D1*
X2484753Y1375874D2*
X2677834D1*
X2516240Y1682941D2*
X2465148Y1655413D1*
X2512478Y1627886D2*
X2465148Y1655413D1*
X2512478Y1627886D2*
X2480991Y1379839D1*
X2512478Y1627886D2*
X2701400D1*
X2756452Y1655413D1*
X2516240Y1682941D2*
X2709321D1*
X2756452Y1655413D1*
X2705360Y1627886D2*
X2677834Y1375874D1*
G03X2740808Y1466461I-52336J103566D01*
G01*
X2543965Y1883787D2*
X2728926D1*
X2488714Y1431004D2*
X2681596D1*
X2744769Y1413313D2*
G02X2744769Y1413313I33467J0D01*
G01*
X1775392Y953846D2*
G02X1775392Y1158555I57324J102355D01*
G01*
X1877756Y1127078D2*
Y981398D1*
X1862008Y953846D2*
X1877756D1*
Y981398D1*
X1862008Y1158555D2*
X1877756D1*
Y1123129D1*
X1500392Y953846D2*
G02X1500392Y1158555I57324J102355D01*
G01*
X1602756Y1127078D2*
Y981398D1*
X1587008Y953846D2*
X1602756D1*
Y981398D1*
X1587008Y1158555D2*
X1602756D1*
Y1123129D1*
X1225392Y953846D2*
G02X1225392Y1158555I57324J102355D01*
G01*
X1327756Y1127078D2*
Y981398D1*
X1312008Y953846D2*
X1327756D1*
Y981398D1*
X1312008Y1158555D2*
X1327756D1*
Y1123129D1*
X2050392Y953846D2*
G02X2050392Y1158555I57324J102355D01*
G01*
X2152756Y1127078D2*
Y981398D1*
X2137008Y953846D2*
X2152756D1*
Y981398D1*
X2137008Y1158555D2*
X2152756D1*
Y1123129D1*
X2776774Y1038093D2*
X2461811D1*
Y1156208D1*
X2776774D1*
Y1038093D1*
X2859460Y1053840D2*
X2776774D1*
X2863383Y1148334D2*
X2776774D1*
X2363551Y1811201D2*
Y1751201D1*
X2523851Y1811201D2*
X2363551D1*
X2523851D2*
Y1751201D1*
X2363551D1*
Y1986201D2*
Y1926201D1*
X2523851Y1986201D2*
X2363551D1*
X2523851D2*
Y1926201D1*
X2363551D1*
X2563551Y1661201D2*
Y1601201D1*
X2723851Y1661201D2*
X2563551D1*
X2723851D2*
Y1601201D1*
X2563551D1*
Y1536201D2*
Y1476201D1*
X2723851Y1536201D2*
X2563551D1*
X2723851D2*
Y1476201D1*
X2563551D1*
X2138551Y1736201D2*
Y1676201D1*
X2298851Y1736201D2*
X2138551D1*
X2298851D2*
Y1676201D1*
X2138551D1*
Y1886201D2*
Y1826201D1*
X2298851Y1886201D2*
X2138551D1*
X2298851D2*
Y1826201D1*
X2138551D1*
Y1536201D2*
Y1476201D1*
X2298851Y1536201D2*
X2138551D1*
X2298851D2*
Y1476201D1*
X2138551D1*
X1938551Y1261201D2*
Y1201201D1*
X2098851Y1261201D2*
X1938551D1*
X2098851D2*
Y1201201D1*
X1938551D1*
X1638701Y826051D2*
X1698701D1*
X1638701Y986351D2*
Y826051D1*
Y986351D2*
X1698701D1*
Y826051D1*
X1363701D2*
X1423701D1*
X1363701Y986351D2*
Y826051D1*
Y986351D2*
X1423701D1*
Y826051D1*
X1088701D2*
X1148701D1*
X1088701Y986351D2*
Y826051D1*
Y986351D2*
X1148701D1*
Y826051D1*
X1913701D2*
X1973701D1*
X1913701Y986351D2*
Y826051D1*
Y986351D2*
X1973701D1*
Y826051D1*
X2823851Y2101201D2*
Y2161201D1*
X2663551Y2101201D2*
X2823851D1*
X2663551D2*
Y2161201D1*
X2823851D1*
X3725598Y829618D2*
Y632784D1*
X3969679Y833567D2*
X3725598D1*
X3969679Y628834D2*
X3725598D1*
X3969679Y833531D2*
Y628834D1*
X3768886Y727269D2*
G02X3768886Y727269I70877J0D01*
G01*
X3745286Y829618D2*
Y632784D1*
X3949991Y829618D2*
Y632784D1*
X3946053Y731201D2*
X3902765D1*
X3816137D2*
X3745286D1*
X3863389D2*
X3902765D1*
X3812200Y695762D2*
X3867327D1*
X3816137Y715438D2*
Y731201D1*
X3863389Y715438D2*
Y731201D1*
X3839763Y695762D2*
Y680035D1*
X3827950Y676086D2*
X3851576D1*
X3725598Y1354618D2*
Y1157784D1*
X3969679Y1358567D2*
X3725598D1*
X3969679Y1153834D2*
X3725598D1*
X3969679Y1358531D2*
Y1153834D1*
X3768886Y1252269D2*
G02X3768886Y1252269I70877J0D01*
G01*
X3745286Y1354618D2*
Y1157784D1*
X3949991Y1354618D2*
Y1157784D1*
X3946053Y1256201D2*
X3902765D1*
X3816137D2*
X3745286D1*
X3863389D2*
X3902765D1*
X3812200Y1220762D2*
X3867327D1*
X3816137Y1240438D2*
Y1256201D1*
X3863389Y1240438D2*
Y1256201D1*
X3839763Y1220762D2*
Y1205035D1*
X3827950Y1201086D2*
X3851576D1*
X3725598Y1879618D2*
Y1682784D1*
X3969679Y1883567D2*
X3725598D1*
X3969679Y1678834D2*
X3725598D1*
X3969679Y1883531D2*
Y1678834D1*
X3768886Y1777269D2*
G02X3768886Y1777269I70877J0D01*
G01*
X3745286Y1879618D2*
Y1682784D1*
X3949991Y1879618D2*
Y1682784D1*
X3946053Y1781201D2*
X3902765D1*
X3816137D2*
X3745286D1*
X3863389D2*
X3902765D1*
X3812200Y1745762D2*
X3867327D1*
X3816137Y1765438D2*
Y1781201D1*
X3863389Y1765438D2*
Y1781201D1*
X3839763Y1745762D2*
Y1730035D1*
X3827950Y1726086D2*
X3851576D1*
X3091337Y1989862D2*
Y572539D1*
X3296065Y1989862D2*
Y572539D1*
X3091337D2*
X3296065D1*
X3091337Y1989862D2*
X3170070D1*
X3296065D2*
X3217332D1*
X3170070D2*
G03X3217332Y1989862I23631J103D01*
G01*
X828093Y1280580D2*
G02X828093Y1431821I-66569J75620D01*
G01*
Y1280580D1*
X2372919Y1247486D2*
D44*
X2370543Y1252239D1*
X2365734Y1257047D1*
X2360981Y1259424D1*
X2351420D1*
X2346611Y1257047D1*
X2341858Y1252239D1*
X2339426Y1247486D1*
X2337049Y1240301D1*
Y1228307D1*
X2339426Y1221177D1*
X2341858Y1216369D1*
X2346611Y1211616D1*
X2351420Y1209184D1*
X2360981D1*
X2365734Y1211616D1*
X2370543Y1216369D1*
X2372919Y1221177D1*
X2388359Y1249807D2*
X2393167Y1252239D1*
X2400352Y1259369D1*
Y1209184D1*
X2637169Y1002486D2*
X2634793Y1007239D1*
X2629984Y1012047D1*
X2625231Y1014424D1*
X2615670D1*
X2610861Y1012047D1*
X2606108Y1007239D1*
X2603676Y1002486D1*
X2601300Y995301D1*
Y983307D1*
X2603676Y976177D1*
X2606108Y971369D1*
X2610861Y966616D1*
X2615670Y964184D1*
X2625231D1*
X2629984Y966616D1*
X2634793Y971369D1*
X2637169Y976177D1*
X2655041Y1002430D2*
Y1004807D1*
X2657417Y1009616D1*
X2659794Y1011992D1*
X2664602Y1014369D1*
X2674164D1*
X2678917Y1011992D1*
X2681294Y1009616D1*
X2683725Y1004807D1*
Y1000054D1*
X2681294Y995245D1*
X2676540Y988116D1*
X2652609Y964184D1*
X2686102D1*
X649669Y1727486D2*
X647293Y1732239D1*
X642484Y1737047D1*
X637731Y1739424D1*
X628170D1*
X623361Y1737047D1*
X618608Y1732239D1*
X616176Y1727486D1*
X613800Y1720301D1*
Y1708307D1*
X616176Y1701177D1*
X618608Y1696369D1*
X623361Y1691616D1*
X628170Y1689184D1*
X637731D1*
X642484Y1691616D1*
X647293Y1696369D1*
X649669Y1701177D1*
X669917Y1739369D2*
X696170D1*
X681855Y1720245D1*
X689040D1*
X693794Y1717869D1*
X696170Y1715492D1*
X698602Y1708307D1*
Y1703554D1*
X696170Y1696369D1*
X691417Y1691561D1*
X684232Y1689184D1*
X677047D1*
X669917Y1691561D1*
X667541Y1693992D1*
X665109Y1698746D1*
X648481Y1227486D2*
X646105Y1232239D1*
X641296Y1237047D1*
X636543Y1239424D1*
X626981D1*
X622173Y1237047D1*
X617420Y1232239D1*
X614988Y1227486D1*
X612611Y1220301D1*
Y1208307D1*
X614988Y1201177D1*
X617420Y1196369D1*
X622173Y1191616D1*
X626981Y1189184D1*
X636543D1*
X641296Y1191616D1*
X646105Y1196369D1*
X648481Y1201177D1*
X687852Y1189184D2*
Y1239369D1*
X663920Y1205931D1*
X699790D1*
X678816Y1079986D2*
X676440Y1084739D1*
X671631Y1089547D1*
X666878Y1091924D1*
X657317D1*
X652508Y1089547D1*
X647755Y1084739D1*
X645323Y1079986D1*
X642947Y1072801D1*
Y1060807D1*
X645323Y1053677D1*
X647755Y1048869D1*
X652508Y1044116D1*
X657317Y1041684D1*
X666878D1*
X671631Y1044116D1*
X676440Y1048869D1*
X678816Y1053677D1*
X722941Y1091869D2*
X699064D1*
X696688Y1070369D1*
X699064Y1072745D1*
X706249Y1075177D1*
X713379D1*
X720564Y1072745D1*
X725372Y1067992D1*
X727749Y1060807D1*
Y1056054D1*
X725372Y1048869D1*
X720564Y1044060D1*
X713379Y1041684D1*
X706249D1*
X699064Y1044060D1*
X696688Y1046492D1*
X694256Y1051245D1*
X3138385Y2252486D2*
X3136009Y2257239D1*
X3131200Y2262047D1*
X3126447Y2264424D1*
X3116886D1*
X3112077Y2262047D1*
X3107324Y2257239D1*
X3104892Y2252486D1*
X3102515Y2245301D1*
Y2233307D1*
X3104892Y2226177D1*
X3107324Y2221369D1*
X3112077Y2216616D1*
X3116886Y2214184D1*
X3126447D1*
X3131200Y2216616D1*
X3136009Y2221369D1*
X3138385Y2226177D1*
X3182510Y2257239D2*
X3180133Y2261992D1*
X3172948Y2264369D1*
X3168195D1*
X3161010Y2261992D1*
X3156201Y2254807D1*
X3153825Y2242869D1*
Y2230931D1*
X3156201Y2221369D1*
X3161010Y2216561D1*
X3168195Y2214184D1*
X3170571D1*
X3177701Y2216561D1*
X3182510Y2221369D1*
X3184886Y2228554D1*
Y2230931D1*
X3182510Y2238116D1*
X3177701Y2242869D1*
X3170571Y2245245D1*
X3168195D1*
X3161010Y2242869D1*
X3156201Y2238116D1*
X3153825Y2230931D1*
X629450Y2029424D2*
Y1991177D1*
X627074Y1983992D1*
X624642Y1981616D1*
X619889Y1979184D1*
X615080D1*
X610327Y1981616D1*
X607950Y1983992D1*
X605519Y1991177D1*
Y1995931D1*
X644890Y2019807D2*
X649698Y2022239D1*
X656883Y2029369D1*
Y1979184D1*
X1820113Y2102652D2*
Y2052412D1*
X1848798D1*
X1864237Y2102652D2*
Y2052412D1*
X1880983D1*
X1888169Y2054844D1*
X1892977Y2059597D1*
X1895354Y2064406D1*
X1897730Y2071535D1*
Y2083529D1*
X1895354Y2090714D1*
X1892977Y2095467D1*
X1888169Y2100276D1*
X1880983Y2102652D1*
X1864237D1*
X1913169Y2093035D2*
X1917978Y2095467D1*
X1925163Y2102597D1*
Y2052412D1*
X1778082Y1249109D2*
X1773328Y1246788D1*
X1768520Y1241979D1*
X1766143Y1237171D1*
X1763711Y1229986D1*
Y1218047D1*
X1766143Y1210862D1*
X1768520Y1206109D1*
X1773328Y1201301D1*
X1778082Y1198924D1*
X1787643D1*
X1792452Y1201301D1*
X1797205Y1206109D1*
X1799581Y1210862D1*
X1802013Y1218047D1*
Y1229986D1*
X1799581Y1237171D1*
X1797205Y1241979D1*
X1792452Y1246788D1*
X1787643Y1249109D1*
X1778082D1*
X1785267Y1208486D2*
X1799581Y1194116D1*
X1817453Y1239492D2*
X1822261Y1241924D1*
X1829446Y1249054D1*
Y1198869D1*
X1492332Y1249109D2*
X1487578Y1246788D1*
X1482770Y1241979D1*
X1480393Y1237171D1*
X1477962Y1229986D1*
Y1218047D1*
X1480393Y1210862D1*
X1482770Y1206109D1*
X1487578Y1201301D1*
X1492332Y1198924D1*
X1501893D1*
X1506702Y1201301D1*
X1511455Y1206109D1*
X1513831Y1210862D1*
X1516263Y1218047D1*
Y1229986D1*
X1513831Y1237171D1*
X1511455Y1241979D1*
X1506702Y1246788D1*
X1501893Y1249109D1*
X1492332D1*
X1499517Y1208486D2*
X1513831Y1194116D1*
X1534134Y1237115D2*
Y1239492D1*
X1536511Y1244300D1*
X1538888Y1246677D1*
X1543696Y1249054D1*
X1553258D1*
X1558011Y1246677D1*
X1560387Y1244300D1*
X1562819Y1239492D1*
Y1234739D1*
X1560387Y1229930D1*
X1555634Y1222801D1*
X1531703Y1198869D1*
X1565196D1*
X1217332Y1249109D2*
X1212578Y1246788D1*
X1207770Y1241979D1*
X1205393Y1237171D1*
X1202962Y1229986D1*
Y1218047D1*
X1205393Y1210862D1*
X1207770Y1206109D1*
X1212578Y1201301D1*
X1217332Y1198924D1*
X1226893D1*
X1231702Y1201301D1*
X1236455Y1206109D1*
X1238831Y1210862D1*
X1241263Y1218047D1*
Y1229986D1*
X1238831Y1237171D1*
X1236455Y1241979D1*
X1231702Y1246788D1*
X1226893Y1249109D1*
X1217332D1*
X1224517Y1208486D2*
X1238831Y1194116D1*
X1261511Y1249054D2*
X1287764D1*
X1273449Y1229930D1*
X1280634D1*
X1285387Y1227554D1*
X1287764Y1225177D1*
X1290196Y1217992D1*
Y1213239D1*
X1287764Y1206054D1*
X1283011Y1201245D1*
X1275826Y1198869D1*
X1268641D1*
X1261511Y1201245D1*
X1259134Y1203677D1*
X1256703Y1208431D1*
X2041143Y1249109D2*
X2036390Y1246788D1*
X2031582Y1241979D1*
X2029205Y1237171D1*
X2026773Y1229986D1*
Y1218047D1*
X2029205Y1210862D1*
X2031582Y1206109D1*
X2036390Y1201301D1*
X2041143Y1198924D1*
X2050705D1*
X2055513Y1201301D1*
X2060267Y1206109D1*
X2062643Y1210862D1*
X2065075Y1218047D1*
Y1229986D1*
X2062643Y1237171D1*
X2060267Y1241979D1*
X2055513Y1246788D1*
X2050705Y1249109D1*
X2041143D1*
X2048328Y1208486D2*
X2062643Y1194116D1*
X2104446Y1198869D2*
Y1249054D1*
X2080514Y1215616D1*
X2116384D1*
X2653149Y1258951D2*
X2648396Y1256630D1*
X2643587Y1251822D1*
X2641211Y1247013D1*
X2638779Y1239828D1*
Y1227890D1*
X2641211Y1220705D1*
X2643587Y1215952D1*
X2648396Y1211143D1*
X2653149Y1208767D1*
X2662710D1*
X2667519Y1211143D1*
X2672272Y1215952D1*
X2674649Y1220705D1*
X2677080Y1227890D1*
Y1239828D1*
X2674649Y1247013D1*
X2672272Y1251822D1*
X2667519Y1256630D1*
X2662710Y1258951D1*
X2653149D1*
X2660334Y1218328D2*
X2674649Y1203958D1*
X2692520Y1242205D2*
X2718828D1*
X2692520Y1208711D1*
X2718828D1*
X2734267Y1249335D2*
X2739076Y1251766D1*
X2746261Y1258896D1*
Y1208711D1*
X2413238Y1860492D2*
X2434738D1*
X2441923Y1862924D1*
X2444354Y1865301D1*
X2446731Y1870054D1*
Y1874862D1*
X2444354Y1879615D1*
X2441923Y1882047D1*
X2434738Y1884424D1*
X2413238D1*
Y1834184D1*
X2429984Y1860492D2*
X2446731Y1834184D1*
X2462170Y1874807D2*
X2466979Y1877239D1*
X2474164Y1884369D1*
Y1834184D1*
X2402488Y2035492D2*
X2423988D1*
X2431173Y2037924D1*
X2433605Y2040301D1*
X2435981Y2045054D1*
Y2049862D1*
X2433605Y2054615D1*
X2431173Y2057047D1*
X2423988Y2059424D1*
X2402488D1*
Y2009184D1*
X2419234Y2035492D2*
X2435981Y2009184D1*
X2453852Y2047430D2*
Y2049807D1*
X2456229Y2054615D1*
X2458605Y2056992D1*
X2463414Y2059369D1*
X2472976D1*
X2477729Y2056992D1*
X2480105Y2054615D1*
X2482537Y2049807D1*
Y2045054D1*
X2480105Y2040245D1*
X2475352Y2033116D1*
X2451420Y2009184D1*
X2484914D1*
X2602488Y1710492D2*
X2623988D1*
X2631173Y1712924D1*
X2633605Y1715301D1*
X2635981Y1720054D1*
Y1724862D1*
X2633605Y1729615D1*
X2631173Y1732047D1*
X2623988Y1734424D1*
X2602488D1*
Y1684184D1*
X2619234Y1710492D2*
X2635981Y1684184D1*
X2656229Y1734369D2*
X2682482D1*
X2668167Y1715245D1*
X2675352D1*
X2680105Y1712869D1*
X2682482Y1710492D1*
X2684914Y1703307D1*
Y1698554D1*
X2682482Y1691369D1*
X2677729Y1686560D1*
X2670544Y1684184D1*
X2663359D1*
X2656229Y1686560D1*
X2653852Y1688992D1*
X2651420Y1693745D1*
X2601300Y1585492D2*
X2622799D1*
X2629984Y1587924D1*
X2632416Y1590301D1*
X2634793Y1595054D1*
Y1599862D1*
X2632416Y1604615D1*
X2629984Y1607047D1*
X2622799Y1609424D1*
X2601300D1*
Y1559184D1*
X2618046Y1585492D2*
X2634793Y1559184D1*
X2674164D2*
Y1609369D1*
X2650232Y1575931D1*
X2686102D1*
X2177488Y1785492D2*
X2198988D1*
X2206173Y1787924D1*
X2208605Y1790301D1*
X2210981Y1795054D1*
Y1799862D1*
X2208605Y1804615D1*
X2206173Y1807047D1*
X2198988Y1809424D1*
X2177488D1*
Y1759184D1*
X2194234Y1785492D2*
X2210981Y1759184D1*
X2255105Y1809369D2*
X2231229D1*
X2228852Y1787869D1*
X2231229Y1790245D1*
X2238414Y1792677D1*
X2245544D1*
X2252729Y1790245D1*
X2257537Y1785492D1*
X2259914Y1778307D1*
Y1773554D1*
X2257537Y1766369D1*
X2252729Y1761560D1*
X2245544Y1759184D1*
X2238414D1*
X2231229Y1761560D1*
X2228852Y1763992D1*
X2226420Y1768745D1*
X2178704Y1935492D2*
X2200204D1*
X2207389Y1937924D1*
X2209821Y1940301D1*
X2212197Y1945054D1*
Y1949862D1*
X2209821Y1954615D1*
X2207389Y1957047D1*
X2200204Y1959424D1*
X2178704D1*
Y1909184D1*
X2195450Y1935492D2*
X2212197Y1909184D1*
X2256321Y1952239D2*
X2253945Y1956992D1*
X2246760Y1959369D1*
X2242006D1*
X2234821Y1956992D1*
X2230013Y1949807D1*
X2227636Y1937869D1*
Y1925931D1*
X2230013Y1916369D1*
X2234821Y1911560D1*
X2242006Y1909184D1*
X2244383D1*
X2251513Y1911560D1*
X2256321Y1916369D1*
X2258698Y1923554D1*
Y1925931D1*
X2256321Y1933116D1*
X2251513Y1937869D1*
X2244383Y1940245D1*
X2242006D1*
X2234821Y1937869D1*
X2230013Y1933116D1*
X2227636Y1925931D1*
X2177488Y1585492D2*
X2198988D1*
X2206173Y1587924D1*
X2208605Y1590301D1*
X2210981Y1595054D1*
Y1599862D1*
X2208605Y1604615D1*
X2206173Y1607047D1*
X2198988Y1609424D1*
X2177488D1*
Y1559184D1*
X2194234Y1585492D2*
X2210981Y1559184D1*
X2235982D2*
X2259914Y1609369D1*
X2226420D1*
X1977515Y1310492D2*
X1999015D1*
X2006200Y1312924D1*
X2008632Y1315301D1*
X2011009Y1320054D1*
Y1324862D1*
X2008632Y1329615D1*
X2006200Y1332047D1*
X1999015Y1334424D1*
X1977515D1*
Y1284184D1*
X1994262Y1310492D2*
X2011009Y1284184D1*
X2038386Y1334369D2*
X2031256Y1331992D1*
X2028825Y1327239D1*
Y1322430D1*
X2031256Y1317677D1*
X2036010Y1315245D1*
X2045571Y1312869D1*
X2052756Y1310492D1*
X2057510Y1305684D1*
X2059886Y1300931D1*
Y1293745D1*
X2057510Y1288992D1*
X2055133Y1286560D1*
X2047948Y1284184D1*
X2038386D1*
X2031256Y1286560D1*
X2028825Y1288992D1*
X2026448Y1293745D1*
Y1300931D1*
X2028825Y1305684D1*
X2033633Y1310492D1*
X2040763Y1312869D1*
X2050324Y1315245D1*
X2055133Y1317677D1*
X2057510Y1322430D1*
Y1327239D1*
X2055133Y1331992D1*
X2047948Y1334369D1*
X2038386D1*
X1589409Y866176D2*
Y887676D1*
X1586978Y894861D1*
X1584601Y897293D1*
X1579848Y899670D1*
X1575039D1*
X1570286Y897293D1*
X1567854Y894861D1*
X1565478Y887676D1*
Y866176D1*
X1615718D1*
X1589409Y882923D2*
X1615718Y899669D1*
X1582224Y946225D2*
X1589409Y943794D1*
X1594218Y939040D1*
X1596595Y931855D1*
Y929479D1*
X1594218Y922294D1*
X1589409Y917541D1*
X1582224Y915109D1*
X1579848D1*
X1572663Y917541D1*
X1567910Y922294D1*
X1565533Y929479D1*
Y931855D1*
X1567910Y939040D1*
X1572663Y943794D1*
X1582224Y946225D1*
X1594218D1*
X1606156Y943794D1*
X1613341Y939040D1*
X1615718Y931855D1*
Y927102D1*
X1613341Y919917D1*
X1608533Y917541D1*
X1314409Y851272D2*
Y872771D1*
X1311978Y879956D1*
X1309601Y882388D1*
X1304848Y884765D1*
X1300039D1*
X1295286Y882388D1*
X1292854Y879956D1*
X1290478Y872771D1*
Y851272D1*
X1340718D1*
X1314409Y868018D2*
X1340718Y884765D1*
X1300095Y900204D2*
X1297663Y905013D1*
X1290533Y912198D1*
X1340718D1*
X1290533Y942007D2*
X1292910Y934822D1*
X1300095Y930013D1*
X1312033Y927637D1*
X1319218D1*
X1331156Y930013D1*
X1338341Y934822D1*
X1340718Y942007D1*
Y946760D1*
X1338341Y953945D1*
X1331156Y958698D1*
X1319218Y961130D1*
X1312033D1*
X1300095Y958698D1*
X1292910Y953945D1*
X1290533Y946760D1*
Y942007D1*
X1300095Y958698D2*
X1331156Y930013D1*
X1039409Y862022D2*
Y883521D1*
X1036978Y890706D1*
X1034601Y893138D1*
X1029848Y895515D1*
X1025039D1*
X1020286Y893138D1*
X1017854Y890706D1*
X1015478Y883521D1*
Y862022D1*
X1065718D1*
X1039409Y878768D2*
X1065718Y895515D1*
X1025095Y910954D2*
X1022663Y915762D1*
X1015533Y922948D1*
X1065718Y922947D1*
X1025095Y938387D2*
X1022663Y943195D1*
X1015533Y950380D1*
X1065718D1*
X1864409Y851272D2*
Y872771D1*
X1861978Y879956D1*
X1859601Y882388D1*
X1854848Y884765D1*
X1850039D1*
X1845286Y882388D1*
X1842854Y879956D1*
X1840478Y872771D1*
Y851272D1*
X1890718D1*
X1864409Y868018D2*
X1890718Y884765D1*
X1850095Y900204D2*
X1847663Y905013D1*
X1840533Y912198D1*
X1890718D1*
X1852471Y930069D2*
X1850095D1*
X1845286Y932445D1*
X1842910Y934822D1*
X1840533Y939630D1*
Y949192D1*
X1842910Y953945D1*
X1845286Y956322D1*
X1850095Y958754D1*
X1854848D1*
X1859656Y956322D1*
X1866786Y951569D1*
X1890718Y927637D1*
Y961130D1*
X2688771Y2210492D2*
X2710271D1*
X2717456Y2212924D1*
X2719888Y2215301D1*
X2722265Y2220054D1*
Y2224862D1*
X2719888Y2229615D1*
X2717456Y2232047D1*
X2710271Y2234424D1*
X2688771D1*
Y2184184D1*
X2705518Y2210492D2*
X2722265Y2184184D1*
X2737704Y2224807D2*
X2742512Y2227239D1*
X2749698Y2234369D1*
Y2184184D1*
X2769945Y2234369D2*
X2796198D1*
X2781883Y2215245D1*
X2789068D1*
X2793822Y2212869D1*
X2796198Y2210492D1*
X2798630Y2203307D1*
Y2198554D1*
X2796198Y2191369D1*
X2791445Y2186560D1*
X2784260Y2184184D1*
X2777075D1*
X2769945Y2186560D1*
X2767569Y2188992D1*
X2765137Y2193745D1*
X3846731Y976766D2*
X3841978Y981575D1*
X3834793Y983951D1*
X3825231D1*
X3818046Y981575D1*
X3813238Y976766D1*
Y972013D1*
X3815670Y967205D1*
X3818046Y964828D1*
X3822799Y962452D1*
X3837169Y957643D1*
X3841978Y955267D1*
X3844354Y952835D1*
X3846731Y948081D1*
Y940896D1*
X3841978Y936143D1*
X3834793Y933711D1*
X3825231D1*
X3818046Y936143D1*
X3813238Y940896D1*
X3862170Y974335D2*
X3866979Y976766D1*
X3874164Y983896D1*
Y933711D1*
X3835981Y1501766D2*
X3831228Y1506575D1*
X3824043Y1508951D1*
X3814481D1*
X3807296Y1506575D1*
X3802488Y1501766D1*
Y1497013D1*
X3804920Y1492205D1*
X3807296Y1489828D1*
X3812049Y1487452D1*
X3826420Y1482643D1*
X3831228Y1480267D1*
X3833605Y1477835D1*
X3835981Y1473081D1*
Y1465896D1*
X3831228Y1461143D1*
X3824043Y1458711D1*
X3814481D1*
X3807296Y1461143D1*
X3802488Y1465896D1*
X3853852Y1496958D2*
Y1499335D1*
X3856229Y1504143D1*
X3858605Y1506520D1*
X3863414Y1508896D1*
X3872976D1*
X3877729Y1506520D1*
X3880105Y1504143D1*
X3882537Y1499335D1*
Y1494581D1*
X3880105Y1489773D1*
X3875352Y1482643D1*
X3851420Y1458711D1*
X3884914D1*
X3835981Y2026766D2*
X3831228Y2031575D1*
X3824043Y2033951D1*
X3814481D1*
X3807296Y2031575D1*
X3802488Y2026766D1*
Y2022013D1*
X3804920Y2017205D1*
X3807296Y2014828D1*
X3812049Y2012452D1*
X3826420Y2007643D1*
X3831228Y2005267D1*
X3833605Y2002835D1*
X3835981Y1998081D1*
Y1990896D1*
X3831228Y1986143D1*
X3824043Y1983711D1*
X3814481D1*
X3807296Y1986143D1*
X3802488Y1990896D1*
X3856229Y2033896D2*
X3882482D1*
X3868167Y2014773D1*
X3875352D1*
X3880105Y2012396D1*
X3882482Y2010020D1*
X3884914Y2002835D1*
Y1998081D1*
X3882482Y1990896D1*
X3877729Y1986088D1*
X3870544Y1983711D1*
X3863359D1*
X3856229Y1986088D1*
X3853852Y1988520D1*
X3851420Y1993273D1*
X3163238Y2063085D2*
Y2027215D1*
X3165614Y2020030D1*
X3170423Y2015277D1*
X3177608Y2012845D1*
X3182361D1*
X3189546Y2015277D1*
X3194354Y2020030D1*
X3196731Y2027215D1*
Y2063085D1*
X3212170Y2053468D2*
X3216979Y2055900D1*
X3224164Y2063030D1*
Y2012845D1*
X703221Y1530171D2*
Y1494301D1*
X705598Y1487116D1*
X710406Y1482363D1*
X717592Y1479931D1*
X722345D1*
X729530Y1482363D1*
X734338Y1487116D1*
X736715Y1494301D1*
Y1530171D1*
X754586Y1518177D2*
Y1520554D1*
X756962Y1525362D1*
X759339Y1527739D1*
X764147Y1530115D1*
X773709D1*
X778462Y1527739D1*
X780839Y1525362D1*
X783271Y1520554D1*
Y1515801D1*
X780839Y1510992D1*
X776086Y1503862D1*
X752154Y1479931D1*
X785647D1*
M02*
