G04 DipTrace 3.3.1.3*
G04 Bottom.gbr*
%MOIN*%
G04 #@! TF.FileFunction,Copper,L2,Bot*
G04 #@! TF.Part,Single*
%AMOUTLINE0*
4,1,8,
-0.029528,0.019685,
-0.03937,0.009843,
-0.03937,-0.009843,
-0.029528,-0.019685,
0.029528,-0.019685,
0.03937,-0.009843,
0.03937,0.009843,
0.029528,0.019685,
-0.029528,0.019685,
0*%
G04 #@! TA.AperFunction,Conductor*
%ADD13C,0.03937*%
G04 #@! TA.AperFunction,CopperBalancing*
%ADD14C,0.019685*%
%ADD15C,0.025*%
G04 #@! TA.AperFunction,ComponentPad*
%ADD16C,0.062992*%
%ADD17R,0.062992X0.062992*%
%ADD18R,0.070866X0.070866*%
%ADD19C,0.070866*%
%ADD20C,0.059055*%
%ADD21R,0.059055X0.059055*%
%ADD22O,0.07874X0.19685*%
%ADD23O,0.07874X0.177165*%
%ADD24O,0.177165X0.07874*%
%ADD25R,0.06X0.06*%
%ADD26C,0.06*%
%ADD27C,0.059055*%
%ADD28C,0.098425*%
%ADD29O,0.07874X0.03937*%
%ADD30C,0.05*%
%ADD31C,0.05*%
%ADD32R,0.023622X0.07874*%
%ADD76C,0.015439*%
%ADD77C,0.012351*%
G04 #@! TA.AperFunction,ComponentPad*
%ADD79OUTLINE0*%
%FSLAX26Y26*%
G04*
G70*
G90*
G75*
G01*
G04 Bottom*
%LPD*%
X693701Y1474951D2*
D13*
Y1424951D1*
X681201Y1412451D1*
Y1312451D1*
X674951Y1306201D1*
X649950Y1137451D2*
X674951Y1162453D1*
Y1306201D1*
X693701Y1474951D2*
D14*
X699951D1*
X799951Y1574951D1*
Y1693701D1*
X843701Y1737450D1*
X906201D1*
X968701Y1799951D1*
X1374950D1*
X1462450Y1887450D1*
X3456202Y1506201D2*
Y1643701D1*
X3474951Y1662450D1*
X3506201D1*
X3556201D1*
X3606202D1*
Y1506201D1*
X3556202D2*
X3556201Y1662450D1*
X3506202Y1506201D2*
X3506201Y1662450D1*
X3606202Y1136122D2*
Y1043701D1*
X3674950D1*
X3812352Y1181102D1*
Y1349951D1*
X3456202Y1136122D2*
Y1043701D1*
X3556202D1*
X3606202D1*
X3556202Y1136122D2*
Y1124951D1*
X4062470Y1168701D2*
X3824753D1*
X3812352Y1181102D1*
X3868701Y2037450D2*
Y1937450D1*
X3799951Y1868701D1*
X3506201D1*
Y1662450D1*
X3812352Y1349951D2*
Y1575050D1*
X3724951Y1662450D1*
X3606202D1*
X3406202Y1136122D2*
Y1043701D1*
X3506202D1*
Y1136122D1*
X974950Y1268701D2*
X1024951D1*
X1106201Y1187451D1*
Y706201D1*
X1149951Y662451D1*
Y624950D1*
X1143701D1*
X874950Y1068701D2*
X924951Y1118702D1*
Y1193701D1*
X974950Y1243699D1*
Y1268701D1*
X1143701Y624950D2*
Y668701D1*
X1106201Y706201D1*
Y862450D1*
X1243702D1*
X1381201Y724951D1*
Y618701D1*
X593701Y1474951D2*
D13*
X568699D1*
Y1331202D1*
X574950D1*
Y1306201D1*
X649950Y1087451D2*
X568699D1*
Y1306201D1*
X574950D1*
Y837451D2*
Y856202D1*
X568699Y862453D1*
Y1087451D1*
X506201Y649951D2*
X568701Y712451D1*
Y837451D1*
X574950D1*
X649950Y1087451D2*
D14*
X831201D1*
X843701Y1074951D1*
X881201D1*
X874950Y1068701D1*
X593701Y1474951D2*
X549950D1*
X499950Y1524950D1*
Y1856201D1*
X712451Y2068701D1*
X1049951D1*
X1087451Y2031201D1*
X3518701Y1868701D2*
X3799951D1*
X1381201Y724951D2*
X2662450D1*
Y681201D1*
X2687450Y656201D1*
X4506201Y668701D2*
Y968701D1*
Y1131201D1*
Y1431201D1*
Y1593701D1*
Y1893701D1*
X2662450Y724951D2*
X3181202D1*
X3331201Y874950D1*
Y993701D1*
X3381201Y1043701D1*
X3406202D1*
X3868701Y2037450D2*
Y2118701D1*
X4281201D1*
X4506201Y1893701D1*
X593701Y1474951D2*
Y1568898D1*
X613091Y1588287D1*
Y1663091D1*
X494980Y1781201D1*
X3418701Y2024950D2*
X3424951D1*
X3518701Y2118701D1*
X3868701D1*
X3556202Y1136122D2*
Y1043701D1*
X3456202Y1136122D2*
D3*
X3406202D2*
D3*
Y1043701D2*
X3456202D1*
X1156201Y806201D2*
Y737450D1*
X1224950Y668701D1*
Y481201D1*
X943701D1*
Y624950D1*
X649950Y1037451D2*
D13*
Y1031203D1*
X681201Y999953D1*
Y837451D1*
X674950D1*
X706201Y649951D2*
Y656201D1*
Y818701D1*
X687450Y837451D1*
X674950D1*
X2174951Y581201D2*
Y656201D1*
X1549950D1*
X1499950Y606201D1*
Y524950D1*
X1462451Y487451D1*
X926764D1*
X806201D1*
X706201Y587451D1*
Y649951D1*
X974950Y1068701D2*
D14*
Y812450D1*
X818701Y656201D1*
X706201D1*
X1856201Y1406201D2*
Y1431201D1*
X1943701Y1518701D1*
X2387450Y656201D2*
X2174951D1*
X1943701Y1518701D2*
X1824950D1*
X1812450Y1531201D1*
X1737450Y1912450D2*
Y1899950D1*
X1793701Y1843701D1*
X1812450D1*
X2387450Y656201D2*
Y581201D1*
X2412450Y556201D1*
X2906201D1*
X2924951Y574950D1*
X2937451Y562450D1*
X3099950D1*
X3149951Y612450D1*
X3262451Y612451D2*
X3149951D1*
Y612450D1*
X2924951D2*
Y574950D1*
X2956201Y1774951D2*
X2899950D1*
X2856201Y1818701D1*
Y1856201D1*
X2893701Y1893701D1*
X3306202Y1506201D2*
Y1656199D1*
X3256201Y1706201D1*
X3187450D1*
Y1818701D1*
X3249950Y1881201D1*
X3318701D1*
Y1868701D1*
X2956201Y1774951D2*
Y1762450D1*
X3012450Y1706201D1*
X3187450D1*
X2856201Y1818701D2*
X2837450Y1799950D1*
Y1724950D1*
Y1656201D1*
X2756201Y1574951D1*
X2712450D1*
X2468701Y1818701D1*
X1818701D1*
Y1849951D1*
X1812450Y1843701D1*
X706201Y649951D2*
Y587451D1*
X456201D1*
X431201Y612451D1*
Y1856201D1*
X693701Y2118701D1*
X1706201D1*
X1737450Y2087451D1*
Y1912450D1*
X943701Y624950D2*
Y504388D1*
X926764Y487451D1*
X2756201Y1724950D2*
X2837450D1*
X1387450Y2031201D2*
X1593701D1*
X1637451Y1987451D1*
Y1912450D1*
X1562450Y1837450D1*
Y1781201D1*
X1549951D1*
X1556201Y1787450D1*
X1456201Y1106201D2*
Y1162450D1*
X1506201Y1212450D1*
Y1443701D1*
X1556201Y1493701D1*
X1756201Y1106201D2*
Y999950D1*
X1762450Y993701D1*
X1762451Y581201D2*
Y568701D1*
X2087450D1*
X2137450Y518701D1*
X3968701D1*
X4181201Y731201D1*
Y1831201D1*
X4243701Y1893701D1*
X4306201D1*
X1656201Y1106201D2*
Y1012451D1*
X1674951Y993701D1*
X1674950Y581201D2*
Y556199D1*
X1706199Y524950D1*
X2074951D1*
X2124950Y474950D1*
X3993701D1*
X4231201Y712451D1*
Y1406201D1*
X4256201Y1431201D1*
X4306201D1*
X1556201Y1106201D2*
Y1024950D1*
X1587450Y993701D1*
Y581201D2*
Y568701D1*
X1674950Y481201D1*
X2062450D1*
X2112450Y431201D1*
X4156201D1*
X4393701Y668701D1*
Y918701D1*
X4343701Y968701D1*
X4306201D1*
X876525Y1668701D2*
X893701D1*
X943701Y1718701D1*
X2424950D1*
X2456201Y1687450D1*
Y1406201D1*
X973375Y1668701D2*
X2318701D1*
X2343701Y1643701D1*
Y1418701D1*
X2356201Y1406201D1*
X876525Y1568701D2*
Y1551525D1*
X943701Y1618701D1*
X2199951D1*
X2256201Y1562451D1*
Y1406201D1*
X973375Y1568701D2*
X1693701D1*
X1756201Y1506201D1*
Y1406201D1*
X1256201D2*
X1206201D1*
X1156201Y1356201D1*
Y1106201D1*
Y1093702D1*
X1243702Y1006201D1*
X1299951D1*
X1381201Y924951D1*
Y818701D1*
X974950Y1168701D2*
X999950D1*
X1043701Y1124950D1*
Y724951D1*
Y624950D1*
Y724951D2*
D3*
X874950Y1168701D2*
Y1193701D1*
X924950Y1243701D1*
Y1393699D1*
X949951Y1418701D1*
X999951D1*
X1049951Y1468701D1*
X1337451D1*
X1362450Y1443702D1*
Y1412450D1*
X1356201Y1406201D1*
X874950Y1268701D2*
X843701D1*
X818701Y1293701D1*
Y1493701D1*
X843701Y1518701D1*
X1437450D1*
X1462450Y1493701D1*
Y1412450D1*
X1456201Y1406201D1*
X3037450Y912450D2*
X3043701D1*
Y893701D1*
X3006201Y856201D1*
X2618701D1*
X2556201Y918701D1*
Y1106201D1*
X3356202Y1136122D2*
Y1243699D1*
X3324950Y1274951D1*
X3099950D1*
X3024950Y1349951D1*
X1556201Y1406201D2*
X1562450D1*
X1612450Y1456201D1*
X1624950D1*
X1656201Y1487451D1*
X3356202Y1506201D2*
Y1668699D1*
X3256201Y1768701D1*
Y1774951D1*
X3356201Y1668701D2*
Y1449950D1*
X3331201Y1424950D1*
X3143701D1*
X3049950Y1518701D1*
X2693701D1*
X2443701Y1768701D1*
X1668701D1*
Y1799950D1*
X1656201Y1787450D1*
X1256201Y1106201D2*
X1281201D1*
X1618701Y768701D1*
X3156201D1*
X3262451Y874950D1*
Y912450D1*
X3256202D1*
Y1136122D1*
X3306202D2*
Y1212450D1*
X3293701Y1224951D1*
X3231202D1*
X3212450Y1206199D1*
Y974949D1*
X3149951Y912450D1*
X1356201Y1106201D2*
Y1099950D1*
X1643701Y812450D1*
X3093702D1*
X3149951Y868699D1*
Y912450D1*
X3768701Y2037450D2*
X3531201D1*
X3406202Y1912451D1*
Y1506201D1*
X3256202D2*
Y1637449D1*
X3231201Y1662450D1*
X2924950D1*
X2893701Y1631201D1*
Y1593701D1*
X2837451Y912450D2*
X2924950D1*
X2924951D1*
X2487450Y656201D2*
Y618702D1*
X2506201Y599951D1*
X2818699D1*
X2831198Y612450D1*
X2837451D1*
X2556201Y1406201D2*
X2787451D1*
X2843701Y1349951D1*
Y912450D1*
X2924951D1*
X2174951Y981201D2*
X2062450D1*
X2056201Y1106201D2*
Y987451D1*
X2062450Y981201D1*
X1956201Y1406201D2*
X2068701Y1518701D1*
X2143701D1*
X1856201Y1106201D2*
Y1187450D1*
X1949951Y1281201D1*
Y1399951D1*
X1956201Y1406201D1*
X1862451Y981201D2*
Y1099951D1*
X1856201Y1106201D1*
X2456201D2*
Y1249950D1*
X2506201Y1299950D1*
Y1456201D1*
X2531201Y1481201D1*
X2618701D1*
X2637450Y1462451D1*
Y1762451D2*
Y1787450D1*
X2674950Y1824950D1*
X2756201D1*
Y1924950D2*
Y1962451D1*
X2818701Y2024950D1*
X2918701D1*
X3037450Y612451D2*
X3049951D1*
X3112451Y674951D1*
X3199951D1*
X3368701Y843701D1*
Y962450D1*
X3406202Y999951D1*
X4018701D1*
X4131201Y1112451D1*
Y1549950D1*
X4112450Y1568701D1*
X4062470D1*
X731201Y1781201D2*
Y1918701D1*
X781201Y1968701D1*
X987450D1*
X1031201Y1924951D1*
Y1891240D1*
X1027412Y1887450D1*
X3018701Y2024950D2*
X3118701D1*
D27*
X1812450Y1531201D3*
Y1843701D3*
X1556201Y1787450D3*
Y1493701D3*
X1656201Y1787450D3*
Y1487451D3*
X1587450Y581201D3*
X1674950D3*
X1762450Y993701D3*
X1587450D3*
X1674951D3*
X1762451Y581201D3*
X2837451Y912450D3*
Y612450D3*
X503904Y1731463D2*
D15*
X532169D1*
X504478Y1706594D2*
X558293D1*
X505052Y1681726D2*
X584416D1*
X505626Y1656857D2*
X603686D1*
X506201Y1631988D2*
X603686D1*
X506811Y1607119D2*
X590911D1*
X507385Y1582251D2*
X584954D1*
X507959Y1557382D2*
X584954D1*
X508533Y1532513D2*
X584954D1*
X531176Y1507644D2*
X584954D1*
X556043Y1482776D2*
X581331D1*
X500647Y1763892D2*
X506080Y1530278D1*
X568689Y1467639D1*
X587470Y1486398D1*
X587587Y1595541D1*
X588358Y1598377D1*
X593958Y1608009D1*
X606214Y1628436D1*
X606201Y1663365D1*
X500656Y1763862D1*
X502469Y1637713D2*
X511415D1*
X502469Y1612844D2*
X528007D1*
X502469Y1587975D2*
X544585D1*
X502469Y1563106D2*
X559728D1*
X502469Y1538238D2*
X558759D1*
X502469Y1513370D2*
X557825D1*
X502469Y1488501D2*
X556857D1*
X502469Y1463631D2*
X555888D1*
X502469Y1438764D2*
X554955D1*
X502469Y1413895D2*
X553987D1*
X502469Y1389026D2*
X555636D1*
X502469Y1364157D2*
X558543D1*
X502469Y1339289D2*
X561486D1*
X502469Y1314420D2*
X564429D1*
X502469Y1289551D2*
X565971D1*
X502469Y1264682D2*
X565433D1*
X502469Y1239812D2*
X564930D1*
X502469Y1214944D2*
X564392D1*
X502469Y1190075D2*
X563854D1*
X502469Y1165206D2*
X563316D1*
X502469Y1140337D2*
X562814D1*
X502469Y1115469D2*
X562276D1*
X502469Y1090600D2*
X561738D1*
X502469Y1065731D2*
X561199D1*
X502469Y1040862D2*
X560697D1*
X502469Y1015993D2*
X560159D1*
X502469Y991125D2*
X559621D1*
X502469Y966256D2*
X559081D1*
X502469Y941387D2*
X558580D1*
X502469Y916518D2*
X558041D1*
X502469Y891650D2*
X557503D1*
X502469Y866781D2*
X556965D1*
X502469Y841912D2*
X556462D1*
X502469Y817043D2*
X555924D1*
X502469Y792175D2*
X555386D1*
X502469Y767306D2*
X554848D1*
X502469Y742437D2*
X554345D1*
X502469Y717568D2*
X553807D1*
X502469Y692699D2*
X531594D1*
X499951Y1658648D2*
Y662432D1*
X506885Y662451D1*
X556283Y717339D1*
X568685Y1299349D1*
X556210Y1406681D1*
X562304Y1565126D1*
X499958Y1658655D1*
X3916017Y2081332D2*
X4297560D1*
X3930945Y2056463D2*
X4321675D1*
X3933635Y2031594D2*
X4345825D1*
X3925885Y2006726D2*
X4369975D1*
X3900227Y1981857D2*
X4394089D1*
X3889462Y1956988D2*
X4418240D1*
X3883542Y1932119D2*
X4052938D1*
X4074912D2*
X4199454D1*
X4364963D2*
X4440990D1*
X3858673Y1907251D2*
X3998358D1*
X4129492D2*
X4174585D1*
X4369916D2*
X4440990D1*
X3833806Y1882382D2*
X3979878D1*
X4370382D2*
X4440990D1*
X3808938Y1857513D2*
X3971517D1*
X4364963D2*
X4440990D1*
X3585882Y1832644D2*
X3970441D1*
X4364963D2*
X4440990D1*
X3585882Y1807776D2*
X3976362D1*
X4364963D2*
X4491192D1*
X3523694Y1782907D2*
X3991003D1*
X4364963D2*
X4491192D1*
X3524484Y1758038D2*
X4023442D1*
X4364963D2*
X4491192D1*
X3525238Y1733169D2*
X4109958D1*
X4364963D2*
X4491192D1*
X3526028Y1708301D2*
X4109958D1*
X4364963D2*
X4491192D1*
X3526816Y1683432D2*
X4109958D1*
X4364963D2*
X4491192D1*
X3683702Y1658563D2*
X4109958D1*
X4364963D2*
X4491192D1*
X3683702Y1633694D2*
X4003706D1*
X4364963D2*
X4455379D1*
X3683702Y1608825D2*
X4003706D1*
X4369556D2*
X4442856D1*
X3683702Y1583957D2*
X3999148D1*
X4370669D2*
X4441744D1*
X3683702Y1559088D2*
X3998000D1*
X4364963D2*
X4451396D1*
X3683702Y1534219D2*
X4003706D1*
X4364963D2*
X4483836D1*
X3683702Y1509350D2*
X4003706D1*
X4364963D2*
X4491192D1*
X3683702Y1484482D2*
X3999291D1*
X4364963D2*
X4440990D1*
X3683702Y1459613D2*
X3997928D1*
X4364963D2*
X4440990D1*
X3683702Y1434744D2*
X4003706D1*
X4371315D2*
X4440990D1*
X3683702Y1409875D2*
X3753306D1*
X3871412D2*
X4003706D1*
X4367690D2*
X4440990D1*
X3683702Y1385007D2*
X3735291D1*
X3889427D2*
X3999399D1*
X4364963D2*
X4440990D1*
X3683702Y1360138D2*
X3728079D1*
X3896604D2*
X3997856D1*
X4364963D2*
X4491192D1*
X3683702Y1335269D2*
X3728761D1*
X3895921D2*
X4003706D1*
X4364963D2*
X4491192D1*
X3683702Y1310400D2*
X3737552D1*
X3887130D2*
X4003706D1*
X4364963D2*
X4491192D1*
X3683702Y1285531D2*
X3758472D1*
X3866209D2*
X3999543D1*
X4364963D2*
X4491192D1*
X3683702Y1260663D2*
X3997785D1*
X4364963D2*
X4491192D1*
X3683702Y1235794D2*
X4003706D1*
X4364963D2*
X4491192D1*
X3683702Y1210925D2*
X4003706D1*
X4364963D2*
X4491192D1*
X3683702Y1186056D2*
X3999722D1*
X4364963D2*
X4473322D1*
X3683702Y1161188D2*
X3771104D1*
X4364963D2*
X4448634D1*
X3683702Y1136319D2*
X3743474D1*
X4371207D2*
X4441206D1*
X3683702Y1111450D2*
X3715843D1*
X4368230D2*
X4444184D1*
X4364963Y1086581D2*
X4459650D1*
X4364963Y1061713D2*
X4491192D1*
X4364963Y1036844D2*
X4491192D1*
X4364963Y1011975D2*
X4440990D1*
X4389222Y987106D2*
X4440990D1*
X4414089Y962238D2*
X4440990D1*
X4446206Y887631D2*
X4491192D1*
X4446206Y862762D2*
X4491192D1*
X4446206Y837894D2*
X4491192D1*
X4446206Y813025D2*
X4491192D1*
X4446206Y788156D2*
X4491192D1*
X4446206Y763287D2*
X4491192D1*
X4446206Y738419D2*
X4491192D1*
X4446206Y713550D2*
X4459865D1*
X3583382Y1851602D2*
Y1804020D1*
X3520549D1*
X3524551Y1675438D1*
X3670161Y1681115D1*
X3673018Y1680432D1*
X3675638Y1679100D1*
X3677874Y1677193D1*
X3679602Y1674816D1*
X3680730Y1672102D1*
X3681190Y1669197D1*
X3681201Y1078012D1*
X3786895Y1172936D1*
X3789530Y1174235D1*
X3792400Y1174883D1*
X4000936Y1180713D1*
X4002827Y1188080D1*
X4006198Y1196316D1*
X4006201Y1241008D1*
X4002827Y1249322D1*
X4000529Y1258890D1*
X3999757Y1268701D1*
X4000529Y1278512D1*
X4002827Y1288080D1*
X4006198Y1296316D1*
X4006201Y1340980D1*
X4002827Y1349322D1*
X4000529Y1358890D1*
X3999757Y1368701D1*
X4000529Y1378512D1*
X4002827Y1388080D1*
X4006198Y1396316D1*
X4006201Y1441026D1*
X4002827Y1449322D1*
X4000529Y1458890D1*
X3999757Y1468701D1*
X4000529Y1478512D1*
X4002827Y1488080D1*
X4006198Y1496316D1*
X4006201Y1540999D1*
X4002827Y1549322D1*
X4000529Y1558890D1*
X3999757Y1568701D1*
X4000529Y1578512D1*
X4002827Y1588080D1*
X4006198Y1596316D1*
X4006354Y1639407D1*
X4007152Y1642235D1*
X4008588Y1644798D1*
X4010583Y1646955D1*
X4013026Y1648588D1*
X4015782Y1649605D1*
X4018705Y1649950D1*
X4112466Y1649951D1*
X4112450Y1763727D1*
X4105408Y1759730D1*
X4098892Y1756726D1*
X4092161Y1754243D1*
X4085257Y1752295D1*
X4078220Y1750895D1*
X4071096Y1750052D1*
X4063927Y1749770D1*
X4056757Y1750052D1*
X4049633Y1750895D1*
X4042596Y1752295D1*
X4035692Y1754243D1*
X4028961Y1756726D1*
X4022445Y1759730D1*
X4016185Y1763235D1*
X4010219Y1767220D1*
X4004585Y1771663D1*
X3999318Y1776533D1*
X3994448Y1781801D1*
X3990005Y1787434D1*
X3986020Y1793400D1*
X3982514Y1799660D1*
X3979510Y1806176D1*
X3977028Y1812907D1*
X3975080Y1819811D1*
X3973680Y1826848D1*
X3972837Y1833972D1*
X3972555Y1841142D1*
X3972837Y1848311D1*
X3973680Y1855436D1*
X3975080Y1862472D1*
X3977028Y1869377D1*
X3979510Y1876108D1*
X3982514Y1882623D1*
X3986020Y1888883D1*
X3990005Y1894849D1*
X3994448Y1900483D1*
X3999318Y1905751D1*
X4004585Y1910621D1*
X4010219Y1915063D1*
X4016185Y1919049D1*
X4022445Y1922554D1*
X4028961Y1925558D1*
X4035692Y1928041D1*
X4042596Y1929988D1*
X4049633Y1931388D1*
X4056757Y1932231D1*
X4063927Y1932513D1*
X4071096Y1932231D1*
X4078220Y1931388D1*
X4085257Y1929988D1*
X4092161Y1928041D1*
X4098892Y1925558D1*
X4105408Y1922554D1*
X4111668Y1919049D1*
X4117634Y1915063D1*
X4123268Y1910621D1*
X4128535Y1905751D1*
X4133406Y1900483D1*
X4137848Y1894849D1*
X4141833Y1888883D1*
X4145339Y1882623D1*
X4147580Y1877762D1*
X4223853Y1953814D1*
X4226417Y1955249D1*
X4229245Y1956047D1*
X4240387Y1956201D1*
X4306201Y1956413D1*
X4323064Y1956201D1*
X4351907Y1956047D1*
X4354735Y1955249D1*
X4357298Y1953814D1*
X4359455Y1951819D1*
X4361088Y1949375D1*
X4362105Y1946619D1*
X4362450Y1943697D1*
X4362451Y1921417D1*
X4365844Y1913080D1*
X4368142Y1903512D1*
X4368913Y1893701D1*
X4368142Y1883890D1*
X4365844Y1874322D1*
X4362457Y1866051D1*
X4362451Y1621425D1*
X4365844Y1613080D1*
X4368142Y1603512D1*
X4368913Y1593701D1*
X4368142Y1583890D1*
X4365844Y1574322D1*
X4362457Y1566051D1*
X4362451Y1458941D1*
X4365844Y1450580D1*
X4368142Y1441012D1*
X4368913Y1431201D1*
X4368142Y1421390D1*
X4365844Y1411822D1*
X4362457Y1403551D1*
X4362451Y1158950D1*
X4365844Y1150580D1*
X4368142Y1141012D1*
X4368913Y1131201D1*
X4368142Y1121390D1*
X4365844Y1111822D1*
X4362457Y1103551D1*
X4362451Y1011394D1*
X4441314Y932298D1*
X4442749Y929735D1*
X4443488Y928035D1*
Y1031413D1*
X4493705D1*
X4493701Y1069772D1*
X4487417Y1071367D1*
X4480550Y1073974D1*
X4474035Y1077365D1*
X4467962Y1081495D1*
X4462412Y1086307D1*
X4457463Y1091735D1*
X4453184Y1097703D1*
X4449631Y1104133D1*
X4446854Y1110932D1*
X4444891Y1118009D1*
X4443769Y1125268D1*
X4443504Y1132609D1*
X4444098Y1139929D1*
X4445545Y1147130D1*
X4447823Y1154113D1*
X4450903Y1160781D1*
X4454740Y1167043D1*
X4459283Y1172815D1*
X4464471Y1178014D1*
X4470231Y1182572D1*
X4476484Y1186425D1*
X4483144Y1189521D1*
X4490121Y1191818D1*
X4493706Y1192656D1*
X4493585Y1368488D1*
X4443488D1*
Y1493913D1*
X4493705D1*
X4493701Y1532248D1*
X4485672Y1534444D1*
X4478885Y1537249D1*
X4472472Y1540831D1*
X4466522Y1545136D1*
X4461115Y1550109D1*
X4456328Y1555680D1*
X4452226Y1561772D1*
X4448862Y1568301D1*
X4446286Y1575178D1*
X4444531Y1582311D1*
X4443622Y1589600D1*
X4443572Y1596945D1*
X4444381Y1604244D1*
X4446038Y1611400D1*
X4448520Y1618312D1*
X4451793Y1624888D1*
X4455812Y1631035D1*
X4460524Y1636671D1*
X4465861Y1641717D1*
X4471751Y1646104D1*
X4478114Y1649773D1*
X4484862Y1652672D1*
X4491904Y1654762D1*
X4493706Y1655156D1*
X4493585Y1830988D1*
X4443488D1*
Y1933552D1*
X4275967Y2106146D1*
X3881651Y2100146D1*
X3883341Y2098430D1*
X3892699Y2095388D1*
X3901469Y2090921D1*
X3909429Y2085138D1*
X3916388Y2078178D1*
X3922172Y2070218D1*
X3926639Y2061449D1*
X3929681Y2052091D1*
X3931220Y2042370D1*
Y2032530D1*
X3929681Y2022810D1*
X3926639Y2013451D1*
X3922172Y2004682D1*
X3916388Y1996722D1*
X3909429Y1989762D1*
X3901469Y1983979D1*
X3892699Y1979512D1*
X3886210Y1977280D1*
X3887361Y1942203D1*
X3886668Y1939348D1*
X3885328Y1936732D1*
X3877294Y1928366D1*
X3807298Y1858588D1*
X3804735Y1857152D1*
X3801907Y1856354D1*
X3754295Y1855227D1*
X3583417Y1851591D1*
X3894728Y1348114D2*
X3894013Y1338961D1*
X3892283Y1329944D1*
X3889560Y1321175D1*
X3885881Y1312764D1*
X3881286Y1304814D1*
X3875836Y1297424D1*
X3869598Y1290688D1*
X3862650Y1284686D1*
X3855076Y1279496D1*
X3846971Y1275180D1*
X3838438Y1271793D1*
X3829580Y1269375D1*
X3820508Y1267958D1*
X3811336Y1267560D1*
X3802175Y1268185D1*
X3793142Y1269824D1*
X3784345Y1272459D1*
X3775898Y1276056D1*
X3767903Y1280571D1*
X3760459Y1285946D1*
X3753661Y1292117D1*
X3747591Y1299007D1*
X3742325Y1306528D1*
X3737929Y1314588D1*
X3734457Y1323088D1*
X3731951Y1331921D1*
X3730444Y1340978D1*
X3729954Y1350147D1*
X3730488Y1359312D1*
X3732037Y1368362D1*
X3734584Y1377184D1*
X3738097Y1385667D1*
X3742531Y1393707D1*
X3747833Y1401203D1*
X3753936Y1408063D1*
X3760764Y1414201D1*
X3768232Y1419542D1*
X3776249Y1424018D1*
X3784714Y1427576D1*
X3793521Y1430168D1*
X3802563Y1431765D1*
X3811726Y1432346D1*
X3820898Y1431904D1*
X3829962Y1430445D1*
X3838808Y1427987D1*
X3847325Y1424558D1*
X3855409Y1420203D1*
X3862958Y1414978D1*
X3869878Y1408944D1*
X3876084Y1402177D1*
X3881499Y1394762D1*
X3886055Y1386790D1*
X3889697Y1378362D1*
X3892377Y1369580D1*
X3894064Y1360555D1*
X3894736Y1351398D1*
X3894728Y1348114D1*
X4493707Y905988D2*
X4443701D1*
X4443870Y675606D1*
X4445105Y682846D1*
X4447177Y689892D1*
X4450060Y696648D1*
X4453713Y703021D1*
X4458085Y708923D1*
X4463118Y714272D1*
X4468741Y718996D1*
X4474879Y723031D1*
X4481446Y726320D1*
X4488353Y728820D1*
X4493706Y730156D1*
X4493701Y905997D1*
X3518701Y1868701D2*
D14*
X3583357Y1804045D1*
X3868701Y2037450D2*
X3913020Y1993131D1*
Y2081769D2*
X3868701Y2037450D1*
X3754113Y1408190D2*
X3870591Y1291713D1*
Y1408190D2*
X3754113Y1291713D1*
X4506201Y1893701D2*
X4443513Y1831013D1*
X4461882Y1638020D2*
X4506201Y1593701D1*
X4461882Y1549382D1*
X4443513Y1493888D2*
X4506201Y1431201D1*
X4443513Y1368513D1*
X4461882Y1175520D2*
X4506201Y1131201D1*
X4461882Y1086882D1*
X4443513Y1031388D2*
X4506201Y968701D1*
X4443513Y906013D1*
X4461882Y713020D2*
X4506201Y668701D1*
X539531Y1725083D2*
D15*
X548383D1*
X537594Y1700214D2*
X573251D1*
X535693Y1675345D2*
X598118D1*
X533827Y1650475D2*
X622987D1*
X538420Y1625608D2*
X712482D1*
X543013Y1600738D2*
X722458D1*
X547642Y1575870D2*
X722458D1*
X552235Y1551001D2*
X694181D1*
X556828Y1526133D2*
X597437D1*
X561457Y1501264D2*
X597437D1*
X641087Y1634887D2*
X538881Y1737093D1*
X537357Y1729492D1*
X531291Y1650643D1*
X560702Y1491789D1*
X599941Y1483950D1*
X600105Y1539407D1*
X600902Y1542235D1*
X602339Y1544798D1*
X604332Y1546955D1*
X606776Y1548588D1*
X609533Y1549605D1*
X612454Y1549950D1*
X695411Y1549951D1*
X724946Y1574551D1*
X724950Y1608976D1*
X711606Y1631228D1*
X647995Y1631354D1*
X645167Y1632152D1*
X642604Y1633588D1*
X641109Y1634865D1*
D16*
X1381201Y818701D3*
D17*
Y618701D3*
X674950Y1306201D3*
D16*
X574950D3*
D17*
X674950Y837451D3*
D16*
X574950D3*
X506201Y649951D3*
D17*
X706201D3*
D16*
X3318701Y1868701D3*
D17*
X3518701D3*
D16*
X1943701Y1518701D3*
D17*
X2143701D3*
D16*
X2062450Y981201D3*
D17*
X1862450D3*
D18*
X1462451Y1887450D3*
D19*
X1027412D3*
D20*
X874950Y1068701D3*
X974950D3*
Y1168701D3*
X874950D3*
Y1268701D3*
X974950D3*
X874950Y1368701D3*
X974950D3*
X973375Y1468701D3*
X876525D3*
Y1568701D3*
X973375D3*
X876525Y1668701D3*
X973375D3*
X4062470Y1368701D3*
Y1468701D3*
Y1268701D3*
Y1168701D3*
Y1568701D3*
D21*
X693701Y1474951D3*
D20*
X593701D3*
D21*
X3768701Y2037450D3*
D20*
X3868701D3*
D21*
X3018701Y2024950D3*
D20*
X2918701D3*
D22*
X731201Y1781201D3*
D23*
X494980D3*
D24*
X613091Y1588287D3*
D25*
X2174951Y581201D3*
D26*
Y981201D3*
D27*
X1043701Y724951D3*
D20*
X1737451Y1912450D3*
X1637451D3*
D28*
X3024950Y1349951D3*
X3812352D3*
D79*
X2756201Y1724950D3*
D29*
Y1824950D3*
Y1924950D3*
D30*
X1156201Y806201D3*
D31*
Y1106201D3*
D30*
X1087450Y2031201D3*
D31*
X1387450D3*
D21*
X943701Y624950D3*
D20*
X1043701D3*
X1143701D3*
D30*
X2893701Y1593701D3*
D31*
Y1893701D3*
D30*
X3256201Y1774951D3*
D31*
X2956201D3*
D30*
X3262451Y912451D3*
D31*
Y612451D3*
D30*
X3149951Y612450D3*
D31*
Y912450D3*
D30*
X2924951Y612450D3*
D31*
Y912450D3*
D30*
X2637450Y1762451D3*
D31*
Y1462451D3*
D30*
X3037450Y912451D3*
D31*
Y612451D3*
D30*
X3118701Y2024950D3*
D31*
X3418701D3*
D21*
X4506201Y1893701D3*
D20*
X4306201D3*
Y1593701D3*
X4506201D3*
D21*
Y1431201D3*
D20*
X4306201D3*
Y1131201D3*
X4506201D3*
D21*
Y968701D3*
D20*
X4306201D3*
Y668701D3*
X4506201D3*
D17*
X1256201Y1406201D3*
D16*
X1356201D3*
X1456201D3*
X1556201D3*
X1656201D3*
X1756201D3*
X1856201D3*
X1956201D3*
X2056201D3*
X2156201D3*
X2256201D3*
X2356201D3*
X2456201D3*
X2556201D3*
Y1106201D3*
X2456201D3*
X2356201D3*
X2256201D3*
X2156201D3*
X2056201D3*
X1956201D3*
X1856201D3*
X1756201D3*
X1656201D3*
X1556201D3*
X1456201D3*
X1356201D3*
X1256201D3*
D79*
X649950Y1037451D3*
D29*
Y1087451D3*
Y1137451D3*
D32*
X3256202Y1506201D3*
X3306202D3*
X3356202D3*
X3406202D3*
X3456202D3*
X3506202D3*
X3556202D3*
X3606202D3*
Y1136122D3*
X3556202D3*
X3506202D3*
X3456202D3*
X3406202D3*
X3356202D3*
X3306202D3*
X3256202D3*
D20*
X2487450Y656201D3*
X2587450D3*
X2687450D3*
X2387450D3*
X2620374Y2090632D2*
D76*
X2629880Y2100249D1*
X2644250Y2105003D1*
X2663373D1*
X2677743Y2100249D1*
X2687360Y2090632D1*
Y2081126D1*
X2682497Y2071509D1*
X2677743Y2066756D1*
X2668237Y2062003D1*
X2639497Y2052386D1*
X2629880Y2047633D1*
X2625127Y2042769D1*
X2620374Y2033263D1*
Y2018893D1*
X2629880Y2009386D1*
X2644250Y2004523D1*
X2663373D1*
X2677743Y2009386D1*
X2687360Y2018893D1*
X2532125Y2071509D2*
Y2004523D1*
Y2057139D2*
X2541632Y2066756D1*
X2551249Y2071509D1*
X2565508D1*
X2575125Y2066756D1*
X2584631Y2057139D1*
X2589495Y2042769D1*
Y2033263D1*
X2584631Y2018893D1*
X2575125Y2009386D1*
X2565508Y2004523D1*
X2551249D1*
X2541632Y2009386D1*
X2532125Y2018893D1*
X2486877Y2105003D2*
Y2023646D1*
X2482124Y2009386D1*
X2472507Y2004523D1*
X2463000D1*
X2501247Y2071509D2*
X2467754D1*
X2432122D2*
Y2023646D1*
X2427369Y2009386D1*
X2417752Y2004523D1*
X2403382D1*
X2393875Y2009386D1*
X2379505Y2023646D1*
Y2071509D2*
Y2004523D1*
X2348627Y2071509D2*
Y2004523D1*
Y2042769D2*
X2343763Y2057139D1*
X2334257Y2066756D1*
X2324640Y2071509D1*
X2310270D1*
X2279391D2*
Y2004523D1*
Y2052386D2*
X2265021Y2066756D1*
X2255404Y2071509D1*
X2241145D1*
X2231528Y2066756D1*
X2226775Y2052386D1*
Y2004523D1*
X2195896Y1987942D2*
X2105033D1*
X2074155Y2071509D2*
Y2004523D1*
Y2052386D2*
X2059785Y2066756D1*
X2050168Y2071509D1*
X2035908D1*
X2026291Y2066756D1*
X2021538Y2052386D1*
Y2004523D1*
Y2052386D2*
X2007168Y2066756D1*
X1997551Y2071509D1*
X1983291D1*
X1973675Y2066756D1*
X1968811Y2052386D1*
Y2004523D1*
X1937932Y2105003D2*
Y2004523D1*
X1890069Y2071509D2*
X1937932Y2023646D1*
X1918809Y2042769D2*
X1885316Y2004523D1*
X1849574Y2081016D2*
Y2085769D1*
X1844820Y2095386D1*
X1840067Y2100139D1*
X1830450Y2104892D1*
X1811327D1*
X1801821Y2100139D1*
X1797067Y2095386D1*
X1792204Y2085769D1*
Y2076262D1*
X1797067Y2066646D1*
X1806574Y2052386D1*
X1854437Y2004523D1*
X1787451D1*
X2663718Y1919693D2*
D77*
X2629230D1*
X2617823Y1923495D1*
X2613932Y1927386D1*
X2610129Y1934991D1*
Y1946487D1*
X2613932Y1954093D1*
X2617823Y1957983D1*
X2629230Y1961786D1*
X2663718D1*
Y1881402D1*
X2528034Y1942685D2*
X2531837Y1950290D1*
X2539530Y1957983D1*
X2547136Y1961786D1*
X2562434D1*
X2570128Y1957983D1*
X2577733Y1950290D1*
X2581624Y1942685D1*
X2585426Y1931189D1*
Y1911999D1*
X2581624Y1900592D1*
X2577733Y1892898D1*
X2570128Y1885293D1*
X2562434Y1881402D1*
X2547136D1*
X2539530Y1885293D1*
X2531837Y1892898D1*
X2528034Y1900592D1*
X2503332Y1961786D2*
Y1881402D1*
X2468843D1*
X2457347Y1885293D1*
X2453545Y1889096D1*
X2449742Y1896701D1*
Y1908197D1*
X2453545Y1915890D1*
X2457347Y1919693D1*
X2468843Y1923495D1*
X2457347Y1927386D1*
X2453545Y1931189D1*
X2449742Y1938794D1*
Y1946487D1*
X2453545Y1954093D1*
X2457347Y1957983D1*
X2468843Y1961786D1*
X2503332D1*
Y1923495D2*
X2468843D1*
X2425039Y1921550D2*
X2380824D1*
X2356121Y1934991D2*
Y1881402D1*
Y1911999D2*
X2352230Y1923495D1*
X2344625Y1931189D1*
X2336931Y1934991D1*
X2325435D1*
X2300733Y1911999D2*
X2254837D1*
Y1919693D1*
X2258639Y1927386D1*
X2262442Y1931189D1*
X2270135Y1934991D1*
X2281631D1*
X2289237Y1931189D1*
X2296930Y1923495D1*
X2300733Y1911999D1*
Y1904394D1*
X2296930Y1892898D1*
X2289237Y1885293D1*
X2281631Y1881402D1*
X2270135D1*
X2262442Y1885293D1*
X2254837Y1892898D1*
X2230134Y1934991D2*
X2207142Y1881402D1*
X2184238Y1934991D1*
X2159535Y1946399D2*
X2151842Y1950290D1*
X2140346Y1961698D1*
Y1881402D1*
X2111840Y1889096D2*
X2115643Y1885205D1*
X2111840Y1881402D1*
X2107949Y1885205D1*
X2111840Y1889096D1*
X2079356Y1942596D2*
Y1946399D1*
X2075553Y1954093D1*
X2071751Y1957895D1*
X2064057Y1961698D1*
X2048758D1*
X2041153Y1957895D1*
X2037351Y1954093D1*
X2033460Y1946399D1*
Y1938794D1*
X2037351Y1931100D1*
X2044956Y1919693D1*
X2083247Y1881402D1*
X2029657D1*
X3954104Y767503D2*
D76*
Y667023D1*
X3910993D1*
X3896623Y671886D1*
X3891870Y676639D1*
X3887117Y686146D1*
Y700516D1*
X3891870Y710133D1*
X3896623Y714886D1*
X3910993Y719639D1*
X3896623Y724503D1*
X3891870Y729256D1*
X3887117Y738762D1*
Y748379D1*
X3891870Y757886D1*
X3896623Y762749D1*
X3910993Y767503D1*
X3954104D1*
Y719639D2*
X3910993D1*
X3851375Y734009D2*
X3822745Y667023D1*
X3832252Y647899D1*
X3841868Y638282D1*
X3851375Y633529D1*
X3856239D1*
X3794005Y734009D2*
X3822745Y667023D1*
X3665925Y767503D2*
X3627678Y667023D1*
X3589432Y767503D1*
X3481950Y667023D2*
X3520307Y767503D1*
X3558553Y667023D1*
X3544183Y700516D2*
X3496320D1*
X3451071Y767503D2*
Y667023D1*
X3393701D1*
X3948109Y873847D2*
D77*
Y877650D1*
X3944306Y885343D1*
X3940504Y889146D1*
X3932810Y892948D1*
X3917512D1*
X3909907Y889146D1*
X3906104Y885343D1*
X3902213Y877650D1*
Y870045D1*
X3906104Y862351D1*
X3913709Y850943D1*
X3952000Y812653D1*
X3898411D1*
X3866014Y892948D2*
X3824009D1*
X3846913Y862351D1*
X3835417D1*
X3827812Y858549D1*
X3824009Y854746D1*
X3820118Y843250D1*
Y835645D1*
X3824009Y824149D1*
X3831615Y816455D1*
X3843111Y812653D1*
X3854607D1*
X3866014Y816455D1*
X3869817Y820346D1*
X3873708Y827951D1*
X3791613Y820346D2*
X3795416Y816455D1*
X3791613Y812653D1*
X3787722Y816455D1*
X3791613Y820346D1*
X3740027Y892948D2*
X3751523Y889146D1*
X3759217Y877650D1*
X3763019Y858549D1*
Y847052D1*
X3759217Y827951D1*
X3751523Y816455D1*
X3740027Y812653D1*
X3732422D1*
X3720926Y816455D1*
X3713321Y827951D1*
X3709430Y847052D1*
Y858549D1*
X3713321Y877650D1*
X3720926Y889146D1*
X3732422Y892948D1*
X3740027D1*
X3713321Y877650D2*
X3759217Y827951D1*
X3638831Y892948D2*
X3677034D1*
X3680836Y858549D1*
X3677034Y862351D1*
X3665538Y866242D1*
X3654130D1*
X3642634Y862351D1*
X3634940Y854746D1*
X3631138Y843250D1*
Y835645D1*
X3634940Y824149D1*
X3642634Y816455D1*
X3654130Y812653D1*
X3665538D1*
X3677034Y816455D1*
X3680836Y820346D1*
X3684727Y827951D1*
X3602633Y820346D2*
X3606435Y816455D1*
X3602633Y812653D1*
X3598742Y816455D1*
X3602633Y820346D1*
X3570148Y873847D2*
Y877650D1*
X3566345Y885343D1*
X3562543Y889146D1*
X3554849Y892948D1*
X3539551D1*
X3531946Y889146D1*
X3528143Y885343D1*
X3524252Y877650D1*
Y870045D1*
X3528143Y862351D1*
X3535748Y850943D1*
X3574039Y812653D1*
X3520449D1*
X3472755Y892948D2*
X3484251Y889146D1*
X3491944Y877650D1*
X3495747Y858549D1*
Y847052D1*
X3491944Y827951D1*
X3484251Y816455D1*
X3472755Y812653D1*
X3465149D1*
X3453653Y816455D1*
X3446048Y827951D1*
X3442157Y847052D1*
Y858549D1*
X3446048Y877650D1*
X3453653Y889146D1*
X3465149Y892948D1*
X3472755D1*
X3446048Y877650D2*
X3491944Y827951D1*
X751646Y1430994D2*
Y1362106D1*
X786045Y1396506D2*
X717157D1*
M02*
