M48
INCH
T01C0.022
T02C0.0236
T03C0.0276
T04C0.034
T05C0.0354
T06C0.0394
T07C0.0472
T08C0.0591
T09C0.0984
T10C0.1181
%
T01
X+011562Y+008062
X+011562Y+011062
X+010875Y+020312
X+013875Y+020312
X+026375Y+017625
X+028937Y+018937
X+029562Y+017750
X+028937Y+015937
X+026375Y+014625
X+029250Y+009125
X+030375Y+009125
X+031500Y+009125
X+032625Y+009125
X+032625Y+006125
X+031500Y+006125
X+030375Y+006125
X+029250Y+006125
X+032562Y+017750
X+031187Y+020250
X+034187Y+020250
T02
X+018125Y+015312
X+016562Y+014875
X+015562Y+014937
X+015562Y+017875
X+016562Y+017875
X+018125Y+018437
X+017625Y+009937
X+016750Y+009937
X+015875Y+009937
X+015875Y+005812
X+016750Y+005812
X+017625Y+005812
X+028375Y+006125
X+028375Y+009125
T03
X+008750Y+010687
X+009750Y+010687
X+009750Y+011687
X+008750Y+011687
X+008750Y+012687
X+009750Y+012687
X+009750Y+013687
X+008750Y+013687
X+008765Y+014687
X+009734Y+014687
X+009734Y+015687
X+008765Y+015687
X+008765Y+016687
X+009734Y+016687
X+006500Y+011375
X+006500Y+010875
X+006500Y+010375
X+016375Y+019125
X+017375Y+019125
X+027562Y+019250
X+027562Y+018250
X+027562Y+017250
X+026875Y+006562
X+025875Y+006562
X+024875Y+006562
X+023875Y+006562
X+040625Y+011687
X+040625Y+012687
X+040625Y+013687
X+040625Y+014687
X+040625Y+015687
X+043062Y+015937
X+043062Y+014312
X+045062Y+015937
X+043062Y+018937
X+043062Y+011312
X+043062Y+009687
X+045062Y+011312
X+045062Y+006687
X+043062Y+006687
T04
X+021750Y+005812
X+021750Y+009812
T05
X+013812Y+008187
X+013812Y+006187
X+011437Y+006250
X+010437Y+006250
X+009437Y+006250
X+010437Y+007250
X+007062Y+006500
X+006750Y+008375
X+005750Y+008375
X+005062Y+006500
X+005750Y+013062
X+006750Y+013062
X+006937Y+014750
X+005937Y+014750
X+012562Y+014062
X+013562Y+014062
X+014562Y+014062
X+015562Y+014062
X+016562Y+014062
X+017562Y+014062
X+018562Y+014062
X+019562Y+014062
X+020562Y+014062
X+021562Y+014062
X+022562Y+014062
X+023562Y+014062
X+024562Y+014062
X+025562Y+014062
X+025562Y+011062
X+024562Y+011062
X+023562Y+011062
X+022562Y+011062
X+021562Y+011062
X+020562Y+011062
X+019562Y+011062
X+018562Y+011062
X+017562Y+011062
X+016562Y+011062
X+015562Y+011062
X+014562Y+011062
X+013562Y+011062
X+012562Y+011062
X+018625Y+009812
X+020625Y+009812
X+021437Y+015187
X+019437Y+015187
X+029187Y+020250
X+030187Y+020250
X+033187Y+018687
X+035187Y+018687
X+037687Y+020375
X+038687Y+020375
X+045062Y+018937
X+045062Y+014312
X+045062Y+009687
T06
X+007312Y+017221G85X+007312Y+018403
X+006623Y+015883G85X+005639Y+015883
X+004950Y+017320G85X+004950Y+018304
X+038124Y+013500
T07
X+014625Y+018875
X+010274Y+018875
T08
X+030250Y+013500
T09
X+008750Y+018411
X+008750Y+008963
X+040639Y+008963
X+040639Y+018411
T10
X+004875Y+020687
X+004875Y+004875
X+045062Y+004875
X+045062Y+020687
T00
M30
