G04 DipTrace 3.3.1.3*
G04 Top.gbr*
%MOIN*%
G04 #@! TF.FileFunction,Copper,L1,Top*
G04 #@! TF.Part,Single*
%AMOUTLINE0*
4,1,8,
-0.029528,0.019685,
-0.03937,0.009843,
-0.03937,-0.009843,
-0.029528,-0.019685,
0.029528,-0.019685,
0.03937,-0.009843,
0.03937,0.009843,
0.029528,0.019685,
-0.029528,0.019685,
0*%
G04 #@! TA.AperFunction,Conductor*
%ADD14C,0.019685*%
G04 #@! TA.AperFunction,ComponentPad*
%ADD16C,0.062992*%
%ADD17R,0.062992X0.062992*%
%ADD18R,0.070866X0.070866*%
%ADD19C,0.070866*%
%ADD20C,0.059055*%
%ADD21R,0.059055X0.059055*%
%ADD22O,0.07874X0.19685*%
%ADD23O,0.07874X0.177165*%
%ADD24O,0.177165X0.07874*%
%ADD25R,0.06X0.06*%
%ADD26C,0.06*%
%ADD27C,0.059055*%
%ADD28C,0.098425*%
%ADD29O,0.07874X0.03937*%
%ADD30C,0.05*%
%ADD31C,0.05*%
%ADD79OUTLINE0*%
%FSLAX26Y26*%
G04*
G70*
G90*
G75*
G01*
G04 Top*
%LPD*%
X574950Y1306201D2*
D14*
X568699D1*
Y1324951D1*
X1812450Y1531201D2*
Y1843701D1*
X1556201Y1493701D2*
Y1787450D1*
X1762451Y581201D2*
Y993702D1*
X1762450Y993701D1*
X4306201Y1593701D2*
Y1893701D1*
X1674950Y581201D2*
Y993699D1*
X1674951Y993701D1*
X4306201Y1131201D2*
Y1431201D1*
X1587450Y581201D2*
Y993701D1*
X4306201Y668701D2*
Y968701D1*
X1656201Y1487451D2*
Y1787450D1*
X2837451Y912450D2*
Y612450D1*
D27*
X1812450Y1531201D3*
Y1843701D3*
X1556201Y1787450D3*
Y1493701D3*
X1656201Y1787450D3*
Y1487451D3*
X1587450Y581201D3*
X1674950D3*
X1762450Y993701D3*
X1587450D3*
X1674951D3*
X1762451Y581201D3*
X2837451Y912450D3*
Y612450D3*
D16*
X1381201Y818701D3*
D17*
Y618701D3*
X674950Y1306201D3*
D16*
X574950D3*
D17*
X674950Y837451D3*
D16*
X574950D3*
X506201Y649951D3*
D17*
X706201D3*
D16*
X3318701Y1868701D3*
D17*
X3518701D3*
D16*
X1943701Y1518701D3*
D17*
X2143701D3*
D16*
X2062450Y981201D3*
D17*
X1862450D3*
D18*
X1462451Y1887450D3*
D19*
X1027412D3*
D20*
X874950Y1068701D3*
X974950D3*
Y1168701D3*
X874950D3*
Y1268701D3*
X974950D3*
X874950Y1368701D3*
X974950D3*
X973375Y1468701D3*
X876525D3*
Y1568701D3*
X973375D3*
X876525Y1668701D3*
X973375D3*
X4062470Y1368701D3*
Y1468701D3*
Y1268701D3*
Y1168701D3*
Y1568701D3*
D21*
X693701Y1474951D3*
D20*
X593701D3*
D21*
X3768701Y2037450D3*
D20*
X3868701D3*
D21*
X3018701Y2024950D3*
D20*
X2918701D3*
D22*
X731201Y1781201D3*
D23*
X494980D3*
D24*
X613091Y1588287D3*
D25*
X2174951Y581201D3*
D26*
Y981201D3*
D27*
X1043701Y724951D3*
D20*
X1737451Y1912450D3*
X1637451D3*
D28*
X3024950Y1349951D3*
X3812352D3*
D79*
X2756201Y1724950D3*
D29*
Y1824950D3*
Y1924950D3*
D30*
X1156201Y806201D3*
D31*
Y1106201D3*
D30*
X1087450Y2031201D3*
D31*
X1387450D3*
D21*
X943701Y624950D3*
D20*
X1043701D3*
X1143701D3*
D30*
X2893701Y1593701D3*
D31*
Y1893701D3*
D30*
X3256201Y1774951D3*
D31*
X2956201D3*
D30*
X3262451Y912451D3*
D31*
Y612451D3*
D30*
X3149951Y612450D3*
D31*
Y912450D3*
D30*
X2924951Y612450D3*
D31*
Y912450D3*
D30*
X2637450Y1762451D3*
D31*
Y1462451D3*
D30*
X3037450Y912451D3*
D31*
Y612451D3*
D30*
X3118701Y2024950D3*
D31*
X3418701D3*
D21*
X4506201Y1893701D3*
D20*
X4306201D3*
Y1593701D3*
X4506201D3*
D21*
Y1431201D3*
D20*
X4306201D3*
Y1131201D3*
X4506201D3*
D21*
Y968701D3*
D20*
X4306201D3*
Y668701D3*
X4506201D3*
D17*
X1256201Y1406201D3*
D16*
X1356201D3*
X1456201D3*
X1556201D3*
X1656201D3*
X1756201D3*
X1856201D3*
X1956201D3*
X2056201D3*
X2156201D3*
X2256201D3*
X2356201D3*
X2456201D3*
X2556201D3*
Y1106201D3*
X2456201D3*
X2356201D3*
X2256201D3*
X2156201D3*
X2056201D3*
X1956201D3*
X1856201D3*
X1756201D3*
X1656201D3*
X1556201D3*
X1456201D3*
X1356201D3*
X1256201D3*
D79*
X649950Y1037451D3*
D29*
Y1087451D3*
Y1137451D3*
D20*
X2487450Y656201D3*
X2587450D3*
X2687450D3*
X2387450D3*
M02*
