G04 DipTrace 3.3.1.3*
G04 TopMask.gbr*
%MOIN*%
G04 #@! TF.FileFunction,Soldermask,Top*
G04 #@! TF.Part,Single*
%AMOUTLINE1*
4,1,8,
-0.031158,0.023622,
-0.043307,0.011473,
-0.043307,-0.011473,
-0.031158,-0.023622,
0.031158,-0.023622,
0.043307,-0.011473,
0.043307,0.011473,
0.031158,0.023622,
-0.031158,0.023622,
0*%
%ADD18R,0.070866X0.070866*%
%ADD34C,0.098425*%
%ADD35C,0.11811*%
%ADD43C,0.066929*%
%ADD47C,0.057874*%
%ADD49C,0.057874*%
%ADD51O,0.086614X0.047244*%
%ADD53C,0.106299*%
%ADD55C,0.067874*%
%ADD57R,0.067874X0.067874*%
%ADD59O,0.185039X0.086614*%
%ADD61O,0.086614X0.185039*%
%ADD63O,0.086614X0.204724*%
%ADD65R,0.066929X0.066929*%
%ADD67C,0.066929*%
%ADD69C,0.07874*%
%ADD71R,0.07874X0.07874*%
%ADD73C,0.070866*%
%ADD80OUTLINE1*%
%FSLAX26Y26*%
G04*
G70*
G90*
G75*
G01*
G04 TopMask*
%LPD*%
D73*
X1381201Y818701D3*
D18*
Y618701D3*
X674950Y1306201D3*
D73*
X574950D3*
D18*
X674950Y837451D3*
D73*
X574950D3*
X506201Y649951D3*
D18*
X706201D3*
D73*
X3318701Y1868701D3*
D18*
X3518701D3*
D73*
X1943701Y1518701D3*
D18*
X2143701D3*
D73*
X2062450Y981201D3*
D18*
X1862450D3*
D71*
X1462451Y1887450D3*
D69*
X1027412D3*
D67*
X874950Y1068701D3*
X974950D3*
Y1168701D3*
X874950D3*
Y1268701D3*
X974950D3*
X874950Y1368701D3*
X974950D3*
X973375Y1468701D3*
X876525D3*
Y1568701D3*
X973375D3*
X876525Y1668701D3*
X973375D3*
X4062470Y1368701D3*
Y1468701D3*
Y1268701D3*
Y1168701D3*
Y1568701D3*
D34*
X874950Y1841142D3*
Y896260D3*
X4063927Y1841142D3*
Y896260D3*
D35*
X487450Y2068701D3*
Y487450D3*
X4506201Y2068701D3*
Y487451D3*
D65*
X693701Y1474951D3*
D67*
X593701D3*
D65*
X3768701Y2037450D3*
D67*
X3868701D3*
D65*
X3018701Y2024950D3*
D67*
X2918701D3*
D63*
X731201Y1781201D3*
D61*
X494980D3*
D59*
X613091Y1588287D3*
D57*
X2174951Y581201D3*
D55*
Y981201D3*
D43*
X1043701Y724951D3*
D67*
X1737451Y1912450D3*
X1637451D3*
D53*
X3024950Y1349951D3*
X3812352D3*
D80*
X2756201Y1724950D3*
D51*
Y1824950D3*
Y1924950D3*
D49*
X1156201Y806201D3*
D47*
Y1106201D3*
D49*
X1087450Y2031201D3*
D47*
X1387450D3*
D65*
X943701Y624950D3*
D67*
X1043701D3*
X1143701D3*
D49*
X2893701Y1593701D3*
D47*
Y1893701D3*
D49*
X3256201Y1774951D3*
D47*
X2956201D3*
D49*
X3262451Y912451D3*
D47*
Y612451D3*
D49*
X3149951Y612450D3*
D47*
Y912450D3*
D49*
X2924951Y612450D3*
D47*
Y912450D3*
D49*
X2637450Y1762451D3*
D47*
Y1462451D3*
D49*
X3037450Y912451D3*
D47*
Y612451D3*
D49*
X3118701Y2024950D3*
D47*
X3418701D3*
D65*
X4506201Y1893701D3*
D67*
X4306201D3*
Y1593701D3*
X4506201D3*
D65*
Y1431201D3*
D67*
X4306201D3*
Y1131201D3*
X4506201D3*
D65*
Y968701D3*
D67*
X4306201D3*
Y668701D3*
X4506201D3*
D18*
X1256201Y1406201D3*
D73*
X1356201D3*
X1456201D3*
X1556201D3*
X1656201D3*
X1756201D3*
X1856201D3*
X1956201D3*
X2056201D3*
X2156201D3*
X2256201D3*
X2356201D3*
X2456201D3*
X2556201D3*
Y1106201D3*
X2456201D3*
X2356201D3*
X2256201D3*
X2156201D3*
X2056201D3*
X1956201D3*
X1856201D3*
X1756201D3*
X1656201D3*
X1556201D3*
X1456201D3*
X1356201D3*
X1256201D3*
D80*
X649950Y1037451D3*
D51*
Y1087451D3*
Y1137451D3*
D67*
X2487450Y656201D3*
X2587450D3*
X2687450D3*
X2387450D3*
M02*
